<?xml version="1.0" standalone="no"?>
<!DOCTYPE svg PUBLIC "-//W3C//DTD SVG 1.1//EN" "http://www.w3.org/Graphics/SVG/1.1/DTD/svg11.dtd" >
<svg>
<metadata>
Created by FontForge 20090914 at Tue Feb  9 09:12:35 2021
 By www-data
Copyright 2014 The Nunito Project Authors (https://github.com/googlefonts/nunito)
</metadata>
<defs>
<font id="Nunito-Light" horiz-adv-x="0" >
  <font-face 
    font-family="Nunito Light"
    font-weight="300"
    font-stretch="normal"
    units-per-em="1000"
    panose-1="0 0 0 0 0 0 0 0 0 0"
    ascent="800"
    descent="-200"
    x-height="485"
    cap-height="705"
    bbox="-239.555 -276 1284 1043"
    underline-thickness="32"
    underline-position="-65"
    unicode-range="U+000D-U+FB02"
  />
<missing-glyph horiz-adv-x="500" 
d="M50 -180v885h400v-885h-400zM100 -130h300v785h-300v-785z" />
    <glyph glyph-name="fi" unicode="fi" horiz-adv-x="535" 
d="M134 -6c-20.667 0 -31.001 10.334 -31.001 31.001v411h-71c-18.667 0 -28 8.33301 -28 25c0 16 9.33301 24 28 24h71v24c0 121.333 57.333 186.333 172 195l30 2c12.667 1.33301 21 -2 25 -10s4.33301 -16.333 1 -25s-9.33301 -13.334 -18 -14.001l-32 -2
c-41.333 -2.66699 -71.166 -16.167 -89.499 -40.5s-27.5 -57.833 -27.5 -100.5v-29h260c20 0 30 -10.667 30 -32v-424c0 -22 -10 -33 -30 -33c-20.667 0 -31 11 -31 33v407h-229v-411c0 -20.667 -10 -31 -30 -31zM423.999 610.001c-28.667 0 -43 14 -43 42
c0 27.333 14.333 41 43 41c29.333 0 44 -13.667 44 -41c0 -28 -14.667 -42 -44 -42z" />
    <glyph glyph-name="fl" unicode="fl" horiz-adv-x="604" 
d="M134 -6c-20.667 0 -31.0029 10.3359 -31.0029 31.0029v411h-71c-18.667 0 -28 8.33301 -28 25c0 16 9.33301 24 28 24h71v24c0 122 58.333 188 175 198l27 2c12.667 0.666992 20.834 -2.83301 24.501 -10.5s3.83398 -15.834 0.500977 -24.501
s-9.66602 -13.334 -18.999 -14.001l-28 -3c-41.333 -3.33301 -71.5 -16.833 -90.5 -40.5s-28.5 -57.834 -28.5 -102.501v-29h119c18.667 0 28 -8 28 -24c0 -16.667 -9.33301 -25 -28 -25h-119v-411c0 -20.667 -10 -31 -30 -31zM538.997 -7.99707
c-44.667 0 -79.167 13.832 -103.5 41.499s-36.5 67.5 -36.5 119.5v527c0 20.667 10.333 31 31 31c20 0 30 -10.333 30 -31v-520c0 -76.667 30 -115 90 -115c6 0 11.5 0.333008 16.5 1s9.83301 1 14.5 1c6 0.666992 10.5 -0.5 13.5 -3.5s4.5 -9.16699 4.5 -18.5
c0 -17.333 -10 -27.666 -30 -30.999c-4.66699 -1.33301 -9.66699 -2 -15 -2h-15z" />
    <glyph glyph-name=".notdef" horiz-adv-x="500" 
d="M50 -180v885h400v-885h-400zM100 -130h300v785h-300v-785z" />
    <glyph glyph-name="NULL" 
 />
    <glyph glyph-name="NULL" 
 />
    <glyph glyph-name="CR" unicode="&#xd;" horiz-adv-x="252" 
 />
    <glyph glyph-name="space" unicode=" " horiz-adv-x="252" 
 />
    <glyph glyph-name="exclam" unicode="!" horiz-adv-x="219" 
d="M110 168c-13.333 0 -20.333 8.33301 -21 25l-15 479c-1.33301 26 10.667 39 36 39c24.667 0 36.667 -13 36 -39l-16 -479c0 -16.667 -6.66699 -25 -20 -25zM110 -3c-13.333 0 -24.333 4.33301 -33 13s-13 19.667 -13 33s4.33301 24.333 13 33s19.667 13 33 13
c14 0 25.167 -4.33301 33.5 -13s12.5 -19.667 12.5 -33s-4.16699 -24.333 -12.5 -33s-19.5 -13 -33.5 -13z" />
    <glyph glyph-name="quotedbl" unicode="&#x22;" horiz-adv-x="366" 
d="M107 428c-13.333 0 -21.001 8 -23.001 24l-13 222c-0.666992 10.667 2.33301 19.5 9 26.5s15.334 10.5 26.001 10.5c10 0 18.333 -3.5 25 -10.5s9.66699 -15.833 9 -26.5l-11 -222c-0.666992 -16 -8 -24 -22 -24zM261.999 428c-13.333 0 -21.001 8 -23.001 24l-13 222
c-0.666992 10.667 2.33301 19.5 9 26.5s15.334 10.5 26.001 10.5c10 0 18.333 -3.5 25 -10.5s9.66699 -15.833 9 -26.5l-11 -222c-0.666992 -16 -8 -24 -22 -24z" />
    <glyph glyph-name="numbersign" unicode="#" horiz-adv-x="600" 
d="M118 -6c-18.667 0 -25.668 11.333 -21.001 34l31 159h-67c-20.667 0 -31 8 -31 24c0 16.667 10.333 25 31 25h76l47 241h-103c-21.333 0 -32 8.33301 -32 25c0 16 10.667 24 32 24h112l30 157c4 18.667 14.667 28 32 28c16.667 0 23 -11.333 19 -34l-28 -151h174l29 157
c4 18.667 15 28 33 28c16.667 0 23 -11.333 19 -34l-28 -151h66c20.667 0 31 -8 31 -24c0 -16.667 -10.333 -25 -31 -25h-76l-47 -241h103c21.333 0 32 -8.33301 32 -25c0 -16 -10.667 -24 -32 -24h-112l-32 -165c-4 -18.667 -14.667 -28 -32 -28
c-18 0 -24.667 11.333 -20 34l30 159h-173l-31 -165c-3.33301 -18.667 -13.666 -28 -30.999 -28zM188.999 236h174l47 241h-174z" />
    <glyph glyph-name="dollar" unicode="$" horiz-adv-x="600" 
d="M310 -121c-7.33301 0 -13.665 2.49414 -18.998 7.49414s-8 11.167 -8 18.5v91c-44 1.33301 -84.667 8.5 -122 21.5s-68.333 29.833 -93 50.5c-10 7.33301 -14.667 16.333 -14 27s5.16699 18.834 13.5 24.501s18.5 4.16699 30.5 -4.5
c24 -17.333 51.833 -32.166 83.5 -44.499s71.834 -18.5 120.501 -18.5c60.667 0 105.834 12.167 135.501 36.5s44.5 56.166 44.5 95.499c0 32 -10.833 57.333 -32.5 76s-57.5 33.667 -107.5 45l-98 20c-60 12.667 -104.5 33.834 -133.5 63.501s-43.5 69.5 -43.5 119.5
c0 37.333 9 70.666 27 99.999s43.167 52.833 75.5 70.5s70.166 27.834 113.499 30.501v91c0 7.33301 2.66699 13.5 8 18.5s11.666 7.5 18.999 7.5s13.666 -2.5 18.999 -7.5s8 -11.167 8 -18.5v-92c31.333 -2 63.666 -9.83301 96.999 -23.5s61.666 -32.167 84.999 -55.5
c8 -8 11 -16.667 9 -26s-7.16699 -16.166 -15.5 -20.499s-18.166 -2.16602 -29.499 6.50098c-24 20.667 -50.167 36.5 -78.5 47.5s-61.833 16.5 -100.5 16.5c-53.333 0 -96.166 -13.333 -128.499 -40s-48.5 -61.667 -48.5 -105c0 -34 10.167 -61.167 30.5 -81.5
s53.166 -35.166 98.499 -44.499l98 -21c65.333 -13.333 113.5 -34 144.5 -62s46.5 -65.333 46.5 -112c0 -54.667 -19.333 -98.667 -58 -132s-88.667 -52.666 -150 -57.999v-92c0 -7.33301 -2.5 -13.5 -7.5 -18.5s-11.5 -7.5 -19.5 -7.5z" />
    <glyph glyph-name="percent" unicode="%" horiz-adv-x="923" 
d="M287 -5c-6.66699 -12 -14.834 -17.665 -24.501 -16.998s-17.167 5.16699 -22.5 13.5s-4.66602 18.166 2.00098 29.499l393 687c6.66699 12 14.834 17.667 24.501 17s17.167 -5.33398 22.5 -14.001s4.66602 -18.667 -2.00098 -30zM227 282.002
c-51.333 0 -91.833 18.6689 -121.5 56.002s-44.5 90.666 -44.5 159.999c0 68 14.833 120.833 44.5 158.5s70.167 56.5 121.5 56.5s92 -18.833 122 -56.5s45 -90.5 45 -158.5c0 -68.667 -14.833 -121.834 -44.5 -159.501s-70.5 -56.5 -122.5 -56.5zM227 329.004
c34.667 0 61.834 14.333 81.501 43s29.5 70.667 29.5 126c0 54.667 -9.83301 96.167 -29.5 124.5s-46.834 42.5 -81.501 42.5c-34 0 -60.833 -14.167 -80.5 -42.5s-29.5 -69.833 -29.5 -124.5c0 -56 9.83301 -98.167 29.5 -126.5s46.5 -42.5 80.5 -42.5zM695 -7.99609
c-51.333 0 -91.833 18.6689 -121.5 56.002s-44.5 90.666 -44.5 159.999c0 68 14.833 120.833 44.5 158.5s70.167 56.5 121.5 56.5c52 0 92.833 -18.833 122.5 -56.5s44.5 -90.5 44.5 -158.5c0 -68.667 -14.833 -121.834 -44.5 -159.501s-70.5 -56.5 -122.5 -56.5z
M695 39.0059c34.667 0 61.834 14.167 81.501 42.5s29.5 70.5 29.5 126.5c0 54.667 -9.83301 96.167 -29.5 124.5s-46.834 42.5 -81.501 42.5c-34 0 -60.833 -14.167 -80.5 -42.5s-29.5 -69.833 -29.5 -124.5c0 -56 9.83301 -98.167 29.5 -126.5s46.5 -42.5 80.5 -42.5z" />
    <glyph glyph-name="ampersand" unicode="&#x26;" horiz-adv-x="678" 
d="M281 -8c-68.667 0 -121.999 15.668 -159.999 47.001s-57 73.333 -57 126c0 44.667 12.333 83.167 37 115.5s62.334 65.833 113.001 100.5l20 14c-32 35.333 -54.333 65.666 -67 90.999s-19 51 -19 77c0 44.667 14.833 80.834 44.5 108.501s69.834 41.5 120.501 41.5
c42 0 77.167 -12.333 105.5 -37s42.5 -58 42.5 -100c0 -22.667 -4.33301 -43.834 -13 -63.501s-23.334 -39.667 -44.001 -60s-49.334 -42.833 -86.001 -67.5l177 -203c27.333 52 43.333 120 48 204c2 19.333 12 29 30 29c18.667 0 27 -10.333 25 -31
c-2.66699 -49.333 -9.83398 -94.5 -21.501 -135.5s-26.167 -77.167 -43.5 -108.5l93 -105c9.33301 -10.667 11.5 -20.167 6.5 -28.5s-13.167 -12.5 -24.5 -12.5c-12 0 -23 5.66699 -33 17l-74 84c-26.667 -32.667 -59 -58 -97 -76s-79 -27 -123 -27zM313.001 663.001
c-31.333 0 -56.833 -9.16797 -76.5 -27.501s-29.5 -42.166 -29.5 -71.499c0 -15.333 2.16699 -29.333 6.5 -42s12.166 -26.667 23.499 -42s27 -34.333 47 -57c44.667 30.667 76.167 57 94.5 79s27.5 45 27.5 69c0 28 -8.66699 50.333 -26 67s-39.666 25 -66.999 25z
M283.001 44c75.333 0 136 30.332 182 90.999l-197 221l-18 -13c-31.333 -21.333 -56 -40.833 -74 -58.5s-31 -35.667 -39 -54s-12 -39.166 -12 -62.499c0 -39.333 13.333 -69.833 40 -91.5s66 -32.5 118 -32.5z" />
    <glyph glyph-name="quotesingle" unicode="'" horiz-adv-x="211" 
d="M107 428c-13.333 0 -21.001 8 -23.001 24l-13 222c-0.666992 10.667 2.33301 19.5 9 26.5s15.334 10.5 26.001 10.5c10 0 18.333 -3.5 25 -10.5s9.66699 -15.833 9 -26.5l-11 -222c-0.666992 -16 -8 -24 -22 -24z" />
    <glyph glyph-name="parenleft" unicode="(" horiz-adv-x="299" 
d="M206 -171c-34.667 70 -60.5 141.168 -77.5 213.501s-25.5 145.833 -25.5 220.5s8.5 148.167 25.5 220.5s42.833 143.5 77.5 213.5c5.33301 10 12.666 15.167 21.999 15.5s17 -3.16699 23 -10.5s6.33301 -17.333 1 -30c-56 -135.333 -84 -271.666 -84 -408.999
c0 -69.333 7 -137.833 21 -205.5s35 -135.5 63 -203.5c5.33301 -13.333 5 -23.333 -1 -30s-13.667 -9.83398 -23 -9.50098s-16.666 5.16602 -21.999 14.499z" />
    <glyph glyph-name="parenright" unicode=")" horiz-adv-x="299" 
d="M92 -171c-4.66699 -9.33301 -11.668 -14.168 -21.001 -14.501s-17.166 2.83398 -23.499 9.50098s-6.83301 16.667 -1.5 30c56.667 134.667 85 271 85 409c0 69.333 -7.33301 137.833 -22 205.5s-35.667 135.5 -63 203.5c-4.66699 12.667 -4 22.667 2 30
s13.667 10.833 23 10.5s16.333 -5.5 21 -15.5c36 -70 62.333 -141.167 79 -213.5s25 -145.833 25 -220.5s-8.5 -148.5 -25.5 -221.5s-43.167 -143.833 -78.5 -212.5z" />
    <glyph glyph-name="asterisk" unicode="*" horiz-adv-x="449" 
d="M128 372c-14 8.66699 -15.333 22.334 -4 41.001l65 104l-122 -4c-22 0 -33 8 -33 24s11 24 33 24l122 -4l-65 105c-11.333 18.667 -9.66602 32.334 5.00098 41.001c6 4 12.5 4.16699 19.5 0.5s12.833 -9.83398 17.5 -18.501l59 -109l58 109
c4.66699 9.33301 10.5 15.666 17.5 18.999s13.833 3 20.5 -1c13.333 -9.33301 14.333 -23 3 -41l-64 -105l122 4c22.667 0 34 -8 34 -24s-11.333 -24 -34 -24l-122 4l64 -104c11.333 -18.667 10.333 -32 -3 -40c-7.33301 -4.66699 -14.333 -5.16699 -21 -1.5
s-12.334 9.83398 -17.001 18.501l-58 108l-60 -109c-4 -8.66699 -9.33301 -14.834 -16 -18.501s-13.667 -3.16699 -21 1.5z" />
    <glyph glyph-name="plus" unicode="+" horiz-adv-x="600" 
d="M300 34c-17.333 0 -26 8.66699 -26 26v202h-198c-17.333 0 -26 8.33301 -26 25s8.66699 25 26 25h198v196c0 17.333 8.66699 26 26 26s26 -8.66699 26 -26v-196h198c17.333 0 26 -8.33301 26 -25s-8.66699 -25 -26 -25h-198v-202c0 -17.333 -8.66699 -26 -26 -26z" />
    <glyph glyph-name="comma" unicode="," horiz-adv-x="219" 
d="M116 -90c-8 -9.33301 -15.832 -13.6689 -23.499 -13.002s-13 4.66699 -16 12s-0.5 16.333 7.5 27c6.66699 10 12 20.167 16 30.5s6.66699 20.5 8 30.5c-13.333 0.666992 -24 5.33398 -32 14.001s-12 19.334 -12 32.001c0 13.333 4.16699 24.333 12.5 33
s19.166 13 32.499 13c14 0 25.167 -4.83301 33.5 -14.5s12.5 -24.167 12.5 -43.5c0 -18.667 -3 -39 -9 -61s-16 -42 -30 -60z" />
    <glyph glyph-name="hyphen" unicode="-" horiz-adv-x="420" 
d="M95 240c-8 0 -14.5 2.5 -19.5 7.5s-7.5 11.167 -7.5 18.5s2.5 13.5 7.5 18.5s11.5 7.5 19.5 7.5h231c7.33301 0 13.5 -2.5 18.5 -7.5s7.5 -11.167 7.5 -18.5s-2.5 -13.5 -7.5 -18.5s-11.167 -7.5 -18.5 -7.5h-231z" />
    <glyph glyph-name="period" unicode="." horiz-adv-x="219" 
d="M110 -3c-13.333 0 -24.333 4.33301 -33 13s-13 19.667 -13 33s4.33301 24.333 13 33s19.667 13 33 13c14 0 25.167 -4.33301 33.5 -13s12.5 -19.667 12.5 -33s-4.16699 -24.333 -12.5 -33s-19.5 -13 -33.5 -13z" />
    <glyph glyph-name="slash" unicode="/" horiz-adv-x="269" 
d="M39 -37c-3.33301 -11.333 -9.83301 -17.667 -19.5 -19s-18.167 1.16699 -25.5 7.5s-9 15.166 -5 26.499l241 747c4 12 10.833 18.667 20.5 20s18 -1.16699 25 -7.5s8.5 -15.166 4.5 -26.499z" />
    <glyph glyph-name="zero" unicode="0" horiz-adv-x="600" 
d="M300 -8c-79.333 0 -139.5 30.6689 -180.5 92.002s-61.5 150.666 -61.5 267.999c0 118.667 20.5 208.5 61.5 269.5s101.167 91.5 180.5 91.5c80 0 140.333 -30.333 181 -91s61 -150.334 61 -269.001c0 -117.333 -20.667 -206.833 -62 -268.5s-101.333 -92.5 -180 -92.5z
M300 47.002c60.667 0 105.667 25 135 75s44 127 44 231c0 105.333 -14.5 182.5 -43.5 231.5s-74.167 73.5 -135.5 73.5c-60.667 0 -105.667 -24.667 -135 -74s-44 -126.333 -44 -231c0 -104 14.667 -181 44 -231s74.333 -75 135 -75z" />
    <glyph glyph-name="one" unicode="1" horiz-adv-x="600" 
d="M154 0c-19.333 0 -29 9.33398 -29 28.001c0 17.333 9.66699 26 29 26h139v578l-110 -75c-10.667 -7.33301 -20.334 -8.5 -29.001 -3.5s-13.667 12.667 -15 23s3.66699 19.166 15 26.499l138 96c6.66699 4 12.834 7 18.501 9s11.5 3 17.5 3
c7.33301 0 13.5 -2.33301 18.5 -7s7.5 -11.667 7.5 -21v-629h129c19.333 0 29 -8.66699 29 -26c0 -18.667 -9.66699 -28 -29 -28h-329z" />
    <glyph glyph-name="two" unicode="2" horiz-adv-x="600" 
d="M127 0c-12 0 -20.8311 2.83203 -26.498 8.49902s-8.5 13.167 -8.5 22.5c0 10.667 5 21 15 31l234 253c35.333 38.667 61.166 74.5 77.499 107.5s24.5 66.833 24.5 101.5c0 43.333 -13 76.333 -39 99s-64 34 -114 34c-64 0 -122 -21.667 -174 -65
c-11.333 -8.66699 -21 -10.5 -29 -5.5s-12.667 12.833 -14 23.5s2.66699 19.667 12 27c25.333 22.667 56.5 41 93.5 55s75.167 21 114.5 21c68 0 120.5 -16.167 157.5 -48.5s55.5 -78.166 55.5 -137.499c0 -42 -10.333 -83.5 -31 -124.5s-52.334 -84.167 -95.001 -129.5
l-207 -219h339c19.333 0 29 -8.66699 29 -26c0 -18.667 -9.66699 -28 -29 -28h-385z" />
    <glyph glyph-name="three" unicode="3" horiz-adv-x="600" 
d="M294 -8c-40 0 -79.4971 6.00195 -118.497 18.002s-72.5 30 -100.5 54c-10.667 8 -15.5 17.167 -14.5 27.5s5.66699 18.166 14 23.499s18.5 3.66602 30.5 -5.00098c30 -21.333 60.5 -37 91.5 -47s63.5 -15 97.5 -15c54 0 95.333 12.333 124 37s43 60.334 43 107.001
c0 45.333 -14.833 79.833 -44.5 103.5s-72.5 35.5 -128.5 35.5h-75c-20 0 -30 9 -30 27s10 27 30 27h70c48.667 0 87.167 13 115.5 39s42.5 62 42.5 108c0 40 -13 70.833 -39 92.5s-63 32.5 -111 32.5c-32.667 0 -63.334 -5.16699 -92.001 -15.5s-56 -26.833 -82 -49.5
c-10.667 -9.33301 -20.334 -11.666 -29.001 -6.99902s-13.834 12.167 -15.501 22.5s3.16602 20.166 14.499 29.499c25.333 24.667 56.333 43.5 93 56.5s74.334 19.5 113.001 19.5c66 0 117.667 -15.667 155 -47s56 -75 56 -131c0 -40 -10.333 -75.167 -31 -105.5
s-48.667 -52.166 -84 -65.499c42.667 -10.667 75.667 -31.334 99 -62.001s35 -68.334 35 -113.001c0 -60.667 -20.333 -108.667 -61 -144s-96.667 -53 -168 -53z" />
    <glyph glyph-name="four" unicode="4" horiz-adv-x="600" 
d="M421 -6c-20.667 0 -31.001 10.334 -31.001 31.001v134h-305c-21.333 0 -32 9.66699 -32 29c0 9.33301 5 21.666 15 36.999l319 466c9.33301 13.333 21 20 35 20c8.66699 0 15.834 -2.66699 21.501 -8s8.5 -13 8.5 -23v-467h84c20 0 30 -9 30 -27s-10 -27 -30 -27h-84
v-134c0 -20.667 -10.333 -31 -31 -31zM389.999 213.001v389l-267 -389h267z" />
    <glyph glyph-name="five" unicode="5" horiz-adv-x="600" 
d="M319 -8c-40 0 -79.001 6.17188 -117.001 18.5049s-72.333 31.166 -103 56.499c-9.33301 7.33301 -13.333 16.166 -12 26.499s6.33301 18.166 15 23.499s18.667 3.66602 30 -5.00098c28 -22 57.667 -38.167 89 -48.5s64 -15.5 98 -15.5c52 0 93 15 123 45s45 69 45 117
c0 50 -14.333 91.167 -43 123.5s-68 48.5 -118 48.5c-32.667 0 -62 -6 -88 -18s-49 -31.333 -69 -58c-8 -12 -18 -18 -30 -18c-19.333 0 -29 9.66699 -29 29v358c0 20 10 30 30 30h344c20 0 30 -9 30 -27s-10 -27 -30 -27h-313v-281c18.667 21.333 42 38 70 50s59 18 93 18
c44 0 82 -9.33301 114 -28s56.833 -44.834 74.5 -78.501s26.5 -72.5 26.5 -116.5s-9.33301 -82.667 -28 -116s-45.167 -59.5 -79.5 -78.5s-75.166 -28.5 -122.499 -28.5z" />
    <glyph glyph-name="six" unicode="6" horiz-adv-x="600" 
d="M324 -8c-82 0 -145 29.833 -189 89.5s-66 143.5 -66 251.5c0 122.667 24.333 216.667 73 282s116.667 98 204 98c31.333 0 63.666 -6.5 96.999 -19.5s62 -31.833 86 -56.5c8.66699 -8 12.167 -17.167 10.5 -27.5s-6.66699 -17.833 -15 -22.5
s-17.833 -2.33398 -28.5 6.99902c-22.667 22 -47 38 -73 48s-52 15 -78 15c-68.667 0 -121.667 -26.167 -159 -78.5s-56 -130.166 -56 -233.499v-59c12.667 47.333 36.834 84.5 72.501 111.5s77.834 40.5 126.501 40.5c42 0 79.167 -9.5 111.5 -28.5
s57.666 -45.167 75.999 -78.5s27.5 -71.333 27.5 -114c0 -44 -9.5 -82.833 -28.5 -116.5s-45 -60.167 -78 -79.5s-70.833 -29 -113.5 -29zM319 47c48.667 0 88 15.5 118 46.5s45 71.5 45 121.5c0 49.333 -15 89.666 -45 120.999s-69.333 47 -118 47s-88 -15.667 -118 -47
s-45 -71.666 -45 -120.999c0 -50 15 -90.5 45 -121.5s69.333 -46.5 118 -46.5z" />
    <glyph glyph-name="seven" unicode="7" horiz-adv-x="600" 
d="M166 -6c-10 0 -18 3.83301 -24 11.5s-6 17.5 0 29.5l314 615h-360c-20 0 -30 9.33301 -30 28c0 18 10 27 30 27h401c20.667 0 31 -9 31 -27c0 -11.333 -3.33301 -23.333 -10 -36l-318 -627c-6.66699 -14 -18 -21 -34 -21z" />
    <glyph glyph-name="eight" unicode="8" horiz-adv-x="600" 
d="M300 -8c-78 0 -138.669 16.835 -182.002 50.502s-65 81.167 -65 142.5c0 44.667 12.333 82.5 37 113.5s57.334 51.5 98.001 61.5c-36.667 12.667 -65.5 34 -86.5 64s-31.5 64.333 -31.5 103c0 58.667 20.833 104.334 62.5 137.001s97.5 49 167.5 49
s125.833 -16.333 167.5 -49s62.5 -78.334 62.5 -137.001c0 -38.667 -10.5 -73 -31.5 -103s-49.833 -51.333 -86.5 -64c40.667 -10.667 73.334 -31.334 98.001 -62.001s37 -68.334 37 -113.001c0 -61.333 -21.667 -108.833 -65 -142.5s-104 -50.5 -182 -50.5z
M299.998 384.002c52.667 0 94 12.333 124 37s45 58.667 45 102s-15 77 -45 101s-71.333 36 -124 36s-94 -12 -124 -36s-45 -57.667 -45 -101s15 -77.333 45 -102s71.333 -37 124 -37zM299.998 45.002c123.333 0 185 47.667 185 143c0 94.667 -61.667 142 -185 142
s-185 -47.333 -185 -142c0 -95.333 61.667 -143 185 -143z" />
    <glyph glyph-name="nine" unicode="9" horiz-adv-x="600" 
d="M254 -8c-31.333 0 -63.666 6.66602 -96.999 19.999s-62 32.333 -86 57c-8.66699 7.33301 -12.167 16.333 -10.5 27s6.66699 18.334 15 23.001s17.833 2.33398 28.5 -6.99902c22.667 -22 47 -38.167 73 -48.5s52 -15.5 78 -15.5c68.667 0 121.667 26.167 159 78.5
s56 130.166 56 233.499v59c-12.667 -47.333 -36.834 -84.5 -72.501 -111.5s-77.834 -40.5 -126.501 -40.5c-42 0 -79.167 9.5 -111.5 28.5s-57.666 45.167 -75.999 78.5s-27.5 71.333 -27.5 114c0 44 9.5 82.833 28.5 116.5s45 60.167 78 79.5s70.833 29 113.5 29
c82 0 145 -29.833 189 -89.5s66 -143.5 66 -251.5c0 -122.667 -24.333 -216.667 -73 -282s-116.667 -98 -204 -98zM281 321.999c48.667 0 88.167 15.667 118.5 47s45.5 71.666 45.5 120.999c0 50 -15.167 90.667 -45.5 122s-69.833 47 -118.5 47
c-48 0 -87.167 -15.667 -117.5 -47s-45.5 -72 -45.5 -122c0 -49.333 15.167 -89.666 45.5 -120.999s69.5 -47 117.5 -47z" />
    <glyph glyph-name="colon" unicode=":" horiz-adv-x="219" 
d="M110 396c-13.333 0 -24.333 4.33301 -33 13s-13 19.667 -13 33c0 14 4.33301 25.333 13 34s19.667 13 33 13c14 0 25.167 -4.33301 33.5 -13s12.5 -20 12.5 -34c0 -13.333 -4.16699 -24.333 -12.5 -33s-19.5 -13 -33.5 -13zM110 -3c-13.333 0 -24.333 4.33301 -33 13
s-13 19.667 -13 33s4.33301 24.333 13 33s19.667 13 33 13c14 0 25.167 -4.33301 33.5 -13s12.5 -19.667 12.5 -33s-4.16699 -24.333 -12.5 -33s-19.5 -13 -33.5 -13z" />
    <glyph glyph-name="semicolon" unicode=";" horiz-adv-x="219" 
d="M110 396c-13.333 0 -24.333 4.33301 -33 13s-13 19.667 -13 33c0 14 4.33301 25.333 13 34s19.667 13 33 13c14 0 25.167 -4.33301 33.5 -13s12.5 -20 12.5 -34c0 -13.333 -4.16699 -24.333 -12.5 -33s-19.5 -13 -33.5 -13zM116 -90
c-8 -9.33301 -15.832 -13.6689 -23.499 -13.002s-13 4.66699 -16 12s-0.5 16.333 7.5 27c6.66699 10 12 20.167 16 30.5s6.66699 20.5 8 30.5c-13.333 0.666992 -24 5.33398 -32 14.001s-12 19.334 -12 32.001c0 13.333 4.16699 24.333 12.5 33s19.166 13 32.499 13
c14 0 25.167 -4.83301 33.5 -14.5s12.5 -24.167 12.5 -43.5c0 -18.667 -3 -39 -9 -61s-16 -42 -30 -60z" />
    <glyph glyph-name="less" unicode="&#x3c;" horiz-adv-x="600" 
d="M519 48l-437 203.002c-18 8 -27 20 -27 36s9 28 27 36l437 204c11.333 4.66699 20.333 4 27 -2s9.83398 -13.833 9.50098 -23.5s-5.83301 -16.834 -16.5 -21.501l-419 -193l419 -193c10.667 -4.66699 16.167 -11.834 16.5 -21.501s-2.83398 -17.5 -9.50098 -23.5
s-15.667 -6.33301 -27 -1z" />
    <glyph glyph-name="equal" unicode="=" horiz-adv-x="600" 
d="M76 362c-17.333 0 -26 8.33301 -26 25s8.66699 25 26 25h448c17.333 0 26 -8.33301 26 -25s-8.66699 -25 -26 -25h-448zM76 163c-17.333 0 -26 8.33301 -26 25c0 16 8.66699 24 26 24h448c17.333 0 26 -8 26 -24c0 -16.667 -8.66699 -25 -26 -25h-448z" />
    <glyph glyph-name="greater" unicode="&#x3e;" horiz-adv-x="600" 
d="M81 48c-11.333 -5.33301 -20.333 -5.00195 -27 0.998047s-9.83398 13.833 -9.50098 23.5s5.83301 16.834 16.5 21.501l419 193l-419 193c-10.667 4.66699 -16.167 11.834 -16.5 21.501s2.83398 17.5 9.50098 23.5s15.667 6.66699 27 2l437 -204c18 -8 27 -20 27 -36
s-9 -28 -27 -36z" />
    <glyph glyph-name="question" unicode="?" horiz-adv-x="436" 
d="M202 169c-14 0 -21.001 8.66797 -21.001 26.001c0 36 6.66699 69.667 20 101s37 66.666 71 105.999c26.667 32 45.5 59.5 56.5 82.5s16.5 47.167 16.5 72.5c0 30.667 -11 55 -33 73s-51.667 27 -89 27c-33.333 0 -63.666 -5.16699 -90.999 -15.5s-53.333 -25.5 -78 -45.5
c-13.333 -10 -24.666 -12.833 -33.999 -8.5s-14.333 12 -15 23s5.33301 21.5 18 31.5c25.333 21.333 55.666 38.5 90.999 51.5s72 19.5 110 19.5c55.333 0 99.833 -14 133.5 -42s50.5 -65 50.5 -111c0 -32 -6.83301 -61.833 -20.5 -89.5s-37.5 -60.5 -71.5 -98.5
c-31.333 -35.333 -53.833 -66.333 -67.5 -93s-21.834 -55 -24.501 -85c-1.33301 -16.667 -8.66602 -25 -21.999 -25zM201.999 -2.99902c-14 0 -25.333 4.33301 -34 13s-13 19.667 -13 33s4.33301 24.333 13 33s20 13 34 13c13.333 0 24.166 -4.33301 32.499 -13
s12.5 -19.667 12.5 -33s-4.16699 -24.333 -12.5 -33s-19.166 -13 -32.499 -13z" />
    <glyph glyph-name="at" unicode="@" horiz-adv-x="945" 
d="M484 -163c-84 0 -157.667 17.833 -221 53.5s-112.333 86.334 -147 152.001s-52 143.167 -52 232.5c0 64.667 10.5 123.834 31.5 177.501s50.667 100 89 139s83.833 69 136.5 90s111 31.5 175 31.5c76 0 142.833 -15.333 200.5 -46s102.834 -73.667 135.501 -129
s49 -119.666 49 -192.999c0 -58 -8 -108.333 -24 -151s-38.167 -75.834 -66.5 -99.501s-61.5 -35.5 -99.5 -35.5c-32 0 -57.667 8 -77 24s-30.333 38 -33 66c-18.667 -28.667 -41.5 -50.834 -68.5 -66.501s-55.167 -23.5 -84.5 -23.5c-50.667 0 -90 15.833 -118 47.5
s-42 75.5 -42 131.5c0 49.333 9.5 93.166 28.5 131.499s44.833 68.666 77.5 90.999s69.667 33.5 111 33.5c32.667 0 60.167 -7.33301 82.5 -22s37.833 -35 46.5 -61l9 52c3.33301 18 13.666 27 30.999 27c18.667 0 26.334 -10 23.001 -30l-42 -242
c-1.33301 -8.66699 -2.33301 -16.667 -3 -24s-1 -14 -1 -20c0 -46.667 21.333 -70 64 -70c27.333 0 51.333 10 72 30s36.834 48.167 48.501 84.5s17.5 78.5 17.5 126.5c0 64 -14.333 120 -43 168s-68.334 85.5 -119.001 112.5s-109.334 40.5 -176.001 40.5
c-75.333 0 -141.333 -16.333 -198 -49s-101 -78.334 -133 -137.001s-48 -127 -48 -205c0 -81.333 15 -151.166 45 -209.499s72.667 -103 128 -134s120.333 -46.5 195 -46.5c51.333 0 97.833 7.66699 139.5 23s76.167 36 103.5 62c10 8.66699 19.5 11.5 28.5 8.5
s14.5 -9 16.5 -18s-2 -18.167 -12 -27.5c-31.333 -29.333 -70.5 -52.666 -117.5 -69.999s-99.833 -26 -158.5 -26zM433 107c31.333 0 59.5 9.5 84.5 28.5s44.667 45 59 78s21.5 70.5 21.5 112.5c0 79.333 -36.333 119 -109 119c-31.333 0 -59.5 -8.83301 -84.5 -26.5
s-44.833 -42.167 -59.5 -73.5s-22 -66.666 -22 -105.999c0 -42.667 9.66699 -75.334 29 -98.001s46.333 -34 81 -34z" />
    <glyph glyph-name="A" unicode="A" horiz-adv-x="722" 
d="M67 -6c-13.333 0 -21.999 4.16699 -25.999 12.5s-3.33301 18.5 2 30.5l281 646c8 18.667 20.333 28 37 28s29 -9.33301 37 -28l281 -646c6 -12 7.16699 -22.167 3.5 -30.5s-11.834 -12.5 -24.501 -12.5c-9.33301 0 -16.833 2.5 -22.5 7.5s-10.5 11.833 -14.5 20.5
l-71 166h-378l-71 -166c-8 -18.667 -19.333 -28 -34 -28zM360.001 629l-165 -388h332l-165 388h-2z" />
    <glyph glyph-name="B" unicode="B" horiz-adv-x="671" 
d="M126 0c-22.667 0 -34 11.668 -34 35.001v635c0 23.333 11.333 35 34 35h235c72 0 127.833 -16 167.5 -48s59.5 -77.667 59.5 -137c0 -38.667 -10.333 -71.667 -31 -99s-48.667 -47.333 -84 -60c40.667 -10 72.667 -29.5 96 -58.5s35 -65.833 35 -110.5
c0 -62.667 -20 -110.334 -60 -143.001s-96.667 -49 -170 -49h-248zM152 383.001h202c56 0 98.667 11.5 128 34.5s44 56.5 44 100.5s-14.667 77.5 -44 100.5s-72 34.5 -128 34.5h-202v-270zM152 52.001h217c115.333 0 173 46.333 173 139c0 48 -14.333 83.333 -43 106
s-72 34 -130 34h-217v-279z" />
    <glyph glyph-name="C" unicode="C" horiz-adv-x="670" 
d="M386 -8c-67.333 0 -125.001 14.5039 -173.001 43.5039s-84.833 70.5 -110.5 124.5s-38.5 118.333 -38.5 193c0 74 12.833 138 38.5 192s62.5 95.5 110.5 124.5s105.667 43.5 173 43.5c44 0 85 -6.5 123 -19.5s70.667 -31.5 98 -55.5
c11.333 -9.33301 16.333 -19.5 15 -30.5s-6.66602 -18.833 -15.999 -23.5s-20 -2.33398 -32 6.99902c-50.667 43.333 -113 65 -187 65c-82.667 0 -146.167 -26.5 -190.5 -79.5s-66.5 -127.5 -66.5 -223.5c0 -96.667 22.167 -171.5 66.5 -224.5s107.833 -79.5 190.5 -79.5
c73.333 0 136 22 188 66c12 9.33301 22.5 11.666 31.5 6.99902s14.333 -12.334 16 -23.001s-2.5 -20.334 -12.5 -29.001c-58 -52 -132.667 -78 -224 -78z" />
    <glyph glyph-name="D" unicode="D" horiz-adv-x="733" 
d="M126 0c-22.667 0 -34 11.667 -34 35v635c0 23.333 11.333 35 34 35h193c112 0 198.5 -30 259.5 -90s91.5 -147.333 91.5 -262s-30.5 -202.167 -91.5 -262.5s-147.5 -90.5 -259.5 -90.5h-193zM153 54h161c193.333 0 290 99.667 290 299c0 198.667 -96.667 298 -290 298
h-161v-597z" />
    <glyph glyph-name="E" unicode="E" horiz-adv-x="576" 
d="M126 0c-22.667 0 -34 11.667 -34 35v635c0 23.333 11.333 35 34 35h378c18.667 0 28 -8.66699 28 -26c0 -18 -9.33301 -27 -28 -27h-352v-268h332c18.667 0 28 -8.66699 28 -26c0 -18 -9.33301 -27 -28 -27h-332v-278h352c18.667 0 28 -8.66699 28 -26
c0 -18 -9.33301 -27 -28 -27h-378z" />
    <glyph glyph-name="F" unicode="F" horiz-adv-x="542" 
d="M126 -6c-22.667 0 -34 11.333 -34 34v642c0 23.333 11.333 35 34 35h369c18.667 0 28 -8.66699 28 -26c0 -18 -9.33301 -27 -28 -27h-342v-269h322c18.667 0 28 -8.66699 28 -26c0 -18 -9.33301 -27 -28 -27h-322v-302c0 -22.667 -9 -34 -27 -34z" />
    <glyph glyph-name="G" unicode="G" horiz-adv-x="722" 
d="M405 -8c-111.333 0 -196 31.665 -254 94.998s-87 152 -87 266c0 74 12.833 138 38.5 192s62.667 95.5 111 124.5s106.833 43.5 175.5 43.5c44 0 86 -6.33301 126 -19s75 -32.667 105 -60c9.33301 -8 13 -17.167 11 -27.5s-7.16699 -18.166 -15.5 -23.499
s-17.833 -4 -28.5 4c-27.333 24.667 -57.666 42.334 -90.999 53.001s-69.333 16 -108 16c-83.333 0 -147.333 -26.5 -192 -79.5s-67 -127.5 -67 -223.5c0 -99.333 23.167 -175 69.5 -227s115.5 -78 207.5 -78c62.667 0 121 10.667 175 32v229h-158c-19.333 0 -29 9 -29 27
c0 16.667 9.66699 25 29 25h185c18.667 0 28 -9.33301 28 -28v-269c0 -16 -5.33301 -26.667 -16 -32c-26.667 -11.333 -59.834 -20.833 -99.501 -28.5s-78.167 -11.5 -115.5 -11.5z" />
    <glyph glyph-name="H" unicode="H" horiz-adv-x="756" 
d="M122 -6c-20 0 -30 10.667 -30 32v653c0 21.333 10 32 30 32c20.667 0 31 -10.667 31 -32v-294h450v294c0 21.333 10.333 32 31 32c20 0 30 -10.667 30 -32v-653c0 -21.333 -10 -32 -30 -32c-20.667 0 -31 10.667 -31 32v304h-450v-304c0 -21.333 -10.333 -32 -31 -32z
" />
    <glyph glyph-name="I" unicode="I" horiz-adv-x="245" 
d="M122 -6c-20 0 -30 10.667 -30 32v653c0 21.333 10 32 30 32c20.667 0 31 -10.667 31 -32v-653c0 -21.333 -10.333 -32 -31 -32z" />
    <glyph glyph-name="J" unicode="J" horiz-adv-x="310" 
d="M20 -5c-10 -0.666992 -17.832 1.83398 -23.499 7.50098s-8.5 12.5 -8.5 20.5c0 6 2.16699 11.5 6.5 16.5s10.5 7.83301 18.5 8.5l33 3c35.333 2.66699 62.666 15.667 81.999 39s29 54.333 29 93v497c0 20.667 10.333 31 31 31s31 -10.333 31 -31v-498
c0 -55.333 -14.333 -98.833 -43 -130.5s-70 -49.834 -124 -54.501z" />
    <glyph glyph-name="K" unicode="K" horiz-adv-x="607" 
d="M122 -6c-20 0 -30 10.667 -30 32v654c0 20.667 10 31 30 31c20.667 0 31 -10.333 31 -31v-299h2l343 312c14 12 28 18 42 18c13.333 0 21.666 -4.5 24.999 -13.5s0 -18.167 -10 -27.5l-342 -309l359 -320c12 -11.333 15.833 -22 11.5 -32s-13.166 -15 -26.499 -15
c-8 0 -14.833 1.5 -20.5 4.5s-12.167 7.83301 -19.5 14.5l-362 322h-2v-309c0 -21.333 -10.333 -32 -31 -32z" />
    <glyph glyph-name="L" unicode="L" horiz-adv-x="535" 
d="M123 0c-20.667 0 -31 10.667 -31 32v646c0 21.333 10 32 30 32c20.667 0 31 -10.667 31 -32v-623h344c20 0 30 -9 30 -27c0 -18.667 -10 -28 -30 -28h-374z" />
    <glyph glyph-name="M" unicode="M" horiz-adv-x="849" 
d="M122 -6c-18.667 0 -28.002 10 -28.002 30v657c0 20 9 30 27 30c8.66699 0 15.334 -1.66699 20.001 -5s9 -8.66602 13 -15.999l272 -516l270 516c4.66699 7.33301 9.16699 12.666 13.5 15.999s10.833 5 19.5 5c18 0 27 -10 27 -30v-657c0 -20 -9.33301 -30 -28 -30
c-19.333 0 -29 10 -29 30v562l-244 -463c-4 -7.33301 -7.83301 -12.5 -11.5 -15.5s-9.16699 -4.5 -16.5 -4.5c-8 0 -14.167 1.66699 -18.5 5s-8.16602 8.33301 -11.499 15l-247 462v-561c0 -20 -9.33301 -30 -28 -30z" />
    <glyph glyph-name="N" unicode="N" horiz-adv-x="736" 
d="M121 -6c-19.333 0 -29 10.333 -29 31v654c0 21.333 8.66699 32 26 32c8 0 14.167 -1.33301 18.5 -4s8.83301 -7.66699 13.5 -15l437 -588v577c0 20 9.66699 30 29 30c18.667 0 28 -10 28 -30v-656c0 -20.667 -8.33301 -31 -25 -31c-12.667 0 -23.667 6.33301 -33 19
l-437 589v-577c0 -20.667 -9.33301 -31 -28 -31z" />
    <glyph glyph-name="O" unicode="O" horiz-adv-x="759" 
d="M379 -8c-64.667 0 -120.499 14.667 -167.499 44s-83.333 71 -109 125s-38.5 118 -38.5 192s12.667 138 38 192s61.666 95.5 108.999 124.5s103.333 43.5 168 43.5c65.333 0 121.5 -14.5 168.5 -43.5s83.333 -70.333 109 -124s38.5 -117.5 38.5 -191.5
c0 -74.667 -12.833 -139 -38.5 -193s-62.167 -95.667 -109.5 -125s-103.333 -44 -168 -44zM379.001 48c79.333 0 141 26.667 185 80s66 128.333 66 225s-21.833 171.5 -65.5 224.5s-105.5 79.5 -185.5 79.5c-79.333 0 -140.833 -26.667 -184.5 -80s-65.5 -128 -65.5 -224
s21.833 -170.833 65.5 -224.5s105.167 -80.5 184.5 -80.5z" />
    <glyph glyph-name="P" unicode="P" horiz-adv-x="624" 
d="M122 -6c-20 0 -30 10.667 -30 32v647c0 21.333 10.333 32 31 32h235c75.333 0 132.833 -18 172.5 -54s59.5 -87.333 59.5 -154c0 -66 -19.833 -117.167 -59.5 -153.5s-97.167 -54.5 -172.5 -54.5h-205v-263c0 -21.333 -10.333 -32 -31 -32zM153 343h200
c116.667 0 175 51.333 175 154c0 103.333 -58.333 155 -175 155h-200v-309z" />
    <glyph glyph-name="Q" unicode="Q" horiz-adv-x="759" 
d="M611 -142c8 -12.667 9.1709 -23.668 3.50391 -33.001s-14.167 -14.166 -25.5 -14.499s-21 6.16699 -29 19.5l-62 100c-24.667 41.333 -64.334 62 -119.001 62v0c-64.667 0 -120.5 14.667 -167.5 44s-83.333 71 -109 125s-38.5 118 -38.5 192s12.667 138 38 192
s61.666 95.5 108.999 124.5s103.333 43.5 168 43.5c65.333 0 121.5 -14.5 168.5 -43.5s83.333 -70.333 109 -124s38.5 -117.5 38.5 -191.5c0 -88.667 -18.333 -163 -55 -223s-87.334 -101 -152.001 -123c14.667 -4.66699 27.667 -12.667 39 -24s22.666 -27 33.999 -47z
M379.004 47.999c79.333 0 141 26.667 185 80s66 128.333 66 225s-21.833 171.5 -65.5 224.5s-105.5 79.5 -185.5 79.5c-79.333 0 -140.833 -26.667 -184.5 -80s-65.5 -128 -65.5 -224s21.833 -170.833 65.5 -224.5s105.167 -80.5 184.5 -80.5z" />
    <glyph glyph-name="R" unicode="R" horiz-adv-x="661" 
d="M122 -6c-20 0 -30 10.667 -30 32v647c0 21.333 10.333 32 31 32h235c75.333 0 132.833 -17.333 172.5 -52s59.5 -84 59.5 -148c0 -52.667 -14.333 -95.334 -43 -128.001s-69.334 -53.667 -122.001 -63c28.667 -10.667 54 -36.667 76 -78l106 -197
c6 -11.333 7.16699 -21.666 3.5 -30.999s-11.167 -14 -22.5 -14c-16 0 -28 7.66699 -36 23l-112 209c-17.333 31.333 -36.666 52.333 -57.999 63s-50 16 -86 16h-143v-279c0 -21.333 -10.333 -32 -31 -32zM153 357h197c118.667 0 178 49.333 178 148
c0 98 -59.333 147 -178 147h-197v-295z" />
    <glyph glyph-name="S" unicode="S" horiz-adv-x="607" 
d="M312 -8c-100.667 0 -182.666 24.3291 -245.999 72.9961c-11.333 8 -16.5 17.5 -15.5 28.5s5.83301 19.167 14.5 24.5s18.667 4 30 -4c30.667 -23.333 63.167 -40.166 97.5 -50.499s74.166 -15.5 119.499 -15.5c63.333 0 110.833 12.333 142.5 37s47.5 57 47.5 97
c0 33.333 -11.5 59.333 -34.5 78s-60.833 33.334 -113.5 44.001l-101 21c-62.667 12.667 -109.5 34 -140.5 64s-46.5 70 -46.5 120c0 40.667 10.5 76.334 31.5 107.001s50.167 54.5 87.5 71.5s80.333 25.5 129 25.5c43.333 0 83.166 -6 119.499 -18s69.5 -31 99.5 -57
c10 -8 14.333 -17.333 13 -28s-6.16602 -18.5 -14.499 -23.5s-18.166 -3.16699 -29.499 5.5c-28 22.667 -57.333 39.167 -88 49.5s-64 15.5 -100 15.5c-56 0 -100.833 -13.333 -134.5 -40s-50.5 -62.334 -50.5 -107.001c0 -35.333 10.667 -63.166 32 -83.499
s55.666 -35.166 102.999 -44.499l102 -21c67.333 -14 117.333 -34.833 150 -62.5s49 -65.5 49 -113.5c0 -38 -10.167 -71.5 -30.5 -100.5s-49.5 -51.667 -87.5 -68s-83 -24.5 -135 -24.5z" />
    <glyph glyph-name="T" unicode="T" horiz-adv-x="594" 
d="M297 -6c-20.667 0 -31 10.667 -31 32v624h-239c-20 0 -30 9.33301 -30 28c0 18 10 27 30 27h541c19.333 0 29 -9 29 -27c0 -18.667 -9.66699 -28 -29 -28h-240v-624c0 -21.333 -10.333 -32 -31 -32z" />
    <glyph glyph-name="U" unicode="U" horiz-adv-x="724" 
d="M362 -8c-90 0 -158.333 24.167 -205 72.5s-70 118.5 -70 210.5v405c0 20.667 10 31 30 31c20.667 0 31 -10.333 31 -31v-400c0 -154.667 71.333 -232 214 -232s214 77.333 214 232v400c0 20.667 10.333 31 31 31c20 0 30 -10.333 30 -31v-405
c0 -92 -23.333 -162.167 -70 -210.5s-115 -72.5 -205 -72.5z" />
    <glyph glyph-name="V" unicode="V" horiz-adv-x="678" 
d="M339 -6c-18 0 -31.333 9.66602 -40 28.999l-281 649c-4.66699 12 -4 21.5 2 28.5s14 10.5 24 10.5c9.33301 0 16.333 -2 21 -6s9 -10 13 -18l262 -610l262 610c7.33301 16 18.666 24 33.999 24c10.667 0 18.334 -3.66699 23.001 -11s4.66699 -16.666 0 -27.999l-281 -649
c-4 -10 -9 -17.333 -15 -22s-14 -7 -24 -7z" />
    <glyph glyph-name="W" unicode="W" horiz-adv-x="1096" 
d="M308 -6c-17.333 0 -29.6709 10 -37.0039 30l-226 650c-3.33301 10.667 -2.5 19.5 2.5 26.5s13.167 10.5 24.5 10.5c16 0 27.333 -9 34 -27l203 -593l205 590c7.33301 20 19 30 35 30c8.66699 0 15.334 -2.5 20.001 -7.5s9 -12.5 13 -22.5l205 -594l206 597
c6 18 17.333 27 34 27c10.667 0 18.334 -3.33301 23.001 -10s5 -15.667 1 -27l-226 -650c-7.33301 -20 -19.666 -30 -36.999 -30c-10 0 -17.667 2.5 -23 7.5s-10 12.5 -14 22.5l-203 588l-204 -588c-4 -10 -8.66699 -17.5 -14 -22.5s-12.666 -7.5 -21.999 -7.5z" />
    <glyph glyph-name="X" unicode="X" horiz-adv-x="640" 
d="M67 -6c-12.667 0 -21.4961 4.5 -26.4961 13.5s-3.83301 18.5 3.5 28.5l241 325l-225 305c-8.66699 12 -10.334 22.5 -5.00098 31.5s13.666 13.5 24.999 13.5c12.667 0 24 -6.66699 34 -20l207 -283l206 283c9.33301 13.333 20.666 20 33.999 20
c11.333 0 19.666 -4.5 24.999 -13.5s3.66602 -19.5 -5.00098 -31.5l-225 -305l240 -325c7.33301 -10 8.5 -19.5 3.5 -28.5s-13.833 -13.5 -26.5 -13.5s-24 6.66699 -34 20l-219 299l-219 -299c-9.33301 -13.333 -20.666 -20 -33.999 -20z" />
    <glyph glyph-name="Y" unicode="Y" horiz-adv-x="586" 
d="M293 -6c-20.667 0 -30.9971 11 -30.9971 33v311l-241 329c-8 10.667 -9.66699 20.667 -5 30s12.667 14 24 14c14 0 25.667 -6.66699 35 -20l219 -299l220 299c9.33301 13.333 20.666 20 33.999 20c11.333 0 19.166 -4.5 23.499 -13.5s2.16602 -19.5 -6.50098 -31.5
l-241 -329v-310c0 -22 -10.333 -33 -31 -33z" />
    <glyph glyph-name="Z" unicode="Z" horiz-adv-x="582" 
d="M77 0c-15.333 0 -25.333 6.16699 -30 18.5s-1 26.833 11 43.5l413 588h-398c-20.667 0 -31 9.33301 -31 28c0 18 10.333 27 31 27h443c16 0 26.333 -6.16699 31 -18.5s1 -26.833 -11 -43.5l-413 -588h412c20.667 0 31 -9 31 -27c0 -18.667 -10.333 -28 -31 -28h-458z" />
    <glyph glyph-name="bracketleft" unicode="[" horiz-adv-x="298" 
d="M138 -180c-7.33301 0 -13.666 2.66895 -18.999 8.00195s-8 11.666 -8 18.999v831c0 7.33301 2.66699 13.666 8 18.999s11.666 8 18.999 8h134c7.33301 0 13.5 -2.33301 18.5 -7s7.5 -10.667 7.5 -18s-2.5 -13.333 -7.5 -18s-11.167 -7 -18.5 -7h-100v-785h100
c7.33301 0 13.5 -2.5 18.5 -7.5s7.5 -10.833 7.5 -17.5c0 -7.33301 -2.5 -13.333 -7.5 -18s-11.167 -7 -18.5 -7h-134z" />
    <glyph glyph-name="backslash" unicode="\" horiz-adv-x="269" 
d="M230 -37l-241 748.001c-4 11.333 -2.33301 20.166 5 26.499s15.833 8.83301 25.5 7.5s16.167 -8 19.5 -20l241 -747c4 -11.333 2.33301 -20.166 -5 -26.499s-15.833 -8.83301 -25.5 -7.5s-16.167 7.66602 -19.5 18.999z" />
    <glyph glyph-name="bracketright" unicode="]" horiz-adv-x="298" 
d="M26 -180c-8 0 -14.5 2.33105 -19.5 6.99805s-7.5 10.667 -7.5 18c0 6.66699 2.5 12.5 7.5 17.5s11.5 7.5 19.5 7.5h100v785h-100c-8 0 -14.5 2.33301 -19.5 7s-7.5 10.667 -7.5 18s2.5 13.333 7.5 18s11.5 7 19.5 7h134c7.33301 0 13.666 -2.66699 18.999 -8
s8 -11.666 8 -18.999v-831c0 -7.33301 -2.66699 -13.666 -8 -18.999s-11.666 -8 -18.999 -8h-134z" />
    <glyph glyph-name="asciicircum" unicode="^" horiz-adv-x="600" 
d="M84 134c-11.333 0 -18.834 3.5 -22.501 10.5s-3.16699 15.833 1.5 26.5l206 443c6 13.333 16.333 20 31 20c14 0 24.333 -6.66699 31 -20l206 -443c4.66699 -11.333 5.33398 -20.333 2.00098 -27s-11 -10 -23 -10c-11.333 0 -20 6.66699 -26 20l-190 410l-190 -410
c-6 -13.333 -14.667 -20 -26 -20z" />
    <glyph glyph-name="underscore" unicode="_" horiz-adv-x="500" 
d="M38 -43c-6.66699 0 -12.334 2 -17.001 6s-7 9 -7 15s2.33301 11.167 7 15.5s10.334 6.5 17.001 6.5h424c6.66699 -0 12.334 -2.16699 17.001 -6.5s7 -9.5 7 -15.5s-2.33301 -11 -7 -15s-10.334 -6 -17.001 -6h-424z" />
    <glyph glyph-name="grave" unicode="`" horiz-adv-x="500" 
d="M224 554l-101.998 164.003c-6 8 -7.66699 15.667 -5 23s7.5 13 14.5 17s14.5 5 22.5 3s14.333 -7.66699 19 -17l88 -169c4.66699 -8.66699 4.66699 -15.834 0 -21.501s-10.834 -8.83398 -18.501 -9.50098s-13.834 2.66602 -18.501 9.99902z" />
    <glyph glyph-name="a" unicode="a" horiz-adv-x="522" 
d="M230 -8c-32.667 0 -61.832 6.33691 -87.499 19.0039s-46 30 -61 52s-22.5 46.667 -22.5 74c0 36 9 64.167 27 84.5s48.333 34.833 91 43.5s101.334 13 176.001 13h31v36c0 44.667 -9 77.167 -27 97.5s-46.667 30.5 -86 30.5c-25.333 0 -50 -3.33301 -74 -10
s-49 -17.334 -75 -32.001c-12 -6.66699 -21.5 -6.83398 -28.5 -0.500977s-10.333 14.666 -10 24.999s5.83301 18.166 16.5 23.499c27.333 15.333 55.666 26.833 84.999 34.5s57.666 11.5 84.999 11.5c58.667 0 102.167 -15 130.5 -45s42.5 -76 42.5 -138v-286
c0 -20.667 -9.33301 -31 -28 -31c-20 0 -30 10.333 -30 31v62c-13.333 -30 -33.5 -53.333 -60.5 -70s-58.5 -25 -94.5 -25zM238.002 41.0039c28.667 0 53.832 6.83105 75.499 20.498s38.834 32.5 51.501 56.5s19 51.333 19 82v33h-30c-60 0 -106.833 -2.66699 -140.5 -8
s-57.167 -14.666 -70.5 -27.999s-20 -31.666 -20 -54.999c0 -30 10.333 -54.333 31 -73s48.667 -28 84 -28z" />
    <glyph glyph-name="b" unicode="b" horiz-adv-x="575" 
d="M311 -8c-39.333 0 -73.834 8.83105 -103.501 26.498s-51.834 41.834 -66.501 72.501v-66c0 -20.667 -10 -31 -30 -31c-20.667 0 -31 10.333 -31 31v655c0 20.667 10.333 31 31 31c20 0 30 -10.333 30 -31v-285c14.667 30.667 36.834 54.834 66.501 72.501
s64.167 26.5 103.5 26.5c65.333 0 117.5 -22.667 156.5 -68s58.5 -106.333 58.5 -183c0 -51.333 -8.83301 -95.833 -26.5 -133.5s-42.667 -66.667 -75 -87s-70.166 -30.5 -113.499 -30.5zM301.999 42.998c49.333 0 88.666 17.5 117.999 52.5s44 84.167 44 147.5
s-14.667 112.333 -44 147s-68.666 52 -117.999 52s-88.666 -17.333 -117.999 -52s-44 -83.667 -44 -147s14.667 -112.5 44 -147.5s68.666 -52.5 117.999 -52.5z" />
    <glyph glyph-name="c" unicode="c" horiz-adv-x="459" 
d="M278 -8c-47.333 0 -88.001 10.5 -122.001 31.5s-60.167 50.667 -78.5 89s-27.5 82.833 -27.5 133.5c0 76.667 20.167 137.167 60.5 181.5s96.166 66.5 167.499 66.5c24.667 0 50.167 -4.33301 76.5 -13s49.833 -22.334 70.5 -41.001c8.66699 -6.66699 12 -14.667 10 -24
s-7.16699 -16.166 -15.5 -20.499s-17.5 -2.5 -27.5 5.5c-18.667 15.333 -37.667 25.833 -57 31.5s-37.666 8.5 -54.999 8.5c-54 0 -95.5 -17 -124.5 -51s-43.5 -82.333 -43.5 -145s14.5 -111.834 43.5 -147.501s70.5 -53.5 124.5 -53.5c17.333 0 35.666 2.83301 54.999 8.5
s38.333 16.167 57 31.5c10.667 8 19.834 9.83301 27.501 5.5s12.334 -11.166 14.001 -20.499s-1.5 -17.333 -9.5 -24c-20.667 -18.667 -44 -32.167 -70 -40.5s-51.333 -12.5 -76 -12.5z" />
    <glyph glyph-name="d" unicode="d" horiz-adv-x="575" 
d="M265 -8c-44 0 -82 10.1689 -114 30.502s-56.833 49.333 -74.5 87s-26.5 82.167 -26.5 133.5c0 76.667 19.333 137.667 58 183s91 68 157 68c38.667 0 72.834 -8.83301 102.501 -26.5s51.834 -41.834 66.501 -72.501v285c0 20.667 10 31 30 31c20.667 0 31 -10.333 31 -31
v-655c0 -20.667 -10 -31 -30 -31c-20.667 0 -31 10.333 -31 31v66c-14.667 -30.667 -36.834 -54.834 -66.501 -72.501s-63.834 -26.5 -102.501 -26.5zM273 43.002c49.333 0 88.666 17.5 117.999 52.5s44 84.167 44 147.5s-14.667 112.333 -44 147s-68.666 52 -117.999 52
s-88.5 -17.333 -117.5 -52s-43.5 -83.667 -43.5 -147s14.5 -112.5 43.5 -147.5s68.167 -52.5 117.5 -52.5z" />
    <glyph glyph-name="e" unicode="e" horiz-adv-x="527" 
d="M291 -8c-74.667 0 -133.501 22.168 -176.501 66.501s-64.5 105.166 -64.5 182.499c0 50 9.66699 94 29 132s46.166 67.667 80.499 89s73.833 32 118.5 32c64.667 0 115 -21 151 -63s54 -99.667 54 -173c0 -18.667 -9.33301 -28 -28 -28h-345
c2 -60 18.5 -106.167 49.5 -138.5s74.167 -48.5 129.5 -48.5c24.667 0 48.5 3.16699 71.5 9.5s45.5 17.833 67.5 34.5c12 8 22.333 9.83301 31 5.5s13.5 -11.333 14.5 -21s-4.16699 -18.5 -15.5 -26.5c-21.333 -17.333 -47.166 -30.5 -77.499 -39.5
s-60.166 -13.5 -89.499 -13.5zM278.999 445.001c-50.667 0 -90.1689 -15.833 -118.502 -47.5s-44.833 -72.5 -49.5 -122.5h317c-1.33301 53.333 -14.666 95 -39.999 125s-61.666 45 -108.999 45z" />
    <glyph glyph-name="f" unicode="f" horiz-adv-x="319" 
d="M134 -6c-20.667 0 -31.0029 10.3359 -31.0029 31.0029v411h-71c-18.667 0 -28 8.33301 -28 25c0 16 9.33301 24 28 24h71v24c0 122 58.333 188 175 198l27 2c12.667 0.666992 20.834 -2.83301 24.501 -10.5s3.83398 -15.834 0.500977 -24.501
s-9.66602 -13.334 -18.999 -14.001l-28 -3c-41.333 -3.33301 -71.5 -16.833 -90.5 -40.5s-28.5 -57.834 -28.5 -102.501v-29h119c18.667 0 28 -8 28 -24c0 -16.667 -9.33301 -25 -28 -25h-119v-411c0 -20.667 -10 -31 -30 -31z" />
    <glyph glyph-name="g" unicode="g" horiz-adv-x="578" 
d="M291 -188c-36 0 -70.834 4.49902 -104.501 13.499s-64.167 23.5 -91.5 43.5c-9.33301 6 -13.333 13.667 -12 23s5.66602 16.833 12.999 22.5s15.333 5.83398 24 0.500977c30 -20 58.167 -33.667 84.5 -41s54.5 -11 84.5 -11c48.667 0 85.667 13.333 111 40
s38 65.334 38 116.001v94c-14 -32 -36.167 -57 -66.5 -75s-64.833 -27 -103.5 -27c-45.333 0 -84.166 10.167 -116.499 30.5s-57.333 48.666 -75 84.999s-26.5 78.5 -26.5 126.5s8.83301 90 26.5 126s42.667 64.167 75 84.5s71.166 30.5 116.499 30.5
c38.667 0 72.834 -8.83301 102.501 -26.5s51.834 -42.167 66.501 -73.5v66c0 21.333 10 32 30 32s30 -10.667 30 -32v-432c0 -144 -68.667 -216 -206 -216zM274.999 62.999c50 0 89.667 17.167 119 51.5s44 80.5 44 138.5s-14.667 104 -44 138s-69 51 -119 51
c-50.667 0 -90.5 -17 -119.5 -51s-43.5 -80 -43.5 -138s14.5 -104.167 43.5 -138.5s68.833 -51.5 119.5 -51.5z" />
    <glyph glyph-name="h" unicode="h" horiz-adv-x="560" 
d="M111 -6c-20.667 0 -31.001 10.332 -31.001 30.999v655c0 20.667 10.333 31 31 31c20 0 30 -10.333 30 -31v-279c16.667 30.667 39.834 53.834 69.501 69.501s62.5 23.5 98.5 23.5c115.333 0 173 -62.667 173 -188v-281c0 -20.667 -10 -31 -30 -31
c-20.667 0 -31 10.333 -31 31v276c0 48 -9.66699 83.333 -29 106s-50 34 -92 34c-48 0 -86.5 -14.833 -115.5 -44.5s-43.5 -69.5 -43.5 -119.5v-252c0 -20.667 -10 -31 -30 -31z" />
    <glyph glyph-name="i" unicode="i" horiz-adv-x="222" 
d="M111 610c-29.333 0 -44 14 -44 42c0 27.333 14.667 41 44 41s44 -13.667 44 -41c0 -28 -14.667 -42 -44 -42zM111 -4c-20.667 0 -31 11 -31 33v428c0 21.333 10.333 32 31 32c20 0 30 -10.667 30 -32v-428c0 -22 -10 -33 -30 -33z" />
    <glyph glyph-name="j" unicode="j" horiz-adv-x="225" 
d="M114 610c-29.333 0 -44 14 -44 42c0 27.333 14.667 41 44 41s44 -13.667 44 -41c0 -28 -14.667 -42 -44 -42zM-27 -191c-12.667 -0.666992 -21.499 2.99902 -26.499 10.999s-5.83301 16.333 -2.5 25s10.666 13.334 21.999 14.001c39.333 1.33301 68.833 11.5 88.5 30.5
s29.5 49.5 29.5 91.5v479c0 21.333 10 32 30 32c20.667 0 31 -10.667 31 -32v-475c0 -60 -15.167 -104.167 -45.5 -132.5s-72.5 -42.833 -126.5 -43.5z" />
    <glyph glyph-name="k" unicode="k" horiz-adv-x="484" 
d="M111 -6c-20.667 0 -31.001 10.333 -31.001 31v655c0 20.667 10.333 31 31 31c20 0 30 -10.333 30 -31v-415h2l224 205c7.33301 6.66699 14 12 20 16s13.333 6 22 6c12 0 20 -4.83301 24 -14.5s1 -19.5 -9 -29.5l-216 -197l237 -211c11.333 -10.667 14.833 -21 10.5 -31
s-12.166 -15 -23.499 -15c-8.66699 0 -16 1.83301 -22 5.5s-13.333 9.5 -22 17.5l-245 216h-2v-208c0 -20.667 -10 -31 -30 -31z" />
    <glyph glyph-name="l" unicode="l" horiz-adv-x="285" 
d="M220 -8c-44.667 0 -79.167 13.832 -103.5 41.499s-36.5 67.5 -36.5 119.5v527c0 20.667 10.333 31 31 31c20 0 30 -10.333 30 -31v-520c0 -76.667 30 -115 90 -115c6 0 11.5 0.333008 16.5 1s9.83301 1 14.5 1c6 0.666992 10.5 -0.5 13.5 -3.5s4.5 -9.16699 4.5 -18.5
c0 -17.333 -10 -27.666 -30 -30.999c-4.66699 -1.33301 -9.66699 -2 -15 -2h-15z" />
    <glyph glyph-name="m" unicode="m" horiz-adv-x="847" 
d="M113 -6c-20.667 0 -31.001 10.335 -31.001 31.002v435c0 21.333 10.333 32 31 32c19.333 0 29 -10.667 29 -32v-60c30 62.667 81 94 153 94c77.333 0 126.333 -33.667 147 -101c14 31.333 35.333 56 64 74s62 27 100 27c107.333 0 161 -62.667 161 -188v-281
c0 -20.667 -10.333 -31 -31 -31c-20 0 -30 10.333 -30 31v276c0 48 -8.5 83.333 -25.5 106s-45.5 34 -85.5 34c-42.667 0 -76.667 -14.833 -102 -44.5s-38 -69.834 -38 -120.501v-251c0 -20.667 -10 -31 -30 -31c-20.667 0 -31 10.333 -31 31v276
c0 48 -8.5 83.333 -25.5 106s-45.167 34 -84.5 34c-43.333 0 -77.666 -14.833 -102.999 -44.5s-38 -69.834 -38 -120.501v-251c0 -20.667 -10 -31 -30 -31z" />
    <glyph glyph-name="n" unicode="n" horiz-adv-x="560" 
d="M111 -6c-20.667 0 -31 10.333 -31 31v435c0 21.333 10.333 32 31 32c19.333 0 29 -10.667 29 -32v-62c16 32 39 56 69 72s63.333 24 100 24c115.333 0 173 -62.667 173 -188v-281c0 -20.667 -10 -31 -30 -31c-20.667 0 -31 10.333 -31 31v276
c0 48 -9.66699 83.333 -29 106s-50 34 -92 34c-48 0 -86.5 -14.833 -115.5 -44.5s-43.5 -69.5 -43.5 -119.5v-252c0 -20.667 -10 -31 -30 -31z" />
    <glyph glyph-name="o" unicode="o" horiz-adv-x="547" 
d="M273 -8c-45.333 0 -84.666 10.167 -117.999 30.5s-59.166 49.333 -77.499 87s-27.5 82.167 -27.5 133.5c0 50.667 9.16699 94.834 27.5 132.501s44.166 66.834 77.499 87.501s72.666 31 117.999 31c46 0 85.667 -10.333 119 -31s59.166 -49.834 77.499 -87.501
s27.5 -81.834 27.5 -132.501c0 -51.333 -9.16699 -95.833 -27.5 -133.5s-44.166 -66.667 -77.499 -87s-73 -30.5 -119 -30.5zM273 43c49.333 0 88.666 17.5 117.999 52.5s44 84.167 44 147.5s-14.667 112.333 -44 147s-68.666 52 -117.999 52s-88.5 -17.333 -117.5 -52
s-43.5 -83.667 -43.5 -147s14.5 -112.5 43.5 -147.5s68.167 -52.5 117.5 -52.5z" />
    <glyph glyph-name="p" unicode="p" horiz-adv-x="575" 
d="M111 -186c-20.667 0 -31 10.332 -31 30.999v615c0 21.333 10.333 32 31 32c20 0 30 -10.667 30 -32v-66c14.667 30.667 36.834 55 66.501 73s64.167 27 103.5 27c43.333 0 81.166 -10.333 113.499 -31s57.333 -49.667 75 -87s26.5 -81.666 26.5 -132.999
s-8.83301 -95.833 -26.5 -133.5s-42.667 -66.667 -75 -87s-70.166 -30.5 -113.499 -30.5c-39.333 0 -73.833 8.66699 -103.5 26s-51.834 41.333 -66.501 72v-245c0 -20.667 -10 -31 -30 -31zM302 42.999c49.333 0 88.666 17.5 117.999 52.5s44 84.167 44 147.5
s-14.667 112.333 -44 147s-68.666 52 -117.999 52s-88.666 -17.333 -117.999 -52s-44 -83.667 -44 -147s14.667 -112.5 44 -147.5s68.666 -52.5 117.999 -52.5z" />
    <glyph glyph-name="q" unicode="q" horiz-adv-x="575" 
d="M464 -186c-20 0 -30.001 10.335 -30.001 31.002v246c-14.667 -30.667 -36.834 -54.834 -66.501 -72.501s-63.834 -26.5 -102.501 -26.5c-44 0 -82.167 10.167 -114.5 30.5s-57.166 49.333 -74.499 87s-26 82.167 -26 133.5s8.83301 95.666 26.5 132.999
s42.5 66.333 74.5 87s70 31 114 31c38.667 0 72.834 -9 102.501 -27s51.834 -42.333 66.501 -73v66c0 21.333 10.333 32 31 32c20 0 30 -10.667 30 -32v-615c0 -20.667 -10.333 -31 -31 -31zM272.999 43.002c49.333 0 88.666 17.5 117.999 52.5s44 84.167 44 147.5
s-14.667 112.333 -44 147s-68.666 52 -117.999 52s-88.5 -17.333 -117.5 -52s-43.5 -83.667 -43.5 -147s14.5 -112.5 43.5 -147.5s68.167 -52.5 117.5 -52.5z" />
    <glyph glyph-name="r" unicode="r" horiz-adv-x="342" 
d="M111 -6c-20.667 0 -31 10.332 -31 30.999v435c0 21.333 10.333 32 31 32c19.333 0 29 -10.667 29 -32v-63c14.667 31.333 36.5 55.333 65.5 72s62.5 25.334 100.5 26.001c8 0.666992 14.667 -1 20 -5s8 -10.333 8 -19c0.666992 -18.667 -9 -29 -29 -31l-14 -1
c-47.333 -4 -84 -19.5 -110 -46.5s-39 -63.167 -39 -108.5v-259c0 -20.667 -10.333 -31 -31 -31z" />
    <glyph glyph-name="s" unicode="s" horiz-adv-x="478" 
d="M238 -8c-30 0 -59.835 4.00391 -89.502 12.0039s-57.834 21.667 -84.501 41c-8.66699 5.33301 -12.667 12.833 -12 22.5s4.5 17.167 11.5 22.5s15.833 4.66602 26.5 -2.00098c26 -17.333 51.333 -29.333 76 -36s49.334 -10 74.001 -10c41.333 0 72.5 7.5 93.5 22.5
s31.5 35.833 31.5 62.5c0 20.667 -7 37 -21 49s-36 21.667 -66 29l-87 20c-82 18.667 -123 61 -123 127c0 42.667 16.667 77 50 103s77.333 39 132 39c28.667 0 56.5 -4.33301 83.5 -13s50.5 -22 70.5 -40c8.66699 -6.66699 12.334 -14.667 11.001 -24
s-5.83301 -16.333 -13.5 -21s-16.5 -3.33398 -26.5 3.99902c-19.333 14.667 -39.666 25.5 -60.999 32.5s-43 10.5 -65 10.5c-38.667 0 -68.5 -8 -89.5 -24s-31.5 -37.667 -31.5 -65c0 -20.667 6.33301 -37.334 19 -50.001s33.334 -22.334 62.001 -29.001l87 -20
c43.333 -10 75.666 -24.833 96.999 -44.5s32 -46.167 32 -79.5c0 -43.333 -17 -77.333 -51 -102s-79.333 -37 -136 -37z" />
    <glyph glyph-name="t" unicode="t" horiz-adv-x="335" 
d="M263 -8c-54 0 -94.501 14.667 -121.501 44s-40.5 71.333 -40.5 126v274h-74c-19.333 0 -29 8.33301 -29 25c0 16 9.66699 24 29 24h74v125c0 20.667 10.333 31 31 31c20 0 30 -10.333 30 -31v-125h135c18.667 0 28 -8 28 -24c0 -16.667 -9.33301 -25 -28 -25h-135v-266
c0 -40.667 8.33301 -71.667 25 -93s44.334 -32 83.001 -32c13.333 0 24.333 1.5 33 4.5s16.334 4.5 23.001 4.5c12 0 18 -8.33301 18 -25c0 -5.33301 -1.16699 -10.5 -3.5 -15.5s-6.5 -8.5 -12.5 -10.5c-7.33301 -2.66699 -17.333 -5.16699 -30 -7.5
s-24.334 -3.5 -35.001 -3.5z" />
    <glyph glyph-name="u" unicode="u" horiz-adv-x="553" 
d="M251 -8c-115.333 0 -173 62.667 -173 188v280c0 21.333 10.333 32 31 32c20 0 30 -10.667 30 -32v-277c0 -47.333 9.66699 -82.333 29 -105s49.666 -34 90.999 -34c44.667 0 81.167 15 109.5 45s42.5 70 42.5 120v251c0 21.333 10.333 32 31 32c20 0 30 -10.667 30 -32
v-435c0 -20.667 -9.66699 -31 -29 -31c-20 0 -30 10.333 -30 31v61c-16 -30.667 -38.167 -54 -66.5 -70s-60.166 -24 -95.499 -24z" />
    <glyph glyph-name="v" unicode="v" horiz-adv-x="509" 
d="M255 -6c-19.333 0 -33.6699 10.666 -43.0029 31.999l-180 420c-5.33301 12 -5.66602 22.667 -0.999023 32s14 14 28 14s24.333 -8.33301 31 -25l165 -400l167 400c3.33301 8.66699 7.33301 15 12 19s11.334 6 20.001 6c12.667 0 20.834 -4.66699 24.501 -14
s3.16699 -19.666 -1.5 -30.999l-180 -421c-8.66699 -21.333 -22.667 -32 -42 -32z" />
    <glyph glyph-name="w" unicode="w" horiz-adv-x="835" 
d="M239 -6c-19.333 0 -33.002 10.333 -41.002 31l-151 421c-5.33301 14.667 -5.16602 26 0.500977 34s14.167 12 25.5 12c14.667 0 25 -8.66699 31 -26l136 -394l141 391c6.66699 19.333 19.334 29 38.001 29s31.667 -9.66699 39 -29l137 -392l140 396
c3.33301 9.33301 7.33301 15.833 12 19.5s11 5.5 19 5.5c13.333 0 21.5 -4.83301 24.5 -14.5s2.5 -20.167 -1.5 -31.5l-152 -421c-8 -20.667 -21.667 -31 -41 -31c-20 0 -33.667 10.333 -41 31l-137 381l-137 -381c-8 -20.667 -22 -31 -42 -31z" />
    <glyph glyph-name="x" unicode="x" horiz-adv-x="515" 
d="M69 -7c-10 0 -17.665 4.5 -22.998 13.5s-3 19.833 7 32.5l169 212l-157 195c-10.667 12.667 -13.167 23.5 -7.5 32.5s13.167 13.5 22.5 13.5c14 0 25.667 -6.33301 35 -19l143 -180l144 180c9.33301 12.667 20.666 19 33.999 19c10 0 17.667 -4.5 23 -13.5
s2.66602 -19.833 -8.00098 -32.5l-157 -196l169 -211c10 -12.667 12.333 -23.5 7 -32.5s-13 -13.5 -23 -13.5c-14 0 -26 6.33301 -36 19l-153 193l-154 -193c-9.33301 -12.667 -21 -19 -35 -19z" />
    <glyph glyph-name="y" unicode="y" horiz-adv-x="509" 
d="M182 -186c-12.667 0 -20.8359 4.49902 -24.5029 13.499s-3.16699 19.5 1.5 31.5l63 143l-190 444c-5.33301 12 -5.66602 22.667 -0.999023 32s14 14 28 14s24.333 -8.33301 31 -25l165 -400l166 400c4 9.33301 8.33301 15.833 13 19.5s11.334 5.5 20.001 5.5
c12.667 0 20.834 -4.66699 24.501 -14s3.16699 -19.666 -1.5 -30.999l-261 -609c-8 -16 -19.333 -24 -34 -24z" />
    <glyph glyph-name="z" unicode="z" horiz-adv-x="459" 
d="M81 0c-14 0 -22.501 5.5 -25.501 16.5s0.5 22.833 10.5 35.5l281 384h-270c-17.333 0 -26 8.33301 -26 25c0 16 8.66699 24 26 24h312c16 0 25.833 -5.5 29.5 -16.5s0.833984 -22.167 -8.49902 -33.5l-283 -386h281c17.333 0 26 -8 26 -24
c0 -16.667 -8.66699 -25 -26 -25h-327z" />
    <glyph glyph-name="braceleft" unicode="{" horiz-adv-x="335" 
d="M239 -180c-60.667 0 -91 30.999 -91 92.999v243c0 27.333 -5.83301 47.5 -17.5 60.5s-32.167 19.833 -61.5 20.5c-7.33301 0 -13.166 2.66699 -17.499 8s-6.5 11.333 -6.5 18s2.16699 12.5 6.5 17.5s10.166 7.83301 17.499 8.5
c29.333 0.666992 49.833 7.33398 61.5 20.001s17.5 33 17.5 61v242c0 62 30.333 93 91 93h69c8 0 14.5 -2.33301 19.5 -7s7.5 -10.667 7.5 -18s-2.33301 -13.333 -7 -18s-10.667 -7 -18 -7h-58c-28.667 0 -43 -15.333 -43 -46v-245c0 -26 -6.5 -48.167 -19.5 -66.5
s-29.833 -29.833 -50.5 -34.5c20.667 -4.66699 37.5 -16.167 50.5 -34.5s19.5 -40.5 19.5 -66.5v-246c0 -30.667 14.333 -46 43 -46h58c7.33301 0 13.333 -2.5 18 -7.5s7 -10.833 7 -17.5c0 -7.33301 -2.5 -13.333 -7.5 -18s-11.5 -7 -19.5 -7h-69z" />
    <glyph glyph-name="bar" unicode="|" horiz-adv-x="254" 
d="M127 -187c-20 0 -30 10.667 -30 32v835c0 20.667 10 31 30 31c20.667 0 31 -10.333 31 -31v-835c0 -21.333 -10.333 -32 -31 -32z" />
    <glyph glyph-name="braceright" unicode="}" horiz-adv-x="335" 
d="M27 -180c-8 0 -14.667 2.33203 -20 6.99902s-8 10.667 -8 18c0 6.66699 2.5 12.5 7.5 17.5s11.167 7.5 18.5 7.5h57c29.333 0 44 15.333 44 46v246c0 26 6.5 48.167 19.5 66.5s29.833 29.833 50.5 34.5c-20.667 4.66699 -37.5 16.167 -50.5 34.5s-19.5 40.5 -19.5 66.5
v245c0 30.667 -14.667 46 -44 46h-57c-7.33301 0 -13.5 2.33301 -18.5 7s-7.5 10.667 -7.5 18s2.66699 13.333 8 18s12 7 20 7h69c60.667 0 91 -31 91 -93v-242c0 -28 5.83301 -48.5 17.5 -61.5s32.167 -19.5 61.5 -19.5c6.66699 -0.666992 12.334 -3.5 17.001 -8.5
s7 -10.833 7 -17.5s-2.33301 -12.667 -7 -18s-10.334 -8 -17.001 -8c-29.333 0 -49.833 -6.66699 -61.5 -20s-17.5 -33.666 -17.5 -60.999v-243c0 -62 -30.333 -93 -91 -93h-69z" />
    <glyph glyph-name="asciitilde" unicode="~" horiz-adv-x="600" 
d="M417 221c-16.667 0 -35.3359 3.33203 -56.0029 9.99902s-45 18 -73 34c-27.333 15.333 -48.333 25.666 -63 30.999s-27.667 8 -39 8c-16 0 -30.5 -3.83301 -43.5 -11.5s-24.833 -20.5 -35.5 -38.5c-6 -10 -13.333 -14.667 -22 -14s-15.5 4.5 -20.5 11.5
s-4.83301 15.167 0.5 24.5c12.667 26.667 29.334 46.334 50.001 59.001s43.334 19 68.001 19c17.333 0 35.5 -3.16699 54.5 -9.5s42.5 -17.166 70.5 -32.499c26 -14 46.833 -24.5 62.5 -31.5s30.167 -10.5 43.5 -10.5c16 0 30.667 3.83301 44 11.5s25 20.5 35 38.5
c6 10 13.333 14.833 22 14.5s15.5 -4 20.5 -11s4.83301 -15.5 -0.5 -25.5c-12.667 -26 -29.167 -45.333 -49.5 -58s-43.166 -19 -68.499 -19z" />
    <glyph glyph-name="uni00A0" unicode="&#xa0;" horiz-adv-x="252" 
 />
    <glyph glyph-name="exclamdown" unicode="&#xa1;" horiz-adv-x="219" 
d="M110 396c-13.333 0 -24.333 4.33301 -33 13s-13 19.667 -13 33c0 14 4.33301 25.333 13 34s19.667 13 33 13c14 0 25.167 -4.33301 33.5 -13s12.5 -20 12.5 -34c0 -13.333 -4.16699 -24.333 -12.5 -33s-19.5 -13 -33.5 -13zM110 -186c-25.333 0 -37.332 13 -35.999 39
l15 441c0.666992 16.667 7.66699 25 21 25s20.333 -8.33301 21 -25l14 -441c1.33301 -26 -10.334 -39 -35.001 -39z" />
    <glyph glyph-name="cent" unicode="&#xa2;" horiz-adv-x="600" 
d="M317 -121c-7.33301 0 -13.6641 2.49902 -18.9971 7.49902s-8 11.5 -8 19.5v89c-38.667 4.66699 -72.667 18.167 -102 40.5s-52.166 51.333 -68.499 87s-24.5 75.834 -24.5 120.501c0 43.333 8 82.5 24 117.5s38.667 63.667 68 86s63.666 36.5 102.999 42.5v95
c0 8 2.66699 14.667 8 20s11.666 8 18.999 8s13.666 -2.66699 18.999 -8s8 -12 8 -20v-93c24.667 -1.33301 49.167 -6.5 73.5 -15.5s45.166 -20.833 62.499 -35.5c9.33301 -6.66699 13.333 -14.667 12 -24s-6.16602 -16.166 -14.499 -20.499s-18.5 -2.5 -30.5 5.5
c-16.667 12.667 -35.167 22.167 -55.5 28.5s-41.166 9.5 -62.499 9.5c-52.667 0 -94.334 -18 -125.001 -54s-46 -83.333 -46 -142c0 -60 15.167 -107.667 45.5 -143s71.833 -53 124.5 -53c21.333 0 42.166 3 62.499 9s39.5 15.333 57.5 28
c13.333 8.66699 23.833 10.667 31.5 6s11.667 -11.834 12 -21.501s-3.83398 -17.5 -12.501 -23.5c-17.333 -14.667 -38.166 -26.5 -62.499 -35.5s-48.5 -14.5 -72.5 -16.5v-87c0 -8 -2.5 -14.5 -7.5 -19.5s-11.5 -7.5 -19.5 -7.5z" />
    <glyph glyph-name="sterling" unicode="&#xa3;" horiz-adv-x="600" 
d="M70 0c-7.33301 0 -13.6689 2.66602 -19.002 7.99902s-8 12 -8 20c0 7.33301 2.66699 13.5 8 18.5s11.666 7.5 18.999 7.5h84v275h-85c-7.33301 0 -13.5 2.33301 -18.5 7s-7.5 10.334 -7.5 17.001s2.5 12.334 7.5 17.001s11.167 7 18.5 7h85v139
c0 63.333 17.333 112 52 146s86.334 51 155.001 51c34 0 67.833 -5.83301 101.5 -17.5s62.167 -28.5 85.5 -50.5c10 -8.66699 13.833 -18 11.5 -28s-8.16602 -17.167 -17.499 -21.5s-18.666 -2.5 -27.999 5.5c-22.667 20.667 -47 35.334 -73 44.001s-54 13 -84 13
c-94 0 -141 -46.333 -141 -139v-142h166c7.33301 0 13.5 -2.33301 18.5 -7s7.5 -10.334 7.5 -17.001s-2.5 -12.334 -7.5 -17.001s-11.167 -7 -18.5 -7h-166v-275h312c7.33301 0 13.666 -2.5 18.999 -7.5s8 -11.167 8 -18.5c0 -8 -2.66699 -14.667 -8 -20
s-11.666 -8 -18.999 -8h-458z" />
    <glyph glyph-name="currency" unicode="&#xa4;" horiz-adv-x="600" 
d="M51 -10c-6 5.33301 -8.99902 11.8281 -8.99902 19.4951s3 14.5 9 20.5l60 62c-16 20.667 -28.5 44.167 -37.5 70.5s-13.5 53.833 -13.5 82.5s4.5 56.167 13.5 82.5s21.5 50.166 37.5 71.499l-60 62c-12.667 13.333 -12.667 26.333 0 39c4.66699 6 11 8.83301 19 8.5
s15 -3.5 21 -9.5l59 -61c20 17.333 43 30.833 69 40.5s53.333 14.5 82 14.5c28 0 54.5 -4.66699 79.5 -14s47.833 -22.333 68.5 -39l57 59c6 6 13 9.16699 21 9.5s14.667 -2.16699 20 -7.5c14 -13.333 14 -27 0 -41l-59 -60c16.667 -21.333 29.667 -45.166 39 -71.499
s14 -54.166 14 -83.499s-4.66699 -57.166 -14 -83.499s-22.333 -50.166 -39 -71.499l59 -60c12.667 -14 12.667 -27.333 0 -40c-5.33301 -6 -12 -8.83301 -20 -8.5s-15 3.5 -21 9.5l-57 60c-20 -17.333 -42.667 -30.666 -68 -39.999s-52 -14 -80 -14
c-28.667 0 -55.834 4.83301 -81.501 14.5s-48.834 22.834 -69.501 39.501l-60 -60c-6 -6 -12.667 -9.16699 -20 -9.5s-13.666 2.5 -18.999 8.5zM300.001 52.9951c33.333 0 63.5 8.66797 90.5 26.001s48.5 40.5 64.5 69.5s24 61.167 24 96.5s-8 67.666 -24 96.999
s-37.5 52.5 -64.5 69.5s-57.167 25.5 -90.5 25.5s-63.666 -8.66699 -90.999 -26s-49 -40.5 -65 -69.5s-24 -61.167 -24 -96.5s8 -67.5 24 -96.5s37.667 -52.167 65 -69.5s57.666 -26 90.999 -26z" />
    <glyph glyph-name="yen" unicode="&#xa5;" horiz-adv-x="600" 
d="M300 -6c-20.667 0 -31 11 -31 33v155h-174c-18 0 -27 8 -27 24s9 24 27 24h174v104h-174c-18 0 -27 7.66699 -27 23c0 16 9 24 27 24h142l-209 287c-8 10.667 -9.66699 20.5 -5 29.5s12.667 13.5 24 13.5c12.667 0 23.667 -6.33301 33 -19l220 -304l220 303
c8.66699 13.333 20 20 34 20c11.333 0 19.333 -4.5 24 -13.5s2.66699 -19.167 -6 -30.5l-207 -286h140c18 0 27 -8 27 -24c0 -15.333 -9 -23 -27 -23h-174v-104h174c18 0 27 -8 27 -24s-9 -24 -27 -24h-174v-155c0 -22 -10.333 -33 -31 -33z" />
    <glyph glyph-name="brokenbar" unicode="&#xa6;" horiz-adv-x="254" 
d="M127 366c-20 0 -30 10.333 -30 31v283c0 20.667 10 31 30 31c20.667 0 31 -10.333 31 -31v-283c0 -20.667 -10.333 -31 -31 -31zM127 -186c-20 0 -30 10.333 -30 31v283c0 21.333 10 32 30 32c20.667 0 31 -10.667 31 -32v-283c0 -20.667 -10.333 -31 -31 -31z" />
    <glyph glyph-name="section" unicode="&#xa7;" horiz-adv-x="534" 
d="M241 -188c-76 0 -135.672 17.6719 -179.005 53.0049c-8 5.33301 -11.5 12.833 -10.5 22.5s5.16699 17 12.5 22s16.333 4.16699 27 -2.5c20 -14.667 43.333 -25.834 70 -33.501s54 -11.5 82 -11.5c42.667 0 77.334 10.667 104.001 32s40 51.666 40 90.999
c0 28 -7 51.833 -21 71.5s-39.333 38.5 -76 56.5l-102 48c-36.667 18 -65.5 35.667 -86.5 53s-35.667 35.666 -44 54.999s-12.5 41.333 -12.5 66c0 23.333 5.33301 46.333 16 69s24.334 42 41.001 58c-4.66699 7.33301 -8.66699 17.166 -12 29.499s-5 27.166 -5 44.499
c0 36.667 9 68.167 27 94.5s42.333 46.666 73 60.999s65 21.5 103 21.5c34 0 66 -4.5 96 -13.5s55.667 -22.167 77 -39.5c9.33301 -6.66699 13.333 -14.834 12 -24.501s-5.83301 -17 -13.5 -22s-16.834 -3.83301 -27.501 3.5c-18.667 14 -41.167 25 -67.5 33
s-52.833 12 -79.5 12c-39.333 0 -72.166 -10.667 -98.499 -32s-39.5 -51.666 -39.5 -90.999c0 -27.333 7 -51 21 -71s39.333 -38.667 76 -56l102 -49c36.667 -17.333 65.334 -34.666 86.001 -51.999s35.334 -35.833 44.001 -55.5s13 -41.834 13 -66.501
c0 -23.333 -5.33301 -46.333 -16 -69s-24.334 -41.667 -41.001 -57c4.66699 -8 8.66699 -18.167 12 -30.5s5 -27.166 5 -44.499c0 -36.667 -9.16699 -68.167 -27.5 -94.5s-43.166 -46.5 -74.499 -60.5s-66.666 -21 -105.999 -21zM101.995 342.005
c0 -26 7.83301 -49 23.5 -69s45.5 -40.333 89.5 -61l88 -42c23.333 -11.333 43.166 -22.833 59.499 -34.5s29.5 -23.167 39.5 -34.5c20 22.667 30 50 30 82c0 25.333 -8 48 -24 68s-45.667 40.333 -89 61l-88 42c-23.333 11.333 -43.166 22.833 -59.499 34.5
s-29.5 23.167 -39.5 34.5c-20 -22.667 -30 -49.667 -30 -81z" />
    <glyph glyph-name="dieresis" unicode="&#xa8;" horiz-adv-x="500" 
d="M334 612c-26.667 0 -40 13 -40 39c0 26.667 13.333 40 40 40s40 -13.333 40 -40c0 -26 -13.333 -39 -40 -39zM167 612c-27.333 0 -41 13 -41 39c0 26.667 13.667 40 41 40c26 0 39 -13.333 39 -40c0 -26 -13 -39 -39 -39z" />
    <glyph glyph-name="copyright" unicode="&#xa9;" horiz-adv-x="815" 
d="M408 -8c-51.333 0 -98.833 9 -142.5 27s-82 43.5 -115 76.5s-58.5 71.333 -76.5 115s-27 91.167 -27 142.5s9 98.833 27 142.5s43.333 81.834 76 114.501s71 58 115 76s91.667 27 143 27s98.833 -9 142.5 -27s81.834 -43.333 114.501 -76s58 -70.834 76 -114.501
s27 -91.167 27 -142.5s-9 -98.833 -27 -142.5s-43.333 -82 -76 -115s-70.834 -58.5 -114.501 -76.5s-91.167 -27 -142.5 -27zM408 31c45.333 0 87.333 8.16699 126 24.5s72.5 39.166 101.5 68.499s51.5 63.5 67.5 102.5s24 81.167 24 126.5s-8 87.5 -24 126.5
s-38.5 73 -67.5 102s-62.833 51.667 -101.5 68s-80.667 24.5 -126 24.5s-87.5 -8.16699 -126.5 -24.5s-73 -39 -102 -68s-51.5 -63 -67.5 -102s-24 -81.167 -24 -126.5s8 -87.5 24 -126.5s38.5 -73.167 67.5 -102.5s63 -52.166 102 -68.499s81.167 -24.5 126.5 -24.5z
M419 137c-63.333 0 -113.167 20 -149.5 60s-54.5 93 -54.5 159c0 65.333 18.167 117 54.5 155s86.166 57 149.499 57c24 0 47.667 -4.16699 71 -12.5s43.666 -19.5 60.999 -33.5c8 -6.66699 11.333 -14.167 10 -22.5s-5.5 -14.5 -12.5 -18.5s-15.833 -2.66699 -26.5 4
c-16.667 12.667 -33.834 21.5 -51.501 26.5s-34.5 7.5 -50.5 7.5c-46.667 0 -83.167 -14.333 -109.5 -43s-39.5 -69 -39.5 -121s13.167 -93.167 39.5 -123.5s62.833 -45.5 109.5 -45.5c16.667 0 33.834 2.66699 51.501 8s34.834 14.333 51.501 27
c10 7.33301 18.5 8.83301 25.5 4.5s11.167 -10.833 12.5 -19.5s-2 -16 -10 -22c-18 -14.667 -38.667 -26.167 -62 -34.5s-46.666 -12.5 -69.999 -12.5z" />
    <glyph glyph-name="ordfeminine" unicode="&#xaa;" horiz-adv-x="321" 
d="M137 412c-31.333 0 -57 8.33301 -77 25s-30 38 -30 64c0 30 13.833 51.667 41.5 65s63.834 20 108.501 20h57v19c0 47.333 -25 71 -75 71c-30.667 0 -59.334 -6.66699 -86.001 -20c-10 -4.66699 -17.5 -4.66699 -22.5 0s-7.16699 10.834 -6.5 18.501s5 13.5 13 17.5
c15.333 7.33301 31.833 12.666 49.5 15.999s35.5 5 53.5 5c79.333 0 119 -36.667 119 -110v-168c0 -15.333 -7.33301 -23 -22 -23s-22 7.66699 -22 23v36h-2c-21.333 -39.333 -54.333 -59 -99 -59zM145 448c26.667 0 48.667 8.83105 66 26.498s26 41.834 26 72.501v6h-55
c-70.667 0 -106 -17 -106 -51c0 -15.333 5.5 -28.166 16.5 -38.499s28.5 -15.5 52.5 -15.5z" />
    <glyph glyph-name="guillemotleft" unicode="&#xab;" horiz-adv-x="417" 
d="M179 91c-14 -5.33301 -24.333 -1.66699 -31 11l-85 142c-8 14 -8 28 0 42l83 142c8 13.333 18.667 17 32 11c6.66699 -2.66699 11.167 -7.5 13.5 -14.5s1.5 -14.5 -2.5 -22.5l-69 -137l69 -136c4 -8 5.16699 -15.5 3.5 -22.5s-6.16699 -12.167 -13.5 -15.5zM348 90.999
c-14 -5.33301 -24.333 -1.66699 -31 11l-85 142c-8 14 -8 28 0 42l83 142c8 13.333 18.667 17 32 11c6.66699 -2.66699 11.167 -7.5 13.5 -14.5s1.5 -14.5 -2.5 -22.5l-69 -137l69 -136c4 -8 5.16699 -15.5 3.5 -22.5s-6.16699 -12.167 -13.5 -15.5z" />
    <glyph glyph-name="logicalnot" unicode="&#xac;" horiz-adv-x="600" 
d="M518 147c-17.333 0 -26 9 -26 27v190h-416c-17.333 0 -26 8.66699 -26 26c0 16 8.66699 24 26 24h441c18 0 27 -9 27 -27v-213c0 -18 -8.66699 -27 -26 -27z" />
    <glyph glyph-name="uni00AD" unicode="&#xad;" horiz-adv-x="420" 
d="M95 240c-8 0 -14.5 2.5 -19.5 7.5s-7.5 11.167 -7.5 18.5s2.5 13.5 7.5 18.5s11.5 7.5 19.5 7.5h231c7.33301 0 13.5 -2.5 18.5 -7.5s7.5 -11.167 7.5 -18.5s-2.5 -13.5 -7.5 -18.5s-11.167 -7.5 -18.5 -7.5h-231z" />
    <glyph glyph-name="registered" unicode="&#xae;" horiz-adv-x="815" 
d="M408 -8c-51.333 0 -98.833 9 -142.5 27s-82 43.5 -115 76.5s-58.5 71.333 -76.5 115s-27 91.167 -27 142.5s9 98.833 27 142.5s43.333 81.834 76 114.501s71 58 115 76s91.667 27 143 27s98.833 -9 142.5 -27s81.834 -43.333 114.501 -76s58 -70.834 76 -114.501
s27 -91.167 27 -142.5s-9 -98.833 -27 -142.5s-43.333 -82 -76 -115s-70.834 -58.5 -114.501 -76.5s-91.167 -27 -142.5 -27zM408 31c45.333 0 87.333 8.16699 126 24.5s72.5 39.166 101.5 68.499s51.5 63.5 67.5 102.5s24 81.167 24 126.5s-8 87.5 -24 126.5
s-38.5 73 -67.5 102s-62.833 51.667 -101.5 68s-80.667 24.5 -126 24.5s-87.5 -8.16699 -126.5 -24.5s-73 -39 -102 -68s-51.5 -63 -67.5 -102s-24 -81.167 -24 -126.5s8 -87.5 24 -126.5s38.5 -73.167 67.5 -102.5s63 -52.166 102 -68.499s81.167 -24.5 126.5 -24.5z
M296 136c-18.667 0 -27.999 9.33398 -27.999 28.001v367c0 21.333 11 32 33 32h134c44.667 0 78.834 -10.5 102.501 -31.5s35.5 -50.833 35.5 -89.5c0 -63.333 -31.333 -101.333 -94 -114c20.667 -7.33301 36 -24.333 46 -51l42 -104c4 -11.333 3.5 -20.333 -1.5 -27
s-12.167 -10 -21.5 -10c-12.667 0 -21.334 7 -26.001 21l-47 117c-6.66699 17.333 -16.834 29.166 -30.501 35.499s-30.167 9.5 -49.5 9.5h-69v-155c0 -18.667 -8.66699 -28 -26 -28zM322.001 364.001h106c61.333 0 92 25.667 92 77s-30.667 77 -92 77h-106v-154z" />
    <glyph glyph-name="macron" unicode="&#xaf;" horiz-adv-x="500" 
d="M130 629c-16.667 0 -25 7.66699 -25 23s8.33301 23 25 23h240c16.667 0 25 -7.66699 25 -23s-8.33301 -23 -25 -23h-240z" />
    <glyph glyph-name="degree" unicode="&#xb0;" horiz-adv-x="367" 
d="M184 424c-27.333 0 -52 6.33301 -74 19s-39.333 30 -52 52s-19 46.667 -19 74s6.33301 51.833 19 73.5s30 38.834 52 51.501s46.667 19 74 19c26.667 0 51 -6.16699 73 -18.5s39.167 -29.5 51.5 -51.5s18.5 -46.667 18.5 -74c0 -28 -6.16699 -52.833 -18.5 -74.5
s-29.5 -38.834 -51.5 -51.501s-46.333 -19 -73 -19zM184 471c27.333 0 49.666 9.16699 66.999 27.5s26 41.833 26 70.5c0 28 -8.66699 51.167 -26 69.5s-39.666 27.5 -66.999 27.5c-28 0 -50.667 -9.16699 -68 -27.5s-26 -41.5 -26 -69.5
c0 -28.667 8.66699 -52.167 26 -70.5s40 -27.5 68 -27.5z" />
    <glyph glyph-name="plusminus" unicode="&#xb1;" horiz-adv-x="600" 
d="M300 116c-17.333 0 -26 9 -26 27v157h-198c-17.333 0 -26 8.66699 -26 26c0 16 8.66699 24 26 24h198v158c0 18 8.66699 27 26 27s26 -9 26 -27v-158h198c17.333 0 26 -8 26 -24c0 -17.333 -8.66699 -26 -26 -26h-198v-157c0 -18 -8.66699 -27 -26 -27zM76 0
c-17.333 0 -26 8.33301 -26 25s8.66699 25 26 25h448c17.333 0 26 -8.33301 26 -25s-8.66699 -25 -26 -25h-448z" />
    <glyph glyph-name="uni00B2" unicode="&#xb2;" horiz-adv-x="380" 
d="M82 282c-18 0 -27 7.33301 -27 22c0 11.333 4.66699 21.666 14 30.999l128 140c20.667 22.667 35.334 42.667 44.001 60s13 35.333 13 54c0 48 -25 72 -75 72c-16 0 -32.667 -3 -50 -9s-32.666 -14.333 -45.999 -25c-10 -7.33301 -18.833 -9 -26.5 -5
s-12.167 10.5 -13.5 19.5s2.66699 16.833 12 23.5c17.333 14 37.666 24.833 60.999 32.5s46.333 11.5 69 11.5c39.333 0 70.166 -10.333 92.499 -31s33.5 -49 33.5 -85c0 -43.333 -22 -88.666 -66 -135.999l-118 -127h184c16.667 0 25 -8 25 -24s-8.33301 -24 -25 -24h-229z
" />
    <glyph glyph-name="uni00B3" unicode="&#xb3;" horiz-adv-x="380" 
d="M187 279c-26 0 -50.5 3.49902 -73.5 10.499s-42.833 17.833 -59.5 32.5c-8.66699 6.66699 -12.5 14.5 -11.5 23.5s5.16699 15.5 12.5 19.5s16.333 2.33301 27 -5c28.667 -22.667 63 -34 103 -34c23.333 0 43.5 6 60.5 18s25.5 31 25.5 57
c0 25.333 -8.66699 43.5 -26 54.5s-40.333 16.5 -69 16.5h-53c-16.667 0 -25 8.33301 -25 25c0 15.333 8.33301 23 25 23h42c28.667 0 51.667 6.16699 69 18.5s26 30.833 26 55.5c0 20.667 -7.16699 37 -21.5 49s-33.833 18 -58.5 18c-16 0 -32.5 -2.83301 -49.5 -8.5
s-32.5 -13.834 -46.5 -24.501c-10.667 -8 -19.834 -9.83301 -27.501 -5.5s-12.167 10.833 -13.5 19.5s2.66699 16.334 12 23.001c18 14 38.5 24.833 61.5 32.5s46.167 11.5 69.5 11.5c38.667 0 69.834 -10 93.501 -30s35.5 -46.333 35.5 -79
c0 -24.667 -6.66699 -45.5 -20 -62.5s-29.333 -29.5 -48 -37.5c23.333 -6.66699 42.333 -18.667 57 -36s22 -39.666 22 -66.999c0 -38 -13.5 -67.167 -40.5 -87.5s-59.833 -30.5 -98.5 -30.5z" />
    <glyph glyph-name="acute" unicode="&#xb4;" horiz-adv-x="500" 
d="M276 554c-4.66699 -7.33301 -10.834 -10.833 -18.501 -10.5s-13.667 3.5 -18 9.5s-4.5 13.333 -0.5 22l88 169c4.66699 9.33301 11 15 19 17s15.5 1 22.5 -3s11.833 -9.66699 14.5 -17s1.33398 -15 -3.99902 -23z" />
    <glyph glyph-name="uni00B5" unicode="&#xb5;" horiz-adv-x="600" 
d="M134 -186c-20 0 -29.999 10.333 -29.999 31v615c0 21.333 10 32 30 32c20.667 0 31 -10.667 31 -32v-277c0 -47.333 9.5 -82 28.5 -104s49.167 -33 90.5 -33c45.333 0 82.166 14.667 110.499 44s42.5 69 42.5 119v251c0 21.333 10 32 30 32c20.667 0 31 -10.667 31 -32
v-435c0 -20.667 -10 -31 -30 -31s-30 9.66699 -30 29v66c-14 -32 -34.833 -56.167 -62.5 -72.5s-58.5 -24.5 -92.5 -24.5c-26 0 -49.5 3.83301 -70.5 11.5s-38.5 21.5 -52.5 41.5l4 -200c0.666992 -20.667 -9.33301 -31 -30 -31z" />
    <glyph glyph-name="paragraph" unicode="&#xb6;" horiz-adv-x="572" 
d="M268 -186c-18 0 -26.999 9 -26.999 27v482c-38.667 0 -72.334 8.16699 -101.001 24.5s-51 39 -67 68s-24 61.833 -24 98.5s8 69.5 24 98.5s38.5 51.667 67.5 68s63.167 24.5 102.5 24.5h204c22 0 33 -11 33 -33v-831c0 -18 -9 -27 -27 -27c-17.333 0 -26 9 -26 27v814
h-132v-814c0 -18 -9 -27 -27 -27z" />
    <glyph glyph-name="periodcentered" unicode="&#xb7;" horiz-adv-x="219" 
d="M110 219c-13.333 0 -24.333 4.33301 -33 13s-13 20 -13 34c0 13.333 4.33301 24.333 13 33s19.667 13 33 13c14 0 25.167 -4.33301 33.5 -13s12.5 -19.667 12.5 -33c0 -14 -4.16699 -25.333 -12.5 -34s-19.5 -13 -33.5 -13z" />
    <glyph glyph-name="cedilla" unicode="&#xb8;" horiz-adv-x="500" 
d="M254 -191c-12 0 -24.167 1 -36.5 3s-23.5 5 -33.5 9c-8.66699 4 -13.5 9.83301 -14.5 17.5s1.16699 14.167 6.5 19.5s12.666 6 21.999 2c14 -6.66699 33 -10 57 -10c18 0 32.5 3.5 43.5 10.5s16.5 16.833 16.5 29.5c0 20 -12.667 30 -38 30
c-6 0 -11.5 -0.166992 -16.5 -0.5s-10.833 -1.5 -17.5 -3.5c-12 -4 -20.333 -4 -25 0c-4.66699 3.33301 -6 11 -4 23l12 81h45l-11 -66c8 1.33301 15.333 2 22 2c22.667 0 41.834 -5.83301 57.501 -17.5s23.5 -28.167 23.5 -49.5c0 -24 -10 -43.333 -30 -58
s-46.333 -22 -79 -22z" />
    <glyph glyph-name="uni00B9" unicode="&#xb9;" horiz-adv-x="380" 
d="M118 282c-16.667 0 -25.001 8 -25.001 24s8.33301 24 25 24h70v311l-58 -38c-11.333 -6.66699 -20.666 -7.66699 -27.999 -3s-11.333 11.5 -12 20.5s4 16.833 14 23.5l80 52c5.33301 3.33301 10.5 6 15.5 8s10.5 3 16.5 3c16.667 0 25 -9 25 -27v-350h57
c17.333 0 26 -8 26 -24s-8.66699 -24 -26 -24h-180z" />
    <glyph glyph-name="ordmasculine" unicode="&#xba;" horiz-adv-x="332" 
d="M166 412c-40.667 0 -74.5 13.667 -101.5 41s-40.5 64 -40.5 110s13.5 82.5 40.5 109.5s60.833 40.5 101.5 40.5s74.5 -13.5 101.5 -40.5s40.5 -63.5 40.5 -109.5s-13.5 -82.667 -40.5 -110s-60.833 -41 -101.5 -41zM166 450c29.333 0 52.5 9.66699 69.5 29
s25.5 47.333 25.5 84s-8.5 64.5 -25.5 83.5s-40.167 28.5 -69.5 28.5s-52.5 -9.5 -69.5 -28.5s-25.5 -46.833 -25.5 -83.5s8.5 -64.667 25.5 -84s40.167 -29 69.5 -29z" />
    <glyph glyph-name="guillemotright" unicode="&#xbb;" horiz-adv-x="417" 
d="M69 91c-7.33301 3.33301 -12 8.5 -14 15.5s-0.666992 14.5 4 22.5l69 136l-69 137c-4 8 -4.83301 15.5 -2.5 22.5s6.83301 11.833 13.5 14.5c13.333 6 24 2.33301 32 -11l82 -142c8.66699 -14 8.66699 -28 0 -42l-84 -142c-2.66699 -5.33301 -7 -9 -13 -11s-12 -2 -18 0z
M238 91c-7.33301 3.33301 -12 8.5 -14 15.5s-0.666992 14.5 4 22.5l69 136l-69 137c-4 8 -4.83301 15.5 -2.5 22.5s6.83301 11.833 13.5 14.5c13.333 6 24 2.33301 32 -11l82 -142c8.66699 -14 8.66699 -28 0 -42l-84 -142c-2.66699 -5.33301 -7 -9 -13 -11s-12 -2 -18 0z
" />
    <glyph glyph-name="onequarter" unicode="&#xbc;" horiz-adv-x="885" 
d="M118 282c-16.667 0 -25.001 8 -25.001 24s8.33301 24 25 24h70v311l-58 -38c-11.333 -6.66699 -20.666 -7.66699 -27.999 -3s-11.333 11.5 -12 20.5s4 16.833 14 23.5l80 52c5.33301 3.33301 10.5 6 15.5 8s10.5 3 16.5 3c16.667 0 25 -9 25 -27v-350h57
c17.333 0 26 -8 26 -24s-8.66699 -24 -26 -24h-180zM286.999 -3c-6 -10 -13.5 -14.832 -22.5 -14.499s-16 4.33301 -21 12s-4.5 16.834 1.5 27.501l396 686c6 10.667 13.667 15.667 23 15s16.5 -4.83398 21.5 -12.501s4.16699 -16.834 -2.5 -27.501zM766.999 -2.99902
c-17.333 0 -26 8.66602 -26 25.999v66h-171c-8.66699 0 -15.167 2.33301 -19.5 7s-6.5 10.334 -6.5 17.001c0 5.33301 1.16699 10.5 3.5 15.5s5.5 10.833 9.5 17.5l178 260c3.33301 4.66699 7.5 9.16699 12.5 13.5s11.5 6.5 19.5 6.5c17.333 0 26 -9.33301 26 -28v-262h43
c16 0 24 -7.66699 24 -23c0 -16 -8 -24 -24 -24h-43v-66c0 -17.333 -8.66699 -26 -26 -26zM740.999 136v203l-139 -203h139z" />
    <glyph glyph-name="onehalf" unicode="&#xbd;" horiz-adv-x="927" 
d="M118 282c-16.667 0 -25.001 8 -25.001 24s8.33301 24 25 24h70v311l-58 -38c-11.333 -6.66699 -20.666 -7.66699 -27.999 -3s-11.333 11.5 -12 20.5s4 16.833 14 23.5l80 52c5.33301 3.33301 10.5 6 15.5 8s10.5 3 16.5 3c16.667 0 25 -9 25 -27v-350h57
c17.333 0 26 -8 26 -24s-8.66699 -24 -26 -24h-180zM286.999 -3c-6 -10 -13.5 -14.832 -22.5 -14.499s-16 4.33301 -21 12s-4.5 16.834 1.5 27.501l396 686c6 10.667 13.667 15.667 23 15s16.5 -4.83398 21.5 -12.501s4.16699 -16.834 -2.5 -27.501zM628.999 0.000976562
c-18 0 -27 7.33301 -27 22c0 11.333 4.66699 21.666 14 30.999l128 140c20.667 22.667 35.334 42.667 44.001 60s13 35.333 13 54c0 48 -25 72 -75 72c-16 0 -32.667 -3 -50 -9s-32.666 -14.333 -45.999 -25c-10 -7.33301 -18.833 -9 -26.5 -5s-12.167 10.5 -13.5 19.5
s2.66699 16.833 12 23.5c17.333 14 37.666 24.833 60.999 32.5s46.333 11.5 69 11.5c39.333 0 70.166 -10.333 92.499 -31s33.5 -49 33.5 -85c0 -43.333 -22 -88.666 -66 -135.999l-118 -127h184c16.667 0 25 -8 25 -24s-8.33301 -24 -25 -24h-229z" />
    <glyph glyph-name="threequarters" unicode="&#xbe;" horiz-adv-x="885" 
d="M187 279c-26 0 -50.5 3.49902 -73.5 10.499s-42.833 17.833 -59.5 32.5c-8.66699 6.66699 -12.5 14.5 -11.5 23.5s5.16699 15.5 12.5 19.5s16.333 2.33301 27 -5c28.667 -22.667 63 -34 103 -34c23.333 0 43.5 6 60.5 18s25.5 31 25.5 57
c0 25.333 -8.66699 43.5 -26 54.5s-40.333 16.5 -69 16.5h-53c-16.667 0 -25 8.33301 -25 25c0 15.333 8.33301 23 25 23h42c28.667 0 51.667 6.16699 69 18.5s26 30.833 26 55.5c0 20.667 -7.16699 37 -21.5 49s-33.833 18 -58.5 18c-16 0 -32.5 -2.83301 -49.5 -8.5
s-32.5 -13.834 -46.5 -24.501c-10.667 -8 -19.834 -9.83301 -27.501 -5.5s-12.167 10.833 -13.5 19.5s2.66699 16.334 12 23.001c18 14 38.5 24.833 61.5 32.5s46.167 11.5 69.5 11.5c38.667 0 69.834 -10 93.501 -30s35.5 -46.333 35.5 -79
c0 -24.667 -6.66699 -45.5 -20 -62.5s-29.333 -29.5 -48 -37.5c23.333 -6.66699 42.333 -18.667 57 -36s22 -39.666 22 -66.999c0 -38 -13.5 -67.167 -40.5 -87.5s-59.833 -30.5 -98.5 -30.5zM287 -3.00098c-6 -10 -13.5 -14.832 -22.5 -14.499s-16 4.33301 -21 12
s-4.5 16.834 1.5 27.501l396 686c6 10.667 13.667 15.667 23 15s16.5 -4.83398 21.5 -12.501s4.16699 -16.834 -2.5 -27.501zM767 -3c-17.333 0 -26 8.66602 -26 25.999v66h-171c-8.66699 0 -15.167 2.33301 -19.5 7s-6.5 10.334 -6.5 17.001
c0 5.33301 1.16699 10.5 3.5 15.5s5.5 10.833 9.5 17.5l178 260c3.33301 4.66699 7.5 9.16699 12.5 13.5s11.5 6.5 19.5 6.5c17.333 0 26 -9.33301 26 -28v-262h43c16 0 24 -7.66699 24 -23c0 -16 -8 -24 -24 -24h-43v-66c0 -17.333 -8.66699 -26 -26 -26zM741 135.999v203
l-139 -203h139z" />
    <glyph glyph-name="questiondown" unicode="&#xbf;" horiz-adv-x="436" 
d="M234 396c-13.333 0 -24.333 4.33301 -33 13s-13 19.667 -13 33s4.33301 24.5 13 33.5s19.667 13.5 33 13.5c14 0 25.167 -4.5 33.5 -13.5s12.5 -20.167 12.5 -33.5s-4.16699 -24.333 -12.5 -33s-19.5 -13 -33.5 -13zM212 -188c-55.333 0 -99.832 13.3311 -133.499 39.998
s-50.5 62 -50.5 106c0 28 6.33301 54.667 19 80s37 56 73 92c31.333 32 53.5 59.667 66.5 83s21.167 50 24.5 80c2 16 9.66699 24 23 24s20 -8.33301 20 -25c0 -33.333 -6 -64.166 -18 -92.499s-35.667 -60.833 -71 -97.5c-28.667 -29.333 -48.167 -54.333 -58.5 -75
s-15.5 -41.667 -15.5 -63c0 -29.333 10.833 -52.666 32.5 -69.999s51.5 -26 89.5 -26c66 0 123.667 20 173 60c13.333 10 24.666 12.667 33.999 8s14.333 -12.5 15 -23.5s-5.33301 -21.167 -18 -30.5c-26 -20.667 -56.167 -37.5 -90.5 -50.5s-72.5 -19.5 -114.5 -19.5z" />
    <glyph glyph-name="Agrave" unicode="&#xc0;" horiz-adv-x="722" 
d="M67 -6c-13.333 0 -21.999 4.16699 -25.999 12.5s-3.33301 18.5 2 30.5l281 646c8 18.667 20.333 28 37 28s29 -9.33301 37 -28l281 -646c6 -12 7.16699 -22.167 3.5 -30.5s-11.834 -12.5 -24.501 -12.5c-9.33301 0 -16.833 2.5 -22.5 7.5s-10.5 11.833 -14.5 20.5
l-71 166h-378l-71 -166c-8 -18.667 -19.333 -28 -34 -28zM360.001 629l-165 -388h332l-165 388h-2zM334.001 769l-106.999 130c-8.66699 10 -10.334 19.5 -5.00098 28.5s13.333 14.333 24 16s20 -3.5 28 -15.5l95 -136c4.66699 -8 5.16699 -15 1.5 -21
s-9.16699 -9.66699 -16.5 -11s-14 1.66699 -20 9z" />
    <glyph glyph-name="Aacute" unicode="&#xc1;" horiz-adv-x="722" 
d="M67 -6c-13.333 0 -21.999 4.16699 -25.999 12.5s-3.33301 18.5 2 30.5l281 646c8 18.667 20.333 28 37 28s29 -9.33301 37 -28l281 -646c6 -12 7.16699 -22.167 3.5 -30.5s-11.834 -12.5 -24.501 -12.5c-9.33301 0 -16.833 2.5 -22.5 7.5s-10.5 11.833 -14.5 20.5
l-71 166h-378l-71 -166c-8 -18.667 -19.333 -28 -34 -28zM360.001 629l-165 -388h332l-165 388h-2zM390.001 769c-6 -7.33301 -12.666 -10.333 -19.999 -9s-12.833 5 -16.5 11s-2.83398 13 2.49902 21l94 136c8 12 17.5 17.167 28.5 15.5s19 -7 24 -16
s3.16699 -18.5 -5.5 -28.5z" />
    <glyph glyph-name="Acircumflex" unicode="&#xc2;" horiz-adv-x="722" 
d="M67 -6c-13.333 0 -21.999 4.16699 -25.999 12.5s-3.33301 18.5 2 30.5l281 646c8 18.667 20.333 28 37 28s29 -9.33301 37 -28l281 -646c6 -12 7.16699 -22.167 3.5 -30.5s-11.834 -12.5 -24.501 -12.5c-9.33301 0 -16.833 2.5 -22.5 7.5s-10.5 11.833 -14.5 20.5
l-71 166h-378l-71 -166c-8 -18.667 -19.333 -28 -34 -28zM360.001 629l-165 -388h332l-165 388h-2zM260.001 767c-6 -7.33301 -12.833 -10.5 -20.5 -9.5s-13.167 4.5 -16.5 10.5s-2.33301 12.667 3 20l95 133c5.33301 8 11.5 13.667 18.5 17s14.5 5 22.5 5
s15.5 -1.66699 22.5 -5s13.5 -9 19.5 -17l94 -133c6 -7.33301 7.16699 -14 3.5 -20s-9.16699 -9.5 -16.5 -10.5s-14.333 2.16699 -21 9.5l-102 124z" />
    <glyph glyph-name="Atilde" unicode="&#xc3;" horiz-adv-x="722" 
d="M67 -6c-13.333 0 -21.999 4.16699 -25.999 12.5s-3.33301 18.5 2 30.5l281 646c8 18.667 20.333 28 37 28s29 -9.33301 37 -28l281 -646c6 -12 7.16699 -22.167 3.5 -30.5s-11.834 -12.5 -24.501 -12.5c-9.33301 0 -16.833 2.5 -22.5 7.5s-10.5 11.833 -14.5 20.5
l-71 166h-378l-71 -166c-8 -18.667 -19.333 -28 -34 -28zM360.001 629l-165 -388h332l-165 388h-2zM181.001 784c-6 0.666992 -11.001 3 -15.001 7s-5.33301 10 -4 18c6 34 18.833 60.5 38.5 79.5s43.834 28.5 72.501 28.5c18 0 35 -4 51 -12s31.5 -17.333 46.5 -28
s29.333 -20.167 43 -28.5s27.167 -12.5 40.5 -12.5c18 0 32.833 6.16699 44.5 18.5s19.5 29.166 23.5 50.499c2.66699 12 9.66699 18 21 18c6 -0.666992 11 -3 15 -7s5.33301 -10 4 -18c-6 -34 -18.833 -60.5 -38.5 -79.5s-43.5 -28.5 -71.5 -28.5c-18 0 -35.167 4 -51.5 12
s-32 17.333 -47 28s-29.333 20.167 -43 28.5s-27.167 12.5 -40.5 12.5c-18 0 -32.833 -6.16699 -44.5 -18.5s-19.5 -29.166 -23.5 -50.499c-2.66699 -12 -9.66699 -18 -21 -18z" />
    <glyph glyph-name="Adieresis" unicode="&#xc4;" horiz-adv-x="722" 
d="M67 -6c-13.333 0 -21.999 4.16699 -25.999 12.5s-3.33301 18.5 2 30.5l281 646c8 18.667 20.333 28 37 28s29 -9.33301 37 -28l281 -646c6 -12 7.16699 -22.167 3.5 -30.5s-11.834 -12.5 -24.501 -12.5c-9.33301 0 -16.833 2.5 -22.5 7.5s-10.5 11.833 -14.5 20.5
l-71 166h-378l-71 -166c-8 -18.667 -19.333 -28 -34 -28zM360.001 629l-165 -388h332l-165 388h-2zM446.001 810c-26.667 0 -40 13.333 -40 40c0 26 13.333 39 40 39s40 -13 40 -39c0 -26.667 -13.333 -40 -40 -40zM279.001 810c-27.333 0 -41 13.333 -41 40
c0 26 13.667 39 41 39c26 0 39 -13 39 -39c0 -26.667 -13 -40 -39 -40z" />
    <glyph glyph-name="Aring" unicode="&#xc5;" horiz-adv-x="722" 
d="M67 -6c-13.333 0 -21.999 4.16699 -25.999 12.5s-3.33301 18.5 2 30.5l281 646c8 18.667 20.333 28 37 28s29 -9.33301 37 -28l281 -646c6 -12 7.16699 -22.167 3.5 -30.5s-11.834 -12.5 -24.501 -12.5c-9.33301 0 -16.833 2.5 -22.5 7.5s-10.5 11.833 -14.5 20.5
l-71 166h-378l-71 -166c-8 -18.667 -19.333 -28 -34 -28zM360.001 629l-165 -388h332l-165 388h-2zM362.001 759c-32.667 0 -60 11 -82 33s-33 48.667 -33 80s11 58 33 80s49.333 33 82 33s60 -11 82 -33s33 -48.667 33 -80s-11 -58 -33 -80s-49.333 -33 -82 -33z
M362.001 797c22 0 40 7.16699 54 21.5s21 32.166 21 53.499s-7 39.166 -21 53.499s-32 21.5 -54 21.5s-40 -7.16699 -54 -21.5s-21 -32.166 -21 -53.499s7 -39.166 21 -53.499s32 -21.5 54 -21.5z" />
    <glyph glyph-name="AE" unicode="&#xc6;" horiz-adv-x="976" 
d="M36 -6c-14 0 -22.833 4 -26.5 12s-2.16699 17 4.5 27l391 652c8 13.333 20 20 36 20h461c20 0 30 -8.66699 30 -26c0 -18 -10 -27 -30 -27h-415l56 -268h339c20 0 30 -8.66699 30 -26c0 -18 -10 -27 -30 -27h-327l59 -278h288c20 0 30 -8.66699 30 -26
c0 -18 -10 -27 -30 -27h-307c-18 0 -29 8.66699 -33 26l-34 162h-356l-102 -173c-8.66699 -14 -20 -21 -34 -21zM433 628l-229 -387h313l-82 387h-2z" />
    <glyph glyph-name="Ccedilla" unicode="&#xc7;" horiz-adv-x="670" 
d="M386 -8c-67.333 0 -125.001 14.5039 -173.001 43.5039s-84.833 70.5 -110.5 124.5s-38.5 118.333 -38.5 193c0 74 12.833 138 38.5 192s62.5 95.5 110.5 124.5s105.667 43.5 173 43.5c44 0 85 -6.5 123 -19.5s70.667 -31.5 98 -55.5
c11.333 -9.33301 16.333 -19.5 15 -30.5s-6.66602 -18.833 -15.999 -23.5s-20 -2.33398 -32 6.99902c-50.667 43.333 -113 65 -187 65c-82.667 0 -146.167 -26.5 -190.5 -79.5s-66.5 -127.5 -66.5 -223.5c0 -96.667 22.167 -171.5 66.5 -224.5s107.833 -79.5 190.5 -79.5
c73.333 0 136 22 188 66c12 9.33301 22.5 11.666 31.5 6.99902s14.333 -12.334 16 -23.001s-2.5 -20.334 -12.5 -29.001c-58 -52 -132.667 -78 -224 -78zM386.999 -190.996c-12 0 -24.167 1 -36.5 3s-23.5 5 -33.5 9c-8.66699 4 -13.5 9.83301 -14.5 17.5
s1.16699 14.167 6.5 19.5s12.666 6 21.999 2c14 -6.66699 33 -10 57 -10c18 0 32.5 3.5 43.5 10.5s16.5 16.833 16.5 29.5c0 20 -12.667 30 -38 30c-6 0 -11.5 -0.166992 -16.5 -0.5s-10.833 -1.5 -17.5 -3.5c-12 -4 -20.333 -4 -25 0c-4.66699 3.33301 -6 11 -4 23l12 81
h45l-11 -66c8 1.33301 15.333 2 22 2c22.667 0 41.834 -5.83301 57.501 -17.5s23.5 -28.167 23.5 -49.5c0 -24 -10 -43.333 -30 -58s-46.333 -22 -79 -22z" />
    <glyph glyph-name="Egrave" unicode="&#xc8;" horiz-adv-x="576" 
d="M126 0c-22.667 0 -34 11.667 -34 35v635c0 23.333 11.333 35 34 35h378c18.667 0 28 -8.66699 28 -26c0 -18 -9.33301 -27 -28 -27h-352v-268h332c18.667 0 28 -8.66699 28 -26c0 -18 -9.33301 -27 -28 -27h-332v-278h352c18.667 0 28 -8.66699 28 -26
c0 -18 -9.33301 -27 -28 -27h-378zM294 769l-106.999 130c-8.66699 10 -10.334 19.5 -5.00098 28.5s13.333 14.333 24 16s20 -3.5 28 -15.5l95 -136c4.66699 -8 5.16699 -15 1.5 -21s-9.16699 -9.66699 -16.5 -11s-14 1.66699 -20 9z" />
    <glyph glyph-name="Eacute" unicode="&#xc9;" horiz-adv-x="576" 
d="M126 0c-22.667 0 -34 11.667 -34 35v635c0 23.333 11.333 35 34 35h378c18.667 0 28 -8.66699 28 -26c0 -18 -9.33301 -27 -28 -27h-352v-268h332c18.667 0 28 -8.66699 28 -26c0 -18 -9.33301 -27 -28 -27h-332v-278h352c18.667 0 28 -8.66699 28 -26
c0 -18 -9.33301 -27 -28 -27h-378zM350 769c-6 -7.33301 -12.666 -10.333 -19.999 -9s-12.833 5 -16.5 11s-2.83398 13 2.49902 21l94 136c8 12 17.5 17.167 28.5 15.5s19 -7 24 -16s3.16699 -18.5 -5.5 -28.5z" />
    <glyph glyph-name="Ecircumflex" unicode="&#xca;" horiz-adv-x="576" 
d="M126 0c-22.667 0 -34 11.667 -34 35v635c0 23.333 11.333 35 34 35h378c18.667 0 28 -8.66699 28 -26c0 -18 -9.33301 -27 -28 -27h-352v-268h332c18.667 0 28 -8.66699 28 -26c0 -18 -9.33301 -27 -28 -27h-332v-278h352c18.667 0 28 -8.66699 28 -26
c0 -18 -9.33301 -27 -28 -27h-378zM220 767c-6 -7.33301 -12.833 -10.5 -20.5 -9.5s-13.167 4.5 -16.5 10.5s-2.33301 12.667 3 20l95 133c5.33301 8 11.5 13.667 18.5 17s14.5 5 22.5 5s15.5 -1.66699 22.5 -5s13.5 -9 19.5 -17l94 -133c6 -7.33301 7.16699 -14 3.5 -20
s-9.16699 -9.5 -16.5 -10.5s-14.333 2.16699 -21 9.5l-102 124z" />
    <glyph glyph-name="Edieresis" unicode="&#xcb;" horiz-adv-x="576" 
d="M126 0c-22.667 0 -34 11.667 -34 35v635c0 23.333 11.333 35 34 35h378c18.667 0 28 -8.66699 28 -26c0 -18 -9.33301 -27 -28 -27h-352v-268h332c18.667 0 28 -8.66699 28 -26c0 -18 -9.33301 -27 -28 -27h-332v-278h352c18.667 0 28 -8.66699 28 -26
c0 -18 -9.33301 -27 -28 -27h-378zM406 810c-26.667 0 -40 13.333 -40 40c0 26 13.333 39 40 39s40 -13 40 -39c0 -26.667 -13.333 -40 -40 -40zM239 810c-27.333 0 -41 13.333 -41 40c0 26 13.667 39 41 39c26 0 39 -13 39 -39c0 -26.667 -13 -40 -39 -40z" />
    <glyph glyph-name="Igrave" unicode="&#xcc;" horiz-adv-x="245" 
d="M122 -6c-20 0 -30 10.667 -30 32v653c0 21.333 10 32 30 32c20.667 0 31 -10.667 31 -32v-653c0 -21.333 -10.333 -32 -31 -32zM94 769l-106.999 130c-8.66699 10 -10.334 19.5 -5.00098 28.5s13.333 14.333 24 16s20 -3.5 28 -15.5l95 -136
c4.66699 -8 5.16699 -15 1.5 -21s-9.16699 -9.66699 -16.5 -11s-14 1.66699 -20 9z" />
    <glyph glyph-name="Iacute" unicode="&#xcd;" horiz-adv-x="245" 
d="M122 -6c-20 0 -30 10.667 -30 32v653c0 21.333 10 32 30 32c20.667 0 31 -10.667 31 -32v-653c0 -21.333 -10.333 -32 -31 -32zM150 769c-6 -7.33301 -12.666 -10.333 -19.999 -9s-12.833 5 -16.5 11s-2.83398 13 2.49902 21l94 136c8 12 17.5 17.167 28.5 15.5
s19 -7 24 -16s3.16699 -18.5 -5.5 -28.5z" />
    <glyph glyph-name="Icircumflex" unicode="&#xce;" horiz-adv-x="245" 
d="M122 -6c-20 0 -30 10.667 -30 32v653c0 21.333 10 32 30 32c20.667 0 31 -10.667 31 -32v-653c0 -21.333 -10.333 -32 -31 -32zM20 767c-6 -7.33301 -12.833 -10.5 -20.5 -9.5s-13.167 4.5 -16.5 10.5s-2.33301 12.667 3 20l95 133c5.33301 8 11.5 13.667 18.5 17
s14.5 5 22.5 5s15.5 -1.66699 22.5 -5s13.5 -9 19.5 -17l94 -133c6 -7.33301 7.16699 -14 3.5 -20s-9.16699 -9.5 -16.5 -10.5s-14.333 2.16699 -21 9.5l-102 124z" />
    <glyph glyph-name="Idieresis" unicode="&#xcf;" horiz-adv-x="245" 
d="M122 -6c-20 0 -30 10.667 -30 32v653c0 21.333 10 32 30 32c20.667 0 31 -10.667 31 -32v-653c0 -21.333 -10.333 -32 -31 -32zM206 810c-26.667 0 -40 13.333 -40 40c0 26 13.333 39 40 39s40 -13 40 -39c0 -26.667 -13.333 -40 -40 -40zM39 810
c-27.333 0 -41 13.333 -41 40c0 26 13.667 39 41 39c26 0 39 -13 39 -39c0 -26.667 -13 -40 -39 -40z" />
    <glyph glyph-name="Eth" unicode="&#xd0;" horiz-adv-x="733" 
d="M126 0c-22.667 0 -34 11.667 -34 35v635c0 23.333 11.333 35 34 35h193c112 0 198.5 -30 259.5 -90s91.5 -147.333 91.5 -262s-30.5 -202.167 -91.5 -262.5s-147.5 -90.5 -259.5 -90.5h-193zM153 54h161c193.333 0 290 99.667 290 299c0 198.667 -96.667 298 -290 298
h-161v-597zM22 333c-17.333 0 -26 8.66699 -26 26c0 16 8.66699 24 26 24h311c17.333 0 26 -8 26 -24c0 -17.333 -8.66699 -26 -26 -26h-311z" />
    <glyph glyph-name="Ntilde" unicode="&#xd1;" horiz-adv-x="736" 
d="M121 -6c-19.333 0 -29 10.333 -29 31v654c0 21.333 8.66699 32 26 32c8 0 14.167 -1.33301 18.5 -4s8.83301 -7.66699 13.5 -15l437 -588v577c0 20 9.66699 30 29 30c18.667 0 28 -10 28 -30v-656c0 -20.667 -8.33301 -31 -25 -31c-12.667 0 -23.667 6.33301 -33 19
l-437 589v-577c0 -20.667 -9.33301 -31 -28 -31zM187 784c-6 0.666992 -11.001 3 -15.001 7s-5.33301 10 -4 18c6 34 18.833 60.5 38.5 79.5s43.834 28.5 72.501 28.5c18 0 35 -4 51 -12s31.5 -17.333 46.5 -28s29.333 -20.167 43 -28.5s27.167 -12.5 40.5 -12.5
c18 0 32.833 6.16699 44.5 18.5s19.5 29.166 23.5 50.499c2.66699 12 9.66699 18 21 18c6 -0.666992 11 -3 15 -7s5.33301 -10 4 -18c-6 -34 -18.833 -60.5 -38.5 -79.5s-43.5 -28.5 -71.5 -28.5c-18 0 -35.167 4 -51.5 12s-32 17.333 -47 28s-29.333 20.167 -43 28.5
s-27.167 12.5 -40.5 12.5c-18 0 -32.833 -6.16699 -44.5 -18.5s-19.5 -29.166 -23.5 -50.499c-2.66699 -12 -9.66699 -18 -21 -18z" />
    <glyph glyph-name="Ograve" unicode="&#xd2;" horiz-adv-x="759" 
d="M379 -8c-64.667 0 -120.499 14.667 -167.499 44s-83.333 71 -109 125s-38.5 118 -38.5 192s12.667 138 38 192s61.666 95.5 108.999 124.5s103.333 43.5 168 43.5c65.333 0 121.5 -14.5 168.5 -43.5s83.333 -70.333 109 -124s38.5 -117.5 38.5 -191.5
c0 -74.667 -12.833 -139 -38.5 -193s-62.167 -95.667 -109.5 -125s-103.333 -44 -168 -44zM379.001 48c79.333 0 141 26.667 185 80s66 128.333 66 225s-21.833 171.5 -65.5 224.5s-105.5 79.5 -185.5 79.5c-79.333 0 -140.833 -26.667 -184.5 -80s-65.5 -128 -65.5 -224
s21.833 -170.833 65.5 -224.5s105.167 -80.5 184.5 -80.5zM351.001 769l-106.999 130c-8.66699 10 -10.334 19.5 -5.00098 28.5s13.333 14.333 24 16s20 -3.5 28 -15.5l95 -136c4.66699 -8 5.16699 -15 1.5 -21s-9.16699 -9.66699 -16.5 -11s-14 1.66699 -20 9z" />
    <glyph glyph-name="Oacute" unicode="&#xd3;" horiz-adv-x="759" 
d="M379 -8c-64.667 0 -120.499 14.667 -167.499 44s-83.333 71 -109 125s-38.5 118 -38.5 192s12.667 138 38 192s61.666 95.5 108.999 124.5s103.333 43.5 168 43.5c65.333 0 121.5 -14.5 168.5 -43.5s83.333 -70.333 109 -124s38.5 -117.5 38.5 -191.5
c0 -74.667 -12.833 -139 -38.5 -193s-62.167 -95.667 -109.5 -125s-103.333 -44 -168 -44zM379.001 48c79.333 0 141 26.667 185 80s66 128.333 66 225s-21.833 171.5 -65.5 224.5s-105.5 79.5 -185.5 79.5c-79.333 0 -140.833 -26.667 -184.5 -80s-65.5 -128 -65.5 -224
s21.833 -170.833 65.5 -224.5s105.167 -80.5 184.5 -80.5zM407.001 769c-6 -7.33301 -12.666 -10.333 -19.999 -9s-12.833 5 -16.5 11s-2.83398 13 2.49902 21l94 136c8 12 17.5 17.167 28.5 15.5s19 -7 24 -16s3.16699 -18.5 -5.5 -28.5z" />
    <glyph glyph-name="Ocircumflex" unicode="&#xd4;" horiz-adv-x="759" 
d="M379 -8c-64.667 0 -120.499 14.667 -167.499 44s-83.333 71 -109 125s-38.5 118 -38.5 192s12.667 138 38 192s61.666 95.5 108.999 124.5s103.333 43.5 168 43.5c65.333 0 121.5 -14.5 168.5 -43.5s83.333 -70.333 109 -124s38.5 -117.5 38.5 -191.5
c0 -74.667 -12.833 -139 -38.5 -193s-62.167 -95.667 -109.5 -125s-103.333 -44 -168 -44zM379.001 48c79.333 0 141 26.667 185 80s66 128.333 66 225s-21.833 171.5 -65.5 224.5s-105.5 79.5 -185.5 79.5c-79.333 0 -140.833 -26.667 -184.5 -80s-65.5 -128 -65.5 -224
s21.833 -170.833 65.5 -224.5s105.167 -80.5 184.5 -80.5zM277.001 767c-6 -7.33301 -12.833 -10.5 -20.5 -9.5s-13.167 4.5 -16.5 10.5s-2.33301 12.667 3 20l95 133c5.33301 8 11.5 13.667 18.5 17s14.5 5 22.5 5s15.5 -1.66699 22.5 -5s13.5 -9 19.5 -17l94 -133
c6 -7.33301 7.16699 -14 3.5 -20s-9.16699 -9.5 -16.5 -10.5s-14.333 2.16699 -21 9.5l-102 124z" />
    <glyph glyph-name="Otilde" unicode="&#xd5;" horiz-adv-x="759" 
d="M379 -8c-64.667 0 -120.499 14.667 -167.499 44s-83.333 71 -109 125s-38.5 118 -38.5 192s12.667 138 38 192s61.666 95.5 108.999 124.5s103.333 43.5 168 43.5c65.333 0 121.5 -14.5 168.5 -43.5s83.333 -70.333 109 -124s38.5 -117.5 38.5 -191.5
c0 -74.667 -12.833 -139 -38.5 -193s-62.167 -95.667 -109.5 -125s-103.333 -44 -168 -44zM379.001 48c79.333 0 141 26.667 185 80s66 128.333 66 225s-21.833 171.5 -65.5 224.5s-105.5 79.5 -185.5 79.5c-79.333 0 -140.833 -26.667 -184.5 -80s-65.5 -128 -65.5 -224
s21.833 -170.833 65.5 -224.5s105.167 -80.5 184.5 -80.5zM198.001 784c-6 0.666992 -11.001 3 -15.001 7s-5.33301 10 -4 18c6 34 18.833 60.5 38.5 79.5s43.834 28.5 72.501 28.5c18 0 35 -4 51 -12s31.5 -17.333 46.5 -28s29.333 -20.167 43 -28.5
s27.167 -12.5 40.5 -12.5c18 0 32.833 6.16699 44.5 18.5s19.5 29.166 23.5 50.499c2.66699 12 9.66699 18 21 18c6 -0.666992 11 -3 15 -7s5.33301 -10 4 -18c-6 -34 -18.833 -60.5 -38.5 -79.5s-43.5 -28.5 -71.5 -28.5c-18 0 -35.167 4 -51.5 12s-32 17.333 -47 28
s-29.333 20.167 -43 28.5s-27.167 12.5 -40.5 12.5c-18 0 -32.833 -6.16699 -44.5 -18.5s-19.5 -29.166 -23.5 -50.499c-2.66699 -12 -9.66699 -18 -21 -18z" />
    <glyph glyph-name="Odieresis" unicode="&#xd6;" horiz-adv-x="759" 
d="M379 -8c-64.667 0 -120.499 14.667 -167.499 44s-83.333 71 -109 125s-38.5 118 -38.5 192s12.667 138 38 192s61.666 95.5 108.999 124.5s103.333 43.5 168 43.5c65.333 0 121.5 -14.5 168.5 -43.5s83.333 -70.333 109 -124s38.5 -117.5 38.5 -191.5
c0 -74.667 -12.833 -139 -38.5 -193s-62.167 -95.667 -109.5 -125s-103.333 -44 -168 -44zM379.001 48c79.333 0 141 26.667 185 80s66 128.333 66 225s-21.833 171.5 -65.5 224.5s-105.5 79.5 -185.5 79.5c-79.333 0 -140.833 -26.667 -184.5 -80s-65.5 -128 -65.5 -224
s21.833 -170.833 65.5 -224.5s105.167 -80.5 184.5 -80.5zM463.001 810c-26.667 0 -40 13.333 -40 40c0 26 13.333 39 40 39s40 -13 40 -39c0 -26.667 -13.333 -40 -40 -40zM296.001 810c-27.333 0 -41 13.333 -41 40c0 26 13.667 39 41 39c26 0 39 -13 39 -39
c0 -26.667 -13 -40 -39 -40z" />
    <glyph glyph-name="multiply" unicode="&#xd7;" horiz-adv-x="600" 
d="M117 66c-8 -8.66699 -16.499 -11.5 -25.499 -8.5s-15 8.83301 -18 17.5s-0.5 17.334 7.5 26.001l183 183l-186 186c-8 8.66699 -10.5 17.334 -7.5 26.001s8.83301 14.667 17.5 18s17.334 0.666016 26.001 -8.00098l186 -186l185 186c8 8 16.5 10.5 25.5 7.5
s15.167 -9 18.5 -18s0.666016 -17.833 -8.00098 -26.5l-185 -185l183 -183c8 -8.66699 10.5 -17.334 7.5 -26.001s-8.83301 -14.5 -17.5 -17.5s-17.334 -0.166992 -26.001 8.5l-183 183z" />
    <glyph glyph-name="Oslash" unicode="&#xd8;" horiz-adv-x="759" 
d="M379 -8c-64.667 0 -120.499 14.667 -167.499 44s-83.333 71 -109 125s-38.5 118 -38.5 192s12.667 138 38 192s61.666 95.5 108.999 124.5s103.333 43.5 168 43.5c65.333 0 121.5 -14.5 168.5 -43.5s83.333 -70.333 109 -124s38.5 -117.5 38.5 -191.5
c0 -74.667 -12.833 -139 -38.5 -193s-62.167 -95.667 -109.5 -125s-103.333 -44 -168 -44zM379.001 48c79.333 0 141 26.667 185 80s66 128.333 66 225s-21.833 171.5 -65.5 224.5s-105.5 79.5 -185.5 79.5c-79.333 0 -140.833 -26.667 -184.5 -80s-65.5 -128 -65.5 -224
s21.833 -170.833 65.5 -224.5s105.167 -80.5 184.5 -80.5zM189.001 -24c-5.33301 -10 -12.833 -14.668 -22.5 -14.001s-17.167 4.83398 -22.5 12.501s-4.66602 17.167 2.00098 28.5l39 67l19 31l310 532l16 28l40 68c6 10 13.667 14.667 23 14s16.666 -5 21.999 -13
s5 -17.333 -1 -28l-40 -67l-18 -31l-310 -532l-16 -28z" />
    <glyph glyph-name="Ugrave" unicode="&#xd9;" horiz-adv-x="724" 
d="M362 -8c-90 0 -158.333 24.167 -205 72.5s-70 118.5 -70 210.5v405c0 20.667 10 31 30 31c20.667 0 31 -10.333 31 -31v-400c0 -154.667 71.333 -232 214 -232s214 77.333 214 232v400c0 20.667 10.333 31 31 31c20 0 30 -10.333 30 -31v-405
c0 -92 -23.333 -162.167 -70 -210.5s-115 -72.5 -205 -72.5zM334 769l-106.999 130c-8.66699 10 -10.334 19.5 -5.00098 28.5s13.333 14.333 24 16s20 -3.5 28 -15.5l95 -136c4.66699 -8 5.16699 -15 1.5 -21s-9.16699 -9.66699 -16.5 -11s-14 1.66699 -20 9z" />
    <glyph glyph-name="Uacute" unicode="&#xda;" horiz-adv-x="724" 
d="M362 -8c-90 0 -158.333 24.167 -205 72.5s-70 118.5 -70 210.5v405c0 20.667 10 31 30 31c20.667 0 31 -10.333 31 -31v-400c0 -154.667 71.333 -232 214 -232s214 77.333 214 232v400c0 20.667 10.333 31 31 31c20 0 30 -10.333 30 -31v-405
c0 -92 -23.333 -162.167 -70 -210.5s-115 -72.5 -205 -72.5zM390 769c-6 -7.33301 -12.666 -10.333 -19.999 -9s-12.833 5 -16.5 11s-2.83398 13 2.49902 21l94 136c8 12 17.5 17.167 28.5 15.5s19 -7 24 -16s3.16699 -18.5 -5.5 -28.5z" />
    <glyph glyph-name="Ucircumflex" unicode="&#xdb;" horiz-adv-x="724" 
d="M362 -8c-90 0 -158.333 24.167 -205 72.5s-70 118.5 -70 210.5v405c0 20.667 10 31 30 31c20.667 0 31 -10.333 31 -31v-400c0 -154.667 71.333 -232 214 -232s214 77.333 214 232v400c0 20.667 10.333 31 31 31c20 0 30 -10.333 30 -31v-405
c0 -92 -23.333 -162.167 -70 -210.5s-115 -72.5 -205 -72.5zM260 767c-6 -7.33301 -12.833 -10.5 -20.5 -9.5s-13.167 4.5 -16.5 10.5s-2.33301 12.667 3 20l95 133c5.33301 8 11.5 13.667 18.5 17s14.5 5 22.5 5s15.5 -1.66699 22.5 -5s13.5 -9 19.5 -17l94 -133
c6 -7.33301 7.16699 -14 3.5 -20s-9.16699 -9.5 -16.5 -10.5s-14.333 2.16699 -21 9.5l-102 124z" />
    <glyph glyph-name="Udieresis" unicode="&#xdc;" horiz-adv-x="724" 
d="M362 -8c-90 0 -158.333 24.167 -205 72.5s-70 118.5 -70 210.5v405c0 20.667 10 31 30 31c20.667 0 31 -10.333 31 -31v-400c0 -154.667 71.333 -232 214 -232s214 77.333 214 232v400c0 20.667 10.333 31 31 31c20 0 30 -10.333 30 -31v-405
c0 -92 -23.333 -162.167 -70 -210.5s-115 -72.5 -205 -72.5zM446 810c-26.667 0 -40 13.333 -40 40c0 26 13.333 39 40 39s40 -13 40 -39c0 -26.667 -13.333 -40 -40 -40zM279 810c-27.333 0 -41 13.333 -41 40c0 26 13.667 39 41 39c26 0 39 -13 39 -39
c0 -26.667 -13 -40 -39 -40z" />
    <glyph glyph-name="Yacute" unicode="&#xdd;" horiz-adv-x="586" 
d="M293 -6c-20.667 0 -30.9971 11 -30.9971 33v311l-241 329c-8 10.667 -9.66699 20.667 -5 30s12.667 14 24 14c14 0 25.667 -6.66699 35 -20l219 -299l220 299c9.33301 13.333 20.666 20 33.999 20c11.333 0 19.166 -4.5 23.499 -13.5s2.16602 -19.5 -6.50098 -31.5
l-241 -329v-310c0 -22 -10.333 -33 -31 -33zM321.003 769c-6 -7.33301 -12.666 -10.333 -19.999 -9s-12.833 5 -16.5 11s-2.83398 13 2.49902 21l94 136c8 12 17.5 17.167 28.5 15.5s19 -7 24 -16s3.16699 -18.5 -5.5 -28.5z" />
    <glyph glyph-name="Thorn" unicode="&#xde;" horiz-adv-x="625" 
d="M122 -5c-20 0 -30 10.667 -30 32v651c0 21.333 10.333 32 31 32c20 0 30 -10 30 -30v-107h206c74.667 0 132 -18 172 -54s60 -87.333 60 -154c0 -66 -20 -117 -60 -153s-97.333 -54 -172 -54h-206v-131c0 -21.333 -10.333 -32 -31 -32zM153 211h200
c116.667 0 175 51.333 175 154c0 103.333 -58.333 155 -175 155h-200v-309z" />
    <glyph glyph-name="germandbls" unicode="&#xdf;" horiz-adv-x="597" 
d="M388 -8c-28.667 0 -57.501 4.16602 -86.501 12.499s-54.5 20.833 -76.5 37.5c-10 7.33301 -14.5 15.833 -13.5 25.5s5.33301 17 13 22s16.834 3.83301 27.501 -3.5c22 -14.667 45 -25.5 69 -32.5s46.667 -10.5 68 -10.5c35.333 0 63.5 7.83301 84.5 23.5
s31.5 36.834 31.5 63.501c0 21.333 -8.5 39 -25.5 53s-45.833 27.667 -86.5 41c-54 16.667 -91.667 35.334 -113 56.001s-32 46.667 -32 78c0 20.667 5.83301 40.5 17.5 59.5s32.834 41.5 63.501 67.5c22 18.667 37.667 35.667 47 51s14 31.666 14 48.999
c0 24 -8.5 43 -25.5 57s-40.833 21 -71.5 21c-49.333 0 -87 -14.667 -113 -44s-39 -70.666 -39 -123.999v-470c0 -20.667 -10 -31 -30 -31c-20.667 0 -31 10.333 -31 31v465c0 70 18.667 124.667 56 164s89.333 59 156 59c49.333 0 88 -11.167 116 -33.5
s42 -52.166 42 -89.499c0 -26 -6.16699 -49 -18.5 -69s-32.833 -42.333 -61.5 -67c-24 -20.667 -40.333 -37.334 -49 -50.001s-13 -26.334 -13 -41.001c0 -19.333 8.16699 -35.833 24.5 -49.5s45.5 -26.834 87.5 -39.501c52 -16.667 89.167 -36 111.5 -58
s33.5 -50.667 33.5 -86c0 -41.333 -16.333 -74.666 -49 -99.999s-75.334 -38 -128.001 -38z" />
    <glyph glyph-name="agrave" unicode="&#xe0;" horiz-adv-x="522" 
d="M230 -8c-32.667 0 -61.832 6.33691 -87.499 19.0039s-46 30 -61 52s-22.5 46.667 -22.5 74c0 36 9 64.167 27 84.5s48.333 34.833 91 43.5s101.334 13 176.001 13h31v36c0 44.667 -9 77.167 -27 97.5s-46.667 30.5 -86 30.5c-25.333 0 -50 -3.33301 -74 -10
s-49 -17.334 -75 -32.001c-12 -6.66699 -21.5 -6.83398 -28.5 -0.500977s-10.333 14.666 -10 24.999s5.83301 18.166 16.5 23.499c27.333 15.333 55.666 26.833 84.999 34.5s57.666 11.5 84.999 11.5c58.667 0 102.167 -15 130.5 -45s42.5 -76 42.5 -138v-286
c0 -20.667 -9.33301 -31 -28 -31c-20 0 -30 10.333 -30 31v62c-13.333 -30 -33.5 -53.333 -60.5 -70s-58.5 -25 -94.5 -25zM238.002 41.0039c28.667 0 53.832 6.83105 75.499 20.498s38.834 32.5 51.501 56.5s19 51.333 19 82v33h-30c-60 0 -106.833 -2.66699 -140.5 -8
s-57.167 -14.666 -70.5 -27.999s-20 -31.666 -20 -54.999c0 -30 10.333 -54.333 31 -73s48.667 -28 84 -28zM242 554.002l-101.998 164.003c-6 8 -7.66699 15.667 -5 23s7.5 13 14.5 17s14.5 5 22.5 3s14.333 -7.66699 19 -17l88 -169
c4.66699 -8.66699 4.66699 -15.834 0 -21.501s-10.834 -8.83398 -18.501 -9.50098s-13.834 2.66602 -18.501 9.99902z" />
    <glyph glyph-name="aacute" unicode="&#xe1;" horiz-adv-x="522" 
d="M230 -8c-32.667 0 -61.832 6.33691 -87.499 19.0039s-46 30 -61 52s-22.5 46.667 -22.5 74c0 36 9 64.167 27 84.5s48.333 34.833 91 43.5s101.334 13 176.001 13h31v36c0 44.667 -9 77.167 -27 97.5s-46.667 30.5 -86 30.5c-25.333 0 -50 -3.33301 -74 -10
s-49 -17.334 -75 -32.001c-12 -6.66699 -21.5 -6.83398 -28.5 -0.500977s-10.333 14.666 -10 24.999s5.83301 18.166 16.5 23.499c27.333 15.333 55.666 26.833 84.999 34.5s57.666 11.5 84.999 11.5c58.667 0 102.167 -15 130.5 -45s42.5 -76 42.5 -138v-286
c0 -20.667 -9.33301 -31 -28 -31c-20 0 -30 10.333 -30 31v62c-13.333 -30 -33.5 -53.333 -60.5 -70s-58.5 -25 -94.5 -25zM238.002 41.0039c28.667 0 53.832 6.83105 75.499 20.498s38.834 32.5 51.501 56.5s19 51.333 19 82v33h-30c-60 0 -106.833 -2.66699 -140.5 -8
s-57.167 -14.666 -70.5 -27.999s-20 -31.666 -20 -54.999c0 -30 10.333 -54.333 31 -73s48.667 -28 84 -28zM294 554.002c-4.66699 -7.33301 -10.834 -10.833 -18.501 -10.5s-13.667 3.5 -18 9.5s-4.5 13.333 -0.5 22l88 169c4.66699 9.33301 11 15 19 17s15.5 1 22.5 -3
s11.833 -9.66699 14.5 -17s1.33398 -15 -3.99902 -23z" />
    <glyph glyph-name="acircumflex" unicode="&#xe2;" horiz-adv-x="522" 
d="M230 -8c-32.667 0 -61.832 6.33691 -87.499 19.0039s-46 30 -61 52s-22.5 46.667 -22.5 74c0 36 9 64.167 27 84.5s48.333 34.833 91 43.5s101.334 13 176.001 13h31v36c0 44.667 -9 77.167 -27 97.5s-46.667 30.5 -86 30.5c-25.333 0 -50 -3.33301 -74 -10
s-49 -17.334 -75 -32.001c-12 -6.66699 -21.5 -6.83398 -28.5 -0.500977s-10.333 14.666 -10 24.999s5.83301 18.166 16.5 23.499c27.333 15.333 55.666 26.833 84.999 34.5s57.666 11.5 84.999 11.5c58.667 0 102.167 -15 130.5 -45s42.5 -76 42.5 -138v-286
c0 -20.667 -9.33301 -31 -28 -31c-20 0 -30 10.333 -30 31v62c-13.333 -30 -33.5 -53.333 -60.5 -70s-58.5 -25 -94.5 -25zM238.002 41.0039c28.667 0 53.832 6.83105 75.499 20.498s38.834 32.5 51.501 56.5s19 51.333 19 82v33h-30c-60 0 -106.833 -2.66699 -140.5 -8
s-57.167 -14.666 -70.5 -27.999s-20 -31.666 -20 -54.999c0 -30 10.333 -54.333 31 -73s48.667 -28 84 -28zM395 575.002c4.66699 -8.66699 4.83008 -16 0.49707 -22s-10.166 -9.16699 -17.499 -9.5s-13 3.16699 -17 10.5l-93 151l-93 -151
c-4 -7.33301 -9.66699 -10.833 -17 -10.5s-13.166 3.5 -17.499 9.5s-4.16602 13.333 0.500977 22l88 161c9.33301 17.333 22.333 26 39 26c17.333 0 30.333 -8.66699 39 -26z" />
    <glyph glyph-name="atilde" unicode="&#xe3;" horiz-adv-x="522" 
d="M230 -8c-32.667 0 -61.832 6.33691 -87.499 19.0039s-46 30 -61 52s-22.5 46.667 -22.5 74c0 36 9 64.167 27 84.5s48.333 34.833 91 43.5s101.334 13 176.001 13h31v36c0 44.667 -9 77.167 -27 97.5s-46.667 30.5 -86 30.5c-25.333 0 -50 -3.33301 -74 -10
s-49 -17.334 -75 -32.001c-12 -6.66699 -21.5 -6.83398 -28.5 -0.500977s-10.333 14.666 -10 24.999s5.83301 18.166 16.5 23.499c27.333 15.333 55.666 26.833 84.999 34.5s57.666 11.5 84.999 11.5c58.667 0 102.167 -15 130.5 -45s42.5 -76 42.5 -138v-286
c0 -20.667 -9.33301 -31 -28 -31c-20 0 -30 10.333 -30 31v62c-13.333 -30 -33.5 -53.333 -60.5 -70s-58.5 -25 -94.5 -25zM238.002 41.0039c28.667 0 53.832 6.83105 75.499 20.498s38.834 32.5 51.501 56.5s19 51.333 19 82v33h-30c-60 0 -106.833 -2.66699 -140.5 -8
s-57.167 -14.666 -70.5 -27.999s-20 -31.666 -20 -54.999c0 -30 10.333 -54.333 31 -73s48.667 -28 84 -28zM114 589.002c-5.33301 0.666992 -10 3 -14 7s-5 10 -3 18c5.33301 32 16.166 58 32.499 78s38.5 30 66.5 30c15.333 0 29.333 -4 42 -12s24.5 -17.333 35.5 -28
s21.833 -20.167 32.5 -28.5s22 -12.5 34 -12.5c15.333 0 28.166 6.16699 38.499 18.5s17.833 29.5 22.5 51.5c2 11.333 9 17 21 17c5.33301 -0.666992 10 -3 14 -7s5 -10 3 -18c-5.33301 -32 -16.166 -58 -32.499 -78s-38.5 -30 -66.5 -30c-15.333 0 -29.333 4 -42 12
s-24.5 17.333 -35.5 28s-21.833 20.167 -32.5 28.5s-22 12.5 -34 12.5c-15.333 0 -28.166 -6.16699 -38.499 -18.5s-17.833 -29.5 -22.5 -51.5c-2 -11.333 -9 -17 -21 -17z" />
    <glyph glyph-name="adieresis" unicode="&#xe4;" horiz-adv-x="522" 
d="M230 -8c-32.667 0 -61.832 6.33691 -87.499 19.0039s-46 30 -61 52s-22.5 46.667 -22.5 74c0 36 9 64.167 27 84.5s48.333 34.833 91 43.5s101.334 13 176.001 13h31v36c0 44.667 -9 77.167 -27 97.5s-46.667 30.5 -86 30.5c-25.333 0 -50 -3.33301 -74 -10
s-49 -17.334 -75 -32.001c-12 -6.66699 -21.5 -6.83398 -28.5 -0.500977s-10.333 14.666 -10 24.999s5.83301 18.166 16.5 23.499c27.333 15.333 55.666 26.833 84.999 34.5s57.666 11.5 84.999 11.5c58.667 0 102.167 -15 130.5 -45s42.5 -76 42.5 -138v-286
c0 -20.667 -9.33301 -31 -28 -31c-20 0 -30 10.333 -30 31v62c-13.333 -30 -33.5 -53.333 -60.5 -70s-58.5 -25 -94.5 -25zM238.002 41.0039c28.667 0 53.832 6.83105 75.499 20.498s38.834 32.5 51.501 56.5s19 51.333 19 82v33h-30c-60 0 -106.833 -2.66699 -140.5 -8
s-57.167 -14.666 -70.5 -27.999s-20 -31.666 -20 -54.999c0 -30 10.333 -54.333 31 -73s48.667 -28 84 -28zM352 612.002c-26.667 0 -40 13 -40 39c0 26.667 13.333 40 40 40s40 -13.333 40 -40c0 -26 -13.333 -39 -40 -39zM185 612.002c-27.333 0 -41 13 -41 39
c0 26.667 13.667 40 41 40c26 0 39 -13.333 39 -40c0 -26 -13 -39 -39 -39z" />
    <glyph glyph-name="aring" unicode="&#xe5;" horiz-adv-x="522" 
d="M230 -8c-32.667 0 -61.832 6.33691 -87.499 19.0039s-46 30 -61 52s-22.5 46.667 -22.5 74c0 36 9 64.167 27 84.5s48.333 34.833 91 43.5s101.334 13 176.001 13h31v36c0 44.667 -9 77.167 -27 97.5s-46.667 30.5 -86 30.5c-25.333 0 -50 -3.33301 -74 -10
s-49 -17.334 -75 -32.001c-12 -6.66699 -21.5 -6.83398 -28.5 -0.500977s-10.333 14.666 -10 24.999s5.83301 18.166 16.5 23.499c27.333 15.333 55.666 26.833 84.999 34.5s57.666 11.5 84.999 11.5c58.667 0 102.167 -15 130.5 -45s42.5 -76 42.5 -138v-286
c0 -20.667 -9.33301 -31 -28 -31c-20 0 -30 10.333 -30 31v62c-13.333 -30 -33.5 -53.333 -60.5 -70s-58.5 -25 -94.5 -25zM238.002 41.0039c28.667 0 53.832 6.83105 75.499 20.498s38.834 32.5 51.501 56.5s19 51.333 19 82v33h-30c-60 0 -106.833 -2.66699 -140.5 -8
s-57.167 -14.666 -70.5 -27.999s-20 -31.666 -20 -54.999c0 -30 10.333 -54.333 31 -73s48.667 -28 84 -28zM268 547.002c-32.667 0 -60 11 -82 33s-33 48.667 -33 80s11 57.833 33 79.5s49.333 32.5 82 32.5s60 -10.833 82 -32.5s33 -48.167 33 -79.5s-11 -58 -33 -80
s-49.333 -33 -82 -33zM268 584.002c22 0 40 7.33301 54 22s21 32.667 21 54s-7 39.166 -21 53.499s-32 21.5 -54 21.5s-40 -7.16699 -54 -21.5s-21 -32.166 -21 -53.499s7 -39.333 21 -54s32 -22 54 -22z" />
    <glyph glyph-name="ae" unicode="&#xe6;" horiz-adv-x="859" 
d="M234 -8c-34 0 -64.001 6.33691 -90.001 19.0039s-46.667 30 -62 52s-23 46.667 -23 74c0 36 9.16699 64.167 27.5 84.5s49 34.833 92 43.5s101.167 13 174.5 13h35v34c0 45.333 -9.5 78.333 -28.5 99s-47.833 31 -86.5 31c-26 0 -51 -3.33301 -75 -10
s-49 -17.334 -75 -32.001c-12.667 -6.66699 -22.5 -6.83398 -29.5 -0.500977s-10.333 14.666 -10 24.999s5.83301 18.166 16.5 23.499c27.333 15.333 55.833 26.833 85.5 34.5s58.5 11.5 86.5 11.5c84.667 0 138.334 -33.667 161.001 -101
c18.667 32.667 43.667 57.667 75 75s66.666 26 105.999 26c62 0.666992 110.833 -19.833 146.5 -61.5s53.5 -99.167 53.5 -172.5v-4c0 -15.333 -9.33301 -23 -28 -23h-338c2 -60.667 17.833 -107.5 47.5 -140.5s72.167 -49.5 127.5 -49.5c21.333 0 44 3.33301 68 10
s47 18 69 34c11.333 8 21.5 9.83301 30.5 5.5s14 -11.333 15 -21s-4.16699 -18.5 -15.5 -26.5c-22 -16.667 -47.5 -29.667 -76.5 -39s-58.167 -14 -87.5 -14c-51.333 0 -95 10.667 -131 32s-62.667 53.333 -80 96c-13.333 -40 -35.666 -71.333 -66.999 -94
s-69.333 -34 -114 -34zM611.999 445.004c-46.667 0 -84.332 -15 -112.999 -45s-45.334 -70.667 -50.001 -122h311c-2 51.333 -15.5 92 -40.5 122s-60.833 45 -107.5 45zM240.001 41.0039c44 0 79.666 15.5 106.999 46.5s41 70.5 41 118.5v27h-34
c-60 0 -106.833 -2.66699 -140.5 -8s-57.167 -14.5 -70.5 -27.5s-20 -31.5 -20 -55.5c0 -30 10.333 -54.333 31 -73s49.334 -28 86.001 -28z" />
    <glyph glyph-name="ccedilla" unicode="&#xe7;" horiz-adv-x="459" 
d="M278 -8c-47.333 0 -88.001 10.5 -122.001 31.5s-60.167 50.667 -78.5 89s-27.5 82.833 -27.5 133.5c0 76.667 20.167 137.167 60.5 181.5s96.166 66.5 167.499 66.5c24.667 0 50.167 -4.33301 76.5 -13s49.833 -22.334 70.5 -41.001c8.66699 -6.66699 12 -14.667 10 -24
s-7.16699 -16.166 -15.5 -20.499s-17.5 -2.5 -27.5 5.5c-18.667 15.333 -37.667 25.833 -57 31.5s-37.666 8.5 -54.999 8.5c-54 0 -95.5 -17 -124.5 -51s-43.5 -82.333 -43.5 -145s14.5 -111.834 43.5 -147.501s70.5 -53.5 124.5 -53.5c17.333 0 35.666 2.83301 54.999 8.5
s38.333 16.167 57 31.5c10.667 8 19.834 9.83301 27.501 5.5s12.334 -11.166 14.001 -20.499s-1.5 -17.333 -9.5 -24c-20.667 -18.667 -44 -32.167 -70 -40.5s-51.333 -12.5 -76 -12.5zM279.999 -191c-12 0 -24.167 1 -36.5 3s-23.5 5 -33.5 9
c-8.66699 4 -13.5 9.83301 -14.5 17.5s1.16699 14.167 6.5 19.5s12.666 6 21.999 2c14 -6.66699 33 -10 57 -10c18 0 32.5 3.5 43.5 10.5s16.5 16.833 16.5 29.5c0 20 -12.667 30 -38 30c-6 0 -11.5 -0.166992 -16.5 -0.5s-10.833 -1.5 -17.5 -3.5c-12 -4 -20.333 -4 -25 0
c-4.66699 3.33301 -6 11 -4 23l12 81h45l-11 -66c8 1.33301 15.333 2 22 2c22.667 0 41.834 -5.83301 57.501 -17.5s23.5 -28.167 23.5 -49.5c0 -24 -10 -43.333 -30 -58s-46.333 -22 -79 -22z" />
    <glyph glyph-name="egrave" unicode="&#xe8;" horiz-adv-x="527" 
d="M291 -8c-74.667 0 -133.501 22.168 -176.501 66.501s-64.5 105.166 -64.5 182.499c0 50 9.66699 94 29 132s46.166 67.667 80.499 89s73.833 32 118.5 32c64.667 0 115 -21 151 -63s54 -99.667 54 -173c0 -18.667 -9.33301 -28 -28 -28h-345
c2 -60 18.5 -106.167 49.5 -138.5s74.167 -48.5 129.5 -48.5c24.667 0 48.5 3.16699 71.5 9.5s45.5 17.833 67.5 34.5c12 8 22.333 9.83301 31 5.5s13.5 -11.333 14.5 -21s-4.16699 -18.5 -15.5 -26.5c-21.333 -17.333 -47.166 -30.5 -77.499 -39.5
s-60.166 -13.5 -89.499 -13.5zM278.999 445.001c-50.667 0 -90.1689 -15.833 -118.502 -47.5s-44.833 -72.5 -49.5 -122.5h317c-1.33301 53.333 -14.666 95 -39.999 125s-61.666 45 -108.999 45zM252.997 554.001l-101.998 164.003c-6 8 -7.66699 15.667 -5 23
s7.5 13 14.5 17s14.5 5 22.5 3s14.333 -7.66699 19 -17l88 -169c4.66699 -8.66699 4.66699 -15.834 0 -21.501s-10.834 -8.83398 -18.501 -9.50098s-13.834 2.66602 -18.501 9.99902z" />
    <glyph glyph-name="eacute" unicode="&#xe9;" horiz-adv-x="527" 
d="M291 -8c-74.667 0 -133.501 22.168 -176.501 66.501s-64.5 105.166 -64.5 182.499c0 50 9.66699 94 29 132s46.166 67.667 80.499 89s73.833 32 118.5 32c64.667 0 115 -21 151 -63s54 -99.667 54 -173c0 -18.667 -9.33301 -28 -28 -28h-345
c2 -60 18.5 -106.167 49.5 -138.5s74.167 -48.5 129.5 -48.5c24.667 0 48.5 3.16699 71.5 9.5s45.5 17.833 67.5 34.5c12 8 22.333 9.83301 31 5.5s13.5 -11.333 14.5 -21s-4.16699 -18.5 -15.5 -26.5c-21.333 -17.333 -47.166 -30.5 -77.499 -39.5
s-60.166 -13.5 -89.499 -13.5zM278.999 445.001c-50.667 0 -90.1689 -15.833 -118.502 -47.5s-44.833 -72.5 -49.5 -122.5h317c-1.33301 53.333 -14.666 95 -39.999 125s-61.666 45 -108.999 45zM304.997 554.001c-4.66699 -7.33301 -10.834 -10.833 -18.501 -10.5
s-13.667 3.5 -18 9.5s-4.5 13.333 -0.5 22l88 169c4.66699 9.33301 11 15 19 17s15.5 1 22.5 -3s11.833 -9.66699 14.5 -17s1.33398 -15 -3.99902 -23z" />
    <glyph glyph-name="ecircumflex" unicode="&#xea;" horiz-adv-x="527" 
d="M291 -8c-74.667 0 -133.501 22.168 -176.501 66.501s-64.5 105.166 -64.5 182.499c0 50 9.66699 94 29 132s46.166 67.667 80.499 89s73.833 32 118.5 32c64.667 0 115 -21 151 -63s54 -99.667 54 -173c0 -18.667 -9.33301 -28 -28 -28h-345
c2 -60 18.5 -106.167 49.5 -138.5s74.167 -48.5 129.5 -48.5c24.667 0 48.5 3.16699 71.5 9.5s45.5 17.833 67.5 34.5c12 8 22.333 9.83301 31 5.5s13.5 -11.333 14.5 -21s-4.16699 -18.5 -15.5 -26.5c-21.333 -17.333 -47.166 -30.5 -77.499 -39.5
s-60.166 -13.5 -89.499 -13.5zM278.999 445.001c-50.667 0 -90.1689 -15.833 -118.502 -47.5s-44.833 -72.5 -49.5 -122.5h317c-1.33301 53.333 -14.666 95 -39.999 125s-61.666 45 -108.999 45zM405.997 575.001c4.66699 -8.66699 4.83008 -16 0.49707 -22
s-10.166 -9.16699 -17.499 -9.5s-13 3.16699 -17 10.5l-93 151l-93 -151c-4 -7.33301 -9.66699 -10.833 -17 -10.5s-13.166 3.5 -17.499 9.5s-4.16602 13.333 0.500977 22l88 161c9.33301 17.333 22.333 26 39 26c17.333 0 30.333 -8.66699 39 -26z" />
    <glyph glyph-name="edieresis" unicode="&#xeb;" horiz-adv-x="527" 
d="M291 -8c-74.667 0 -133.501 22.168 -176.501 66.501s-64.5 105.166 -64.5 182.499c0 50 9.66699 94 29 132s46.166 67.667 80.499 89s73.833 32 118.5 32c64.667 0 115 -21 151 -63s54 -99.667 54 -173c0 -18.667 -9.33301 -28 -28 -28h-345
c2 -60 18.5 -106.167 49.5 -138.5s74.167 -48.5 129.5 -48.5c24.667 0 48.5 3.16699 71.5 9.5s45.5 17.833 67.5 34.5c12 8 22.333 9.83301 31 5.5s13.5 -11.333 14.5 -21s-4.16699 -18.5 -15.5 -26.5c-21.333 -17.333 -47.166 -30.5 -77.499 -39.5
s-60.166 -13.5 -89.499 -13.5zM278.999 445.001c-50.667 0 -90.1689 -15.833 -118.502 -47.5s-44.833 -72.5 -49.5 -122.5h317c-1.33301 53.333 -14.666 95 -39.999 125s-61.666 45 -108.999 45zM362.997 612.001c-26.667 0 -40 13 -40 39c0 26.667 13.333 40 40 40
s40 -13.333 40 -40c0 -26 -13.333 -39 -40 -39zM195.997 612.001c-27.333 0 -41 13 -41 39c0 26.667 13.667 40 41 40c26 0 39 -13.333 39 -40c0 -26 -13 -39 -39 -39z" />
    <glyph glyph-name="igrave" unicode="&#xec;" horiz-adv-x="222" 
d="M111 -4c-20.667 0 -31 11 -31 33v428c0 21.333 10.333 32 31 32c20 0 30 -10.667 30 -32v-428c0 -22 -10 -33 -30 -33zM85 554l-101.998 164.003c-6 8 -7.66699 15.667 -5 23s7.5 13 14.5 17s14.5 5 22.5 3s14.333 -7.66699 19 -17l88 -169
c4.66699 -8.66699 4.66699 -15.834 0 -21.501s-10.834 -8.83398 -18.501 -9.50098s-13.834 2.66602 -18.501 9.99902z" />
    <glyph glyph-name="iacute" unicode="&#xed;" horiz-adv-x="222" 
d="M111 -4c-20.667 0 -31 11 -31 33v428c0 21.333 10.333 32 31 32c20 0 30 -10.667 30 -32v-428c0 -22 -10 -33 -30 -33zM137 554c-4.66699 -7.33301 -10.834 -10.833 -18.501 -10.5s-13.667 3.5 -18 9.5s-4.5 13.333 -0.5 22l88 169c4.66699 9.33301 11 15 19 17
s15.5 1 22.5 -3s11.833 -9.66699 14.5 -17s1.33398 -15 -3.99902 -23z" />
    <glyph glyph-name="icircumflex" unicode="&#xee;" horiz-adv-x="222" 
d="M111 -4c-20.667 0 -31 11 -31 33v428c0 21.333 10.333 32 31 32c20 0 30 -10.667 30 -32v-428c0 -22 -10 -33 -30 -33zM238 575c4.66699 -8.66699 4.83008 -16 0.49707 -22s-10.166 -9.16699 -17.499 -9.5s-13 3.16699 -17 10.5l-93 151l-93 -151
c-4 -7.33301 -9.66699 -10.833 -17 -10.5s-13.166 3.5 -17.499 9.5s-4.16602 13.333 0.500977 22l88 161c9.33301 17.333 22.333 26 39 26c17.333 0 30.333 -8.66699 39 -26z" />
    <glyph glyph-name="idieresis" unicode="&#xef;" horiz-adv-x="222" 
d="M111 -4c-20.667 0 -31 11 -31 33v428c0 21.333 10.333 32 31 32c20 0 30 -10.667 30 -32v-428c0 -22 -10 -33 -30 -33zM195 612c-26.667 0 -40 13 -40 39c0 26.667 13.333 40 40 40s40 -13.333 40 -40c0 -26 -13.333 -39 -40 -39zM28 612c-27.333 0 -41 13 -41 39
c0 26.667 13.667 40 41 40c26 0 39 -13.333 39 -40c0 -26 -13 -39 -39 -39z" />
    <glyph glyph-name="eth" unicode="&#xf0;" horiz-adv-x="550" 
d="M272 -8c-44.667 0 -83.667 9.50098 -117 28.501s-59.166 45.833 -77.499 80.5s-27.5 75.334 -27.5 122.001c0 46 9.16699 86.333 27.5 121s44.166 61.5 77.499 80.5s72.333 28.5 117 28.5c76.667 0 131.667 -30 165 -90
c-15.333 103.333 -63.666 182.666 -144.999 237.999l-139 -59c-11.333 -4.66699 -20.5 -4.5 -27.5 0.5s-10.167 11.833 -9.5 20.5s7 15.667 19 21l109 46c-12.667 6.66699 -25.5 12.5 -38.5 17.5s-26.5 9.83301 -40.5 14.5c-12.667 4 -20 10.167 -22 18.5
s0.166992 15.666 6.5 21.999s16.166 7.5 29.499 3.5c44.667 -13.333 85 -30.333 121 -51l114 48c10.667 5.33301 19.667 5.33301 27 0s10.666 -12.333 9.99902 -21s-6.66699 -15.334 -18 -20.001l-88 -38c50.667 -38.667 89.334 -86.5 116.001 -143.5s40 -122.833 40 -197.5
c0 -95.333 -19.5 -167.666 -58.5 -216.999s-95.833 -74 -170.5 -74zM272 44.001c50.667 0 90.501 16 119.501 48s43.5 75.667 43.5 131s-14.333 98.833 -43 130.5s-68.334 47.5 -119.001 47.5c-50 0 -89.333 -15.833 -118 -47.5s-43 -75.167 -43 -130.5
c0 -56.667 14.167 -100.667 42.5 -132s67.5 -47 117.5 -47z" />
    <glyph glyph-name="ntilde" unicode="&#xf1;" horiz-adv-x="560" 
d="M111 -6c-20.667 0 -31 10.333 -31 31v435c0 21.333 10.333 32 31 32c19.333 0 29 -10.667 29 -32v-62c16 32 39 56 69 72s63.333 24 100 24c115.333 0 173 -62.667 173 -188v-281c0 -20.667 -10 -31 -30 -31c-20.667 0 -31 10.333 -31 31v276
c0 48 -9.66699 83.333 -29 106s-50 34 -92 34c-48 0 -86.5 -14.833 -115.5 -44.5s-43.5 -69.5 -43.5 -119.5v-252c0 -20.667 -10 -31 -30 -31zM127 589c-5.33301 0.666992 -10 3 -14 7s-5 10 -3 18c5.33301 32 16.166 58 32.499 78s38.5 30 66.5 30
c15.333 0 29.333 -4 42 -12s24.5 -17.333 35.5 -28s21.833 -20.167 32.5 -28.5s22 -12.5 34 -12.5c15.333 0 28.166 6.16699 38.499 18.5s17.833 29.5 22.5 51.5c2 11.333 9 17 21 17c5.33301 -0.666992 10 -3 14 -7s5 -10 3 -18c-5.33301 -32 -16.166 -58 -32.499 -78
s-38.5 -30 -66.5 -30c-15.333 0 -29.333 4 -42 12s-24.5 17.333 -35.5 28s-21.833 20.167 -32.5 28.5s-22 12.5 -34 12.5c-15.333 0 -28.166 -6.16699 -38.499 -18.5s-17.833 -29.5 -22.5 -51.5c-2 -11.333 -9 -17 -21 -17z" />
    <glyph glyph-name="ograve" unicode="&#xf2;" horiz-adv-x="547" 
d="M273 -8c-45.333 0 -84.666 10.167 -117.999 30.5s-59.166 49.333 -77.499 87s-27.5 82.167 -27.5 133.5c0 50.667 9.16699 94.834 27.5 132.501s44.166 66.834 77.499 87.501s72.666 31 117.999 31c46 0 85.667 -10.333 119 -31s59.166 -49.834 77.499 -87.501
s27.5 -81.834 27.5 -132.501c0 -51.333 -9.16699 -95.833 -27.5 -133.5s-44.166 -66.667 -77.499 -87s-73 -30.5 -119 -30.5zM273 43c49.333 0 88.666 17.5 117.999 52.5s44 84.167 44 147.5s-14.667 112.333 -44 147s-68.666 52 -117.999 52s-88.5 -17.333 -117.5 -52
s-43.5 -83.667 -43.5 -147s14.5 -112.5 43.5 -147.5s68.167 -52.5 117.5 -52.5zM247 554l-101.998 164.003c-6 8 -7.66699 15.667 -5 23s7.5 13 14.5 17s14.5 5 22.5 3s14.333 -7.66699 19 -17l88 -169c4.66699 -8.66699 4.66699 -15.834 0 -21.501
s-10.834 -8.83398 -18.501 -9.50098s-13.834 2.66602 -18.501 9.99902z" />
    <glyph glyph-name="oacute" unicode="&#xf3;" horiz-adv-x="547" 
d="M273 -8c-45.333 0 -84.666 10.167 -117.999 30.5s-59.166 49.333 -77.499 87s-27.5 82.167 -27.5 133.5c0 50.667 9.16699 94.834 27.5 132.501s44.166 66.834 77.499 87.501s72.666 31 117.999 31c46 0 85.667 -10.333 119 -31s59.166 -49.834 77.499 -87.501
s27.5 -81.834 27.5 -132.501c0 -51.333 -9.16699 -95.833 -27.5 -133.5s-44.166 -66.667 -77.499 -87s-73 -30.5 -119 -30.5zM273 43c49.333 0 88.666 17.5 117.999 52.5s44 84.167 44 147.5s-14.667 112.333 -44 147s-68.666 52 -117.999 52s-88.5 -17.333 -117.5 -52
s-43.5 -83.667 -43.5 -147s14.5 -112.5 43.5 -147.5s68.167 -52.5 117.5 -52.5zM299 554c-4.66699 -7.33301 -10.834 -10.833 -18.501 -10.5s-13.667 3.5 -18 9.5s-4.5 13.333 -0.5 22l88 169c4.66699 9.33301 11 15 19 17s15.5 1 22.5 -3s11.833 -9.66699 14.5 -17
s1.33398 -15 -3.99902 -23z" />
    <glyph glyph-name="ocircumflex" unicode="&#xf4;" horiz-adv-x="547" 
d="M273 -8c-45.333 0 -84.666 10.167 -117.999 30.5s-59.166 49.333 -77.499 87s-27.5 82.167 -27.5 133.5c0 50.667 9.16699 94.834 27.5 132.501s44.166 66.834 77.499 87.501s72.666 31 117.999 31c46 0 85.667 -10.333 119 -31s59.166 -49.834 77.499 -87.501
s27.5 -81.834 27.5 -132.501c0 -51.333 -9.16699 -95.833 -27.5 -133.5s-44.166 -66.667 -77.499 -87s-73 -30.5 -119 -30.5zM273 43c49.333 0 88.666 17.5 117.999 52.5s44 84.167 44 147.5s-14.667 112.333 -44 147s-68.666 52 -117.999 52s-88.5 -17.333 -117.5 -52
s-43.5 -83.667 -43.5 -147s14.5 -112.5 43.5 -147.5s68.167 -52.5 117.5 -52.5zM400 575c4.66699 -8.66699 4.83008 -16 0.49707 -22s-10.166 -9.16699 -17.499 -9.5s-13 3.16699 -17 10.5l-93 151l-93 -151c-4 -7.33301 -9.66699 -10.833 -17 -10.5
s-13.166 3.5 -17.499 9.5s-4.16602 13.333 0.500977 22l88 161c9.33301 17.333 22.333 26 39 26c17.333 0 30.333 -8.66699 39 -26z" />
    <glyph glyph-name="otilde" unicode="&#xf5;" horiz-adv-x="547" 
d="M273 -8c-45.333 0 -84.666 10.167 -117.999 30.5s-59.166 49.333 -77.499 87s-27.5 82.167 -27.5 133.5c0 50.667 9.16699 94.834 27.5 132.501s44.166 66.834 77.499 87.501s72.666 31 117.999 31c46 0 85.667 -10.333 119 -31s59.166 -49.834 77.499 -87.501
s27.5 -81.834 27.5 -132.501c0 -51.333 -9.16699 -95.833 -27.5 -133.5s-44.166 -66.667 -77.499 -87s-73 -30.5 -119 -30.5zM273 43c49.333 0 88.666 17.5 117.999 52.5s44 84.167 44 147.5s-14.667 112.333 -44 147s-68.666 52 -117.999 52s-88.5 -17.333 -117.5 -52
s-43.5 -83.667 -43.5 -147s14.5 -112.5 43.5 -147.5s68.167 -52.5 117.5 -52.5zM119 589c-5.33301 0.666992 -10 3 -14 7s-5 10 -3 18c5.33301 32 16.166 58 32.499 78s38.5 30 66.5 30c15.333 0 29.333 -4 42 -12s24.5 -17.333 35.5 -28s21.833 -20.167 32.5 -28.5
s22 -12.5 34 -12.5c15.333 0 28.166 6.16699 38.499 18.5s17.833 29.5 22.5 51.5c2 11.333 9 17 21 17c5.33301 -0.666992 10 -3 14 -7s5 -10 3 -18c-5.33301 -32 -16.166 -58 -32.499 -78s-38.5 -30 -66.5 -30c-15.333 0 -29.333 4 -42 12s-24.5 17.333 -35.5 28
s-21.833 20.167 -32.5 28.5s-22 12.5 -34 12.5c-15.333 0 -28.166 -6.16699 -38.499 -18.5s-17.833 -29.5 -22.5 -51.5c-2 -11.333 -9 -17 -21 -17z" />
    <glyph glyph-name="odieresis" unicode="&#xf6;" horiz-adv-x="547" 
d="M273 -8c-45.333 0 -84.666 10.167 -117.999 30.5s-59.166 49.333 -77.499 87s-27.5 82.167 -27.5 133.5c0 50.667 9.16699 94.834 27.5 132.501s44.166 66.834 77.499 87.501s72.666 31 117.999 31c46 0 85.667 -10.333 119 -31s59.166 -49.834 77.499 -87.501
s27.5 -81.834 27.5 -132.501c0 -51.333 -9.16699 -95.833 -27.5 -133.5s-44.166 -66.667 -77.499 -87s-73 -30.5 -119 -30.5zM273 43c49.333 0 88.666 17.5 117.999 52.5s44 84.167 44 147.5s-14.667 112.333 -44 147s-68.666 52 -117.999 52s-88.5 -17.333 -117.5 -52
s-43.5 -83.667 -43.5 -147s14.5 -112.5 43.5 -147.5s68.167 -52.5 117.5 -52.5zM357 612c-26.667 0 -40 13 -40 39c0 26.667 13.333 40 40 40s40 -13.333 40 -40c0 -26 -13.333 -39 -40 -39zM190 612c-27.333 0 -41 13 -41 39c0 26.667 13.667 40 41 40
c26 0 39 -13.333 39 -40c0 -26 -13 -39 -39 -39z" />
    <glyph glyph-name="divide" unicode="&#xf7;" horiz-adv-x="600" 
d="M294 447c-26.667 0 -40 13 -40 39c0 26.667 13.333 40 40 40s40 -13.333 40 -40c0 -26 -13.333 -39 -40 -39zM76 262c-17.333 0 -26 8.33301 -26 25s8.66699 25 26 25h448c17.333 0 26 -8.33301 26 -25s-8.66699 -25 -26 -25h-448zM294 47c-26.667 0 -40 13.333 -40 40
c0 26 13.333 39 40 39s40 -13 40 -39c0 -26.667 -13.333 -40 -40 -40z" />
    <glyph glyph-name="oslash" unicode="&#xf8;" horiz-adv-x="547" 
d="M143 -28c-5.33301 -8.66699 -12.167 -12.6689 -20.5 -12.002s-14.666 4.5 -18.999 11.5s-3.5 15.5 2.5 25.5l24 43c-25.333 22 -45 50.167 -59 84.5s-21 73.833 -21 118.5c0 50.667 9.16699 94.834 27.5 132.501s44.166 66.834 77.499 87.501s72.666 31 117.999 31
c39.333 0 74.666 -8 105.999 -24l25 43c5.33301 9.33301 12 13.5 20 12.5s14.333 -5 19 -12s4.33398 -15.5 -0.999023 -25.5l-25 -43c25.333 -22 45 -50.167 59 -84.5s21 -73.5 21 -117.5c0 -51.333 -9.16699 -95.833 -27.5 -133.5s-44.166 -66.667 -77.499 -87
s-73 -30.5 -119 -30.5c-38.667 0 -73.667 7.66699 -105 23zM111.999 242.998c0 -66 16 -116.667 48 -152l192 332c-22.667 12.667 -49 19 -79 19c-49.333 0 -88.5 -17.333 -117.5 -52s-43.5 -83.667 -43.5 -147zM272.999 42.998c49.333 0 88.667 17.501 118 52.501
s44 84.167 44 147.5c0 65.333 -16 115.666 -48 150.999l-192 -332c22.667 -12.667 48.667 -19 78 -19z" />
    <glyph glyph-name="ugrave" unicode="&#xf9;" horiz-adv-x="553" 
d="M251 -8c-115.333 0 -173 62.667 -173 188v280c0 21.333 10.333 32 31 32c20 0 30 -10.667 30 -32v-277c0 -47.333 9.66699 -82.333 29 -105s49.666 -34 90.999 -34c44.667 0 81.167 15 109.5 45s42.5 70 42.5 120v251c0 21.333 10.333 32 31 32c20 0 30 -10.667 30 -32
v-435c0 -20.667 -9.66699 -31 -29 -31c-20 0 -30 10.333 -30 31v61c-16 -30.667 -38.167 -54 -66.5 -70s-60.166 -24 -95.499 -24zM251 555l-101.998 164.003c-6 8 -7.66699 15.667 -5 23s7.5 13 14.5 17s14.5 5 22.5 3s14.333 -7.66699 19 -17l88 -169
c4.66699 -8.66699 4.66699 -15.834 0 -21.501s-10.834 -8.83398 -18.501 -9.50098s-13.834 2.66602 -18.501 9.99902z" />
    <glyph glyph-name="uacute" unicode="&#xfa;" horiz-adv-x="553" 
d="M251 -8c-115.333 0 -173 62.667 -173 188v280c0 21.333 10.333 32 31 32c20 0 30 -10.667 30 -32v-277c0 -47.333 9.66699 -82.333 29 -105s49.666 -34 90.999 -34c44.667 0 81.167 15 109.5 45s42.5 70 42.5 120v251c0 21.333 10.333 32 31 32c20 0 30 -10.667 30 -32
v-435c0 -20.667 -9.66699 -31 -29 -31c-20 0 -30 10.333 -30 31v61c-16 -30.667 -38.167 -54 -66.5 -70s-60.166 -24 -95.499 -24zM303 555c-4.66699 -7.33301 -10.834 -10.833 -18.501 -10.5s-13.667 3.5 -18 9.5s-4.5 13.333 -0.5 22l88 169c4.66699 9.33301 11 15 19 17
s15.5 1 22.5 -3s11.833 -9.66699 14.5 -17s1.33398 -15 -3.99902 -23z" />
    <glyph glyph-name="ucircumflex" unicode="&#xfb;" horiz-adv-x="553" 
d="M251 -8c-115.333 0 -173 62.667 -173 188v280c0 21.333 10.333 32 31 32c20 0 30 -10.667 30 -32v-277c0 -47.333 9.66699 -82.333 29 -105s49.666 -34 90.999 -34c44.667 0 81.167 15 109.5 45s42.5 70 42.5 120v251c0 21.333 10.333 32 31 32c20 0 30 -10.667 30 -32
v-435c0 -20.667 -9.66699 -31 -29 -31c-20 0 -30 10.333 -30 31v61c-16 -30.667 -38.167 -54 -66.5 -70s-60.166 -24 -95.499 -24zM404 576c4.66699 -8.66699 4.83008 -16 0.49707 -22s-10.166 -9.16699 -17.499 -9.5s-13 3.16699 -17 10.5l-93 151l-93 -151
c-4 -7.33301 -9.66699 -10.833 -17 -10.5s-13.166 3.5 -17.499 9.5s-4.16602 13.333 0.500977 22l88 161c9.33301 17.333 22.333 26 39 26c17.333 0 30.333 -8.66699 39 -26z" />
    <glyph glyph-name="udieresis" unicode="&#xfc;" horiz-adv-x="553" 
d="M251 -8c-115.333 0 -173 62.667 -173 188v280c0 21.333 10.333 32 31 32c20 0 30 -10.667 30 -32v-277c0 -47.333 9.66699 -82.333 29 -105s49.666 -34 90.999 -34c44.667 0 81.167 15 109.5 45s42.5 70 42.5 120v251c0 21.333 10.333 32 31 32c20 0 30 -10.667 30 -32
v-435c0 -20.667 -9.66699 -31 -29 -31c-20 0 -30 10.333 -30 31v61c-16 -30.667 -38.167 -54 -66.5 -70s-60.166 -24 -95.499 -24zM361 613c-26.667 0 -40 13 -40 39c0 26.667 13.333 40 40 40s40 -13.333 40 -40c0 -26 -13.333 -39 -40 -39zM194 613
c-27.333 0 -41 13 -41 39c0 26.667 13.667 40 41 40c26 0 39 -13.333 39 -40c0 -26 -13 -39 -39 -39z" />
    <glyph glyph-name="yacute" unicode="&#xfd;" horiz-adv-x="509" 
d="M182 -186c-12.667 0 -20.8359 4.49902 -24.5029 13.499s-3.16699 19.5 1.5 31.5l63 143l-190 444c-5.33301 12 -5.66602 22.667 -0.999023 32s14 14 28 14s24.333 -8.33301 31 -25l165 -400l166 400c4 9.33301 8.33301 15.833 13 19.5s11.334 5.5 20.001 5.5
c12.667 0 20.834 -4.66699 24.501 -14s3.16699 -19.666 -1.5 -30.999l-261 -609c-8 -16 -19.333 -24 -34 -24zM280.998 553.999c-4.66699 -7.33301 -10.834 -10.833 -18.501 -10.5s-13.667 3.5 -18 9.5s-4.5 13.333 -0.5 22l88 169c4.66699 9.33301 11 15 19 17
s15.5 1 22.5 -3s11.833 -9.66699 14.5 -17s1.33398 -15 -3.99902 -23z" />
    <glyph glyph-name="thorn" unicode="&#xfe;" horiz-adv-x="575" 
d="M111 -186c-20.667 0 -31 10.3311 -31 30.998v835c0 20.667 10.333 31 31 31c20 0 30 -10.333 30 -31v-285c14.667 30.667 36.834 54.834 66.501 72.501s64.167 26.5 103.5 26.5c43.333 0 81.166 -10.333 113.499 -31s57.333 -49.667 75 -87s26.5 -81.666 26.5 -132.999
s-8.83301 -95.833 -26.5 -133.5s-42.667 -66.667 -75 -87s-70.166 -30.5 -113.499 -30.5c-39.333 0 -73.833 8.66699 -103.5 26s-51.834 41.333 -66.501 72v-245c0 -20.667 -10 -31 -30 -31zM302 42.998c49.333 0 88.666 17.5 117.999 52.5s44 84.167 44 147.5
s-14.667 112.333 -44 147s-68.666 52 -117.999 52s-88.666 -17.333 -117.999 -52s-44 -83.667 -44 -147s14.667 -112.5 44 -147.5s68.666 -52.5 117.999 -52.5z" />
    <glyph glyph-name="ydieresis" unicode="&#xff;" horiz-adv-x="509" 
d="M182 -186c-12.667 0 -20.8359 4.49902 -24.5029 13.499s-3.16699 19.5 1.5 31.5l63 143l-190 444c-5.33301 12 -5.66602 22.667 -0.999023 32s14 14 28 14s24.333 -8.33301 31 -25l165 -400l166 400c4 9.33301 8.33301 15.833 13 19.5s11.334 5.5 20.001 5.5
c12.667 0 20.834 -4.66699 24.501 -14s3.16699 -19.666 -1.5 -30.999l-261 -609c-8 -16 -19.333 -24 -34 -24zM338.998 611.999c-26.667 0 -40 13 -40 39c0 26.667 13.333 40 40 40s40 -13.333 40 -40c0 -26 -13.333 -39 -40 -39zM171.998 611.999c-27.333 0 -41 13 -41 39
c0 26.667 13.667 40 41 40c26 0 39 -13.333 39 -40c0 -26 -13 -39 -39 -39z" />
    <glyph glyph-name="Amacron" unicode="&#x100;" horiz-adv-x="722" 
d="M67 -6c-13.333 0 -21.999 4.16699 -25.999 12.5s-3.33301 18.5 2 30.5l281 646c8 18.667 20.333 28 37 28s29 -9.33301 37 -28l281 -646c6 -12 7.16699 -22.167 3.5 -30.5s-11.834 -12.5 -24.501 -12.5c-9.33301 0 -16.833 2.5 -22.5 7.5s-10.5 11.833 -14.5 20.5
l-71 166h-378l-71 -166c-8 -18.667 -19.333 -28 -34 -28zM360.001 629l-165 -388h332l-165 388h-2zM227.001 818c-16.667 0 -25 7.66699 -25 23c0 16 8.33301 24 25 24h270c16.667 0 25 -8 25 -24c0 -15.333 -8.33301 -23 -25 -23h-270z" />
    <glyph glyph-name="amacron" unicode="&#x101;" horiz-adv-x="522" 
d="M230 -8c-32.667 0 -61.832 6.33691 -87.499 19.0039s-46 30 -61 52s-22.5 46.667 -22.5 74c0 36 9 64.167 27 84.5s48.333 34.833 91 43.5s101.334 13 176.001 13h31v36c0 44.667 -9 77.167 -27 97.5s-46.667 30.5 -86 30.5c-25.333 0 -50 -3.33301 -74 -10
s-49 -17.334 -75 -32.001c-12 -6.66699 -21.5 -6.83398 -28.5 -0.500977s-10.333 14.666 -10 24.999s5.83301 18.166 16.5 23.499c27.333 15.333 55.666 26.833 84.999 34.5s57.666 11.5 84.999 11.5c58.667 0 102.167 -15 130.5 -45s42.5 -76 42.5 -138v-286
c0 -20.667 -9.33301 -31 -28 -31c-20 0 -30 10.333 -30 31v62c-13.333 -30 -33.5 -53.333 -60.5 -70s-58.5 -25 -94.5 -25zM238.002 41.0039c28.667 0 53.832 6.83105 75.499 20.498s38.834 32.5 51.501 56.5s19 51.333 19 82v33h-30c-60 0 -106.833 -2.66699 -140.5 -8
s-57.167 -14.666 -70.5 -27.999s-20 -31.666 -20 -54.999c0 -30 10.333 -54.333 31 -73s48.667 -28 84 -28zM148 629.002c-16.667 0 -25 7.66699 -25 23s8.33301 23 25 23h240c16.667 0 25 -7.66699 25 -23s-8.33301 -23 -25 -23h-240z" />
    <glyph glyph-name="Abreve" unicode="&#x102;" horiz-adv-x="722" 
d="M67 -6c-13.333 0 -21.999 4.16699 -25.999 12.5s-3.33301 18.5 2 30.5l281 646c8 18.667 20.333 28 37 28s29 -9.33301 37 -28l281 -646c6 -12 7.16699 -22.167 3.5 -30.5s-11.834 -12.5 -24.501 -12.5c-9.33301 0 -16.833 2.5 -22.5 7.5s-10.5 11.833 -14.5 20.5
l-71 166h-378l-71 -166c-8 -18.667 -19.333 -28 -34 -28zM360.001 629l-165 -388h332l-165 388h-2zM362.001 760c-38 0 -72.0029 11.833 -102.003 35.5s-49.667 61.167 -59 112.5c-1.33301 8 0 14.333 4 19s9 7.33398 15 8.00098c12.667 0.666992 20.334 -6 23.001 -20
c6.66699 -40.667 21.5 -69.167 44.5 -85.5s47.833 -24.5 74.5 -24.5s51.334 8.16699 74.001 24.5s37.667 44.833 45 85.5c2.66699 14 10.334 20.667 23.001 20c6 -0.666992 11 -3.33398 15 -8.00098s5.33301 -11 4 -19c-10 -51.333 -29.833 -88.833 -59.5 -112.5
s-63.5 -35.5 -101.5 -35.5z" />
    <glyph glyph-name="abreve" unicode="&#x103;" horiz-adv-x="522" 
d="M230 -8c-32.667 0 -61.832 6.33691 -87.499 19.0039s-46 30 -61 52s-22.5 46.667 -22.5 74c0 36 9 64.167 27 84.5s48.333 34.833 91 43.5s101.334 13 176.001 13h31v36c0 44.667 -9 77.167 -27 97.5s-46.667 30.5 -86 30.5c-25.333 0 -50 -3.33301 -74 -10
s-49 -17.334 -75 -32.001c-12 -6.66699 -21.5 -6.83398 -28.5 -0.500977s-10.333 14.666 -10 24.999s5.83301 18.166 16.5 23.499c27.333 15.333 55.666 26.833 84.999 34.5s57.666 11.5 84.999 11.5c58.667 0 102.167 -15 130.5 -45s42.5 -76 42.5 -138v-286
c0 -20.667 -9.33301 -31 -28 -31c-20 0 -30 10.333 -30 31v62c-13.333 -30 -33.5 -53.333 -60.5 -70s-58.5 -25 -94.5 -25zM238.002 41.0039c28.667 0 53.832 6.83105 75.499 20.498s38.834 32.5 51.501 56.5s19 51.333 19 82v33h-30c-60 0 -106.833 -2.66699 -140.5 -8
s-57.167 -14.666 -70.5 -27.999s-20 -31.666 -20 -54.999c0 -30 10.333 -54.333 31 -73s48.667 -28 84 -28zM268 548.002c-40.667 0 -73.999 14.833 -99.999 44.5s-42 71.167 -48 124.5c-0.666992 8 1.16602 14.333 5.49902 19s9.5 7 15.5 7c12.667 0 20 -7 22 -21
c4.66699 -42.667 16.167 -74.834 34.5 -96.501s41.833 -32.5 70.5 -32.5s52.5 10.833 71.5 32.5s30.167 53.834 33.5 96.501c2 14 9.33301 21 22 21c6 0 11.167 -2.33301 15.5 -7s6.16602 -11 5.49902 -19c-5.33301 -53.333 -21.166 -94.833 -47.499 -124.5
s-59.833 -44.5 -100.5 -44.5z" />
    <glyph glyph-name="Aogonek" unicode="&#x104;" horiz-adv-x="722" 
d="M669 -191c-29.333 0 -53.167 8.50098 -71.5 25.501s-27.5 40.167 -27.5 69.5c0 20 5 39.5 15 58.5s23.667 35.833 41 50.5c-1.33301 2 -3 5 -5 9l-71 166h-378l-71 -166c-8 -18.667 -19.333 -28 -34 -28c-13.333 0 -22 4.16699 -26 12.5s-3.33301 18.5 2 30.5l281 646
c8 18.667 20.333 28 37 28s29 -9.33301 37 -28l281 -646c8.66699 -19.333 6.66699 -32.666 -6 -39.999c-6 -4 -13.333 -10 -22 -18s-16.334 -17.833 -23.001 -29.5s-10 -24.834 -10 -39.501c0 -20 5.66699 -34.667 17 -44s25.333 -14 42 -14c6.66699 0 13 0.5 19 1.5
s12 2.5 18 4.5c10.667 3.33301 18.167 2.16602 22.5 -3.50098s5.5 -12.5 3.5 -20.5s-6.66699 -13.333 -14 -16c-10 -4 -19.667 -6.5 -29 -7.5s-18.666 -1.5 -27.999 -1.5zM359.999 629.001l-165 -388h332l-165 388h-2z" />
    <glyph glyph-name="aogonek" unicode="&#x105;" horiz-adv-x="522" 
d="M417 -191c-29.333 0 -53.165 8.50488 -71.498 25.5049s-27.5 40.167 -27.5 69.5c0 21.333 6 42.166 18 62.499s28.667 37.833 50 52.5c-0.666992 2 -1 4.66699 -1 8v60c-13.333 -30 -33.5 -53.333 -60.5 -70s-58.5 -25 -94.5 -25c-32.667 0 -61.834 6.33301 -87.501 19
s-46 30 -61 52s-22.5 46.667 -22.5 74c0 36 9 64.167 27 84.5s48.333 34.833 91 43.5s101.334 13 176.001 13h31v36c0 44.667 -9 77.167 -27 97.5s-46.667 30.5 -86 30.5c-25.333 0 -50 -3.33301 -74 -10s-49 -17.334 -75 -32.001
c-12 -6.66699 -21.5 -6.83398 -28.5 -0.500977s-10.333 14.666 -10 24.999s5.83301 18.166 16.5 23.499c27.333 15.333 55.666 26.833 84.999 34.5s57.666 11.5 84.999 11.5c58.667 0 102.167 -15 130.5 -45s42.5 -76 42.5 -138v-286c0 -14.667 -6 -25 -18 -31
c-14.667 -8 -28.167 -19.167 -40.5 -33.5s-18.5 -31.166 -18.5 -50.499c0 -20 5.83301 -34.667 17.5 -44s25.5 -14 41.5 -14c6.66699 0 13 0.5 19 1.5s12 2.5 18 4.5c10.667 3.33301 18.167 2.16602 22.5 -3.50098s5.66602 -12.5 3.99902 -20.5s-6.5 -13.333 -14.5 -16
c-9.33301 -4 -18.666 -6.5 -27.999 -7.5s-19 -1.5 -29 -1.5zM238.001 41.0049c28.667 0 53.832 6.83105 75.499 20.498s38.834 32.5 51.501 56.5s19 51.333 19 82v33h-30c-60 0 -106.833 -2.66699 -140.5 -8s-57.167 -14.666 -70.5 -27.999s-20 -31.666 -20 -54.999
c0 -30 10.333 -54.333 31 -73s48.667 -28 84 -28z" />
    <glyph glyph-name="Cacute" unicode="&#x106;" horiz-adv-x="670" 
d="M386 -8c-67.333 0 -125.001 14.5039 -173.001 43.5039s-84.833 70.5 -110.5 124.5s-38.5 118.333 -38.5 193c0 74 12.833 138 38.5 192s62.5 95.5 110.5 124.5s105.667 43.5 173 43.5c44 0 85 -6.5 123 -19.5s70.667 -31.5 98 -55.5
c11.333 -9.33301 16.333 -19.5 15 -30.5s-6.66602 -18.833 -15.999 -23.5s-20 -2.33398 -32 6.99902c-50.667 43.333 -113 65 -187 65c-82.667 0 -146.167 -26.5 -190.5 -79.5s-66.5 -127.5 -66.5 -223.5c0 -96.667 22.167 -171.5 66.5 -224.5s107.833 -79.5 190.5 -79.5
c73.333 0 136 22 188 66c12 9.33301 22.5 11.666 31.5 6.99902s14.333 -12.334 16 -23.001s-2.5 -20.334 -12.5 -29.001c-58 -52 -132.667 -78 -224 -78zM411.999 769.004c-6 -7.33301 -12.666 -10.333 -19.999 -9s-12.833 5 -16.5 11s-2.83398 13 2.49902 21l94 136
c8 12 17.5 17.167 28.5 15.5s19 -7 24 -16s3.16699 -18.5 -5.5 -28.5z" />
    <glyph glyph-name="cacute" unicode="&#x107;" horiz-adv-x="459" 
d="M278 -8c-47.333 0 -88.001 10.5 -122.001 31.5s-60.167 50.667 -78.5 89s-27.5 82.833 -27.5 133.5c0 76.667 20.167 137.167 60.5 181.5s96.166 66.5 167.499 66.5c24.667 0 50.167 -4.33301 76.5 -13s49.833 -22.334 70.5 -41.001c8.66699 -6.66699 12 -14.667 10 -24
s-7.16699 -16.166 -15.5 -20.499s-17.5 -2.5 -27.5 5.5c-18.667 15.333 -37.667 25.833 -57 31.5s-37.666 8.5 -54.999 8.5c-54 0 -95.5 -17 -124.5 -51s-43.5 -82.333 -43.5 -145s14.5 -111.834 43.5 -147.501s70.5 -53.5 124.5 -53.5c17.333 0 35.666 2.83301 54.999 8.5
s38.333 16.167 57 31.5c10.667 8 19.834 9.83301 27.501 5.5s12.334 -11.166 14.001 -20.499s-1.5 -17.333 -9.5 -24c-20.667 -18.667 -44 -32.167 -70 -40.5s-51.333 -12.5 -76 -12.5zM301.999 554c-4.66699 -7.33301 -10.834 -10.833 -18.501 -10.5s-13.667 3.5 -18 9.5
s-4.5 13.333 -0.5 22l88 169c4.66699 9.33301 11 15 19 17s15.5 1 22.5 -3s11.833 -9.66699 14.5 -17s1.33398 -15 -3.99902 -23z" />
    <glyph glyph-name="Ccircumflex" unicode="&#x108;" horiz-adv-x="670" 
d="M386 -8c-67.333 0 -125.001 14.5039 -173.001 43.5039s-84.833 70.5 -110.5 124.5s-38.5 118.333 -38.5 193c0 74 12.833 138 38.5 192s62.5 95.5 110.5 124.5s105.667 43.5 173 43.5c44 0 85 -6.5 123 -19.5s70.667 -31.5 98 -55.5
c11.333 -9.33301 16.333 -19.5 15 -30.5s-6.66602 -18.833 -15.999 -23.5s-20 -2.33398 -32 6.99902c-50.667 43.333 -113 65 -187 65c-82.667 0 -146.167 -26.5 -190.5 -79.5s-66.5 -127.5 -66.5 -223.5c0 -96.667 22.167 -171.5 66.5 -224.5s107.833 -79.5 190.5 -79.5
c73.333 0 136 22 188 66c12 9.33301 22.5 11.666 31.5 6.99902s14.333 -12.334 16 -23.001s-2.5 -20.334 -12.5 -29.001c-58 -52 -132.667 -78 -224 -78zM281.999 767.004c-6 -7.33301 -12.833 -10.5 -20.5 -9.5s-13.167 4.5 -16.5 10.5s-2.33301 12.667 3 20l95 133
c5.33301 8 11.5 13.667 18.5 17s14.5 5 22.5 5s15.5 -1.66699 22.5 -5s13.5 -9 19.5 -17l94 -133c6 -7.33301 7.16699 -14 3.5 -20s-9.16699 -9.5 -16.5 -10.5s-14.333 2.16699 -21 9.5l-102 124z" />
    <glyph glyph-name="ccircumflex" unicode="&#x109;" horiz-adv-x="459" 
d="M278 -8c-47.333 0 -88.001 10.5 -122.001 31.5s-60.167 50.667 -78.5 89s-27.5 82.833 -27.5 133.5c0 76.667 20.167 137.167 60.5 181.5s96.166 66.5 167.499 66.5c24.667 0 50.167 -4.33301 76.5 -13s49.833 -22.334 70.5 -41.001c8.66699 -6.66699 12 -14.667 10 -24
s-7.16699 -16.166 -15.5 -20.499s-17.5 -2.5 -27.5 5.5c-18.667 15.333 -37.667 25.833 -57 31.5s-37.666 8.5 -54.999 8.5c-54 0 -95.5 -17 -124.5 -51s-43.5 -82.333 -43.5 -145s14.5 -111.834 43.5 -147.501s70.5 -53.5 124.5 -53.5c17.333 0 35.666 2.83301 54.999 8.5
s38.333 16.167 57 31.5c10.667 8 19.834 9.83301 27.501 5.5s12.334 -11.166 14.001 -20.499s-1.5 -17.333 -9.5 -24c-20.667 -18.667 -44 -32.167 -70 -40.5s-51.333 -12.5 -76 -12.5zM402.999 575c4.66699 -8.66699 4.83008 -16 0.49707 -22
s-10.166 -9.16699 -17.499 -9.5s-13 3.16699 -17 10.5l-93 151l-93 -151c-4 -7.33301 -9.66699 -10.833 -17 -10.5s-13.166 3.5 -17.499 9.5s-4.16602 13.333 0.500977 22l88 161c9.33301 17.333 22.333 26 39 26c17.333 0 30.333 -8.66699 39 -26z" />
    <glyph glyph-name="Cdotaccent" unicode="&#x10a;" horiz-adv-x="670" 
d="M386 -8c-67.333 0 -125.001 14.5039 -173.001 43.5039s-84.833 70.5 -110.5 124.5s-38.5 118.333 -38.5 193c0 74 12.833 138 38.5 192s62.5 95.5 110.5 124.5s105.667 43.5 173 43.5c44 0 85 -6.5 123 -19.5s70.667 -31.5 98 -55.5
c11.333 -9.33301 16.333 -19.5 15 -30.5s-6.66602 -18.833 -15.999 -23.5s-20 -2.33398 -32 6.99902c-50.667 43.333 -113 65 -187 65c-82.667 0 -146.167 -26.5 -190.5 -79.5s-66.5 -127.5 -66.5 -223.5c0 -96.667 22.167 -171.5 66.5 -224.5s107.833 -79.5 190.5 -79.5
c73.333 0 136 22 188 66c12 9.33301 22.5 11.666 31.5 6.99902s14.333 -12.334 16 -23.001s-2.5 -20.334 -12.5 -29.001c-58 -52 -132.667 -78 -224 -78zM383.999 809.004c-27.333 0 -41 13.667 -41 41s13.667 41 41 41s41 -13.667 41 -41s-13.667 -41 -41 -41z" />
    <glyph glyph-name="cdotaccent" unicode="&#x10b;" horiz-adv-x="459" 
d="M278 -8c-47.333 0 -88.001 10.5 -122.001 31.5s-60.167 50.667 -78.5 89s-27.5 82.833 -27.5 133.5c0 76.667 20.167 137.167 60.5 181.5s96.166 66.5 167.499 66.5c24.667 0 50.167 -4.33301 76.5 -13s49.833 -22.334 70.5 -41.001c8.66699 -6.66699 12 -14.667 10 -24
s-7.16699 -16.166 -15.5 -20.499s-17.5 -2.5 -27.5 5.5c-18.667 15.333 -37.667 25.833 -57 31.5s-37.666 8.5 -54.999 8.5c-54 0 -95.5 -17 -124.5 -51s-43.5 -82.333 -43.5 -145s14.5 -111.834 43.5 -147.501s70.5 -53.5 124.5 -53.5c17.333 0 35.666 2.83301 54.999 8.5
s38.333 16.167 57 31.5c10.667 8 19.834 9.83301 27.501 5.5s12.334 -11.166 14.001 -20.499s-1.5 -17.333 -9.5 -24c-20.667 -18.667 -44 -32.167 -70 -40.5s-51.333 -12.5 -76 -12.5zM275.999 611c-28 0 -42 13.667 -42 41s14 41 42 41s42 -13.667 42 -41s-14 -41 -42 -41
z" />
    <glyph glyph-name="Ccaron" unicode="&#x10c;" horiz-adv-x="670" 
d="M386 -8c-67.333 0 -125.001 14.5039 -173.001 43.5039s-84.833 70.5 -110.5 124.5s-38.5 118.333 -38.5 193c0 74 12.833 138 38.5 192s62.5 95.5 110.5 124.5s105.667 43.5 173 43.5c44 0 85 -6.5 123 -19.5s70.667 -31.5 98 -55.5
c11.333 -9.33301 16.333 -19.5 15 -30.5s-6.66602 -18.833 -15.999 -23.5s-20 -2.33398 -32 6.99902c-50.667 43.333 -113 65 -187 65c-82.667 0 -146.167 -26.5 -190.5 -79.5s-66.5 -127.5 -66.5 -223.5c0 -96.667 22.167 -171.5 66.5 -224.5s107.833 -79.5 190.5 -79.5
c73.333 0 136 22 188 66c12 9.33301 22.5 11.666 31.5 6.99902s14.333 -12.334 16 -23.001s-2.5 -20.334 -12.5 -29.001c-58 -52 -132.667 -78 -224 -78zM383.999 757.004c-8 0 -15.5 1.66699 -22.5 5s-13.167 9 -18.5 17l-95 133c-5.33301 8 -6.33301 15 -3 21
s8.83301 9.33301 16.5 10s14.5 -2.66602 20.5 -9.99902l102 -123l102 123c6 7.33301 12.833 10.666 20.5 9.99902s13.167 -4 16.5 -10s2.33301 -13 -3 -21l-94 -133c-6 -8 -12.5 -13.667 -19.5 -17s-14.5 -5 -22.5 -5z" />
    <glyph glyph-name="ccaron" unicode="&#x10d;" horiz-adv-x="459" 
d="M278 -8c-47.333 0 -88.001 10.5 -122.001 31.5s-60.167 50.667 -78.5 89s-27.5 82.833 -27.5 133.5c0 76.667 20.167 137.167 60.5 181.5s96.166 66.5 167.499 66.5c24.667 0 50.167 -4.33301 76.5 -13s49.833 -22.334 70.5 -41.001c8.66699 -6.66699 12 -14.667 10 -24
s-7.16699 -16.166 -15.5 -20.499s-17.5 -2.5 -27.5 5.5c-18.667 15.333 -37.667 25.833 -57 31.5s-37.666 8.5 -54.999 8.5c-54 0 -95.5 -17 -124.5 -51s-43.5 -82.333 -43.5 -145s14.5 -111.834 43.5 -147.501s70.5 -53.5 124.5 -53.5c17.333 0 35.666 2.83301 54.999 8.5
s38.333 16.167 57 31.5c10.667 8 19.834 9.83301 27.501 5.5s12.334 -11.166 14.001 -20.499s-1.5 -17.333 -9.5 -24c-20.667 -18.667 -44 -32.167 -70 -40.5s-51.333 -12.5 -76 -12.5zM275.999 539c-16.667 0 -29.6631 8.66699 -38.9961 26l-88 161
c-4.66699 8.66699 -4.83398 16 -0.500977 22s10.166 9.16699 17.499 9.5s13 -3.16699 17 -10.5l93 -151l93 151c4 7.33301 9.66699 10.833 17 10.5s13.166 -3.5 17.499 -9.5s4.16602 -13.333 -0.500977 -22l-88 -161c-9.33301 -17.333 -22.333 -26 -39 -26z" />
    <glyph glyph-name="Dcaron" unicode="&#x10e;" horiz-adv-x="733" 
d="M126 0c-22.667 0 -34 11.667 -34 35v635c0 23.333 11.333 35 34 35h193c112 0 198.5 -30 259.5 -90s91.5 -147.333 91.5 -262s-30.5 -202.167 -91.5 -262.5s-147.5 -90.5 -259.5 -90.5h-193zM153 54h161c193.333 0 290 99.667 290 299c0 198.667 -96.667 298 -290 298
h-161v-597zM366 757c-8 0 -15.5 1.66699 -22.5 5s-13.167 9 -18.5 17l-95 133c-5.33301 8 -6.33301 15 -3 21s8.83301 9.33301 16.5 10s14.5 -2.66602 20.5 -9.99902l102 -123l102 123c6 7.33301 12.833 10.666 20.5 9.99902s13.167 -4 16.5 -10s2.33301 -13 -3 -21
l-94 -133c-6 -8 -12.5 -13.667 -19.5 -17s-14.5 -5 -22.5 -5z" />
    <glyph glyph-name="dcaron" unicode="&#x10f;" horiz-adv-x="575" 
d="M265 -8c-44 0 -82 10.1689 -114 30.502s-56.833 49.333 -74.5 87s-26.5 82.167 -26.5 133.5c0 76.667 19.333 137.667 58 183s91 68 157 68c38.667 0 72.834 -8.83301 102.501 -26.5s51.834 -41.834 66.501 -72.501v285c0 20.667 10 31 30 31c20.667 0 31 -10.333 31 -31
v-655c0 -20.667 -10 -31 -30 -31c-20.667 0 -31 10.333 -31 31v66c-14.667 -30.667 -36.834 -54.834 -66.501 -72.501s-63.834 -26.5 -102.501 -26.5zM273 43.002c49.333 0 88.666 17.5 117.999 52.5s44 84.167 44 147.5s-14.667 112.333 -44 147s-68.666 52 -117.999 52
s-88.5 -17.333 -117.5 -52s-43.5 -83.667 -43.5 -147s14.5 -112.5 43.5 -147.5s68.167 -52.5 117.5 -52.5zM560 512.002c-11.333 0 -16.999 6 -16.999 18v153c0 18.667 9.66699 28 29 28s27.666 -10 24.999 -30l-18 -152c-2 -11.333 -8.33301 -17 -19 -17z" />
    <glyph glyph-name="Dcroat" unicode="&#x110;" horiz-adv-x="733" 
d="M126 0c-22.667 0 -34 11.667 -34 35v635c0 23.333 11.333 35 34 35h193c112 0 198.5 -30 259.5 -90s91.5 -147.333 91.5 -262s-30.5 -202.167 -91.5 -262.5s-147.5 -90.5 -259.5 -90.5h-193zM153 54h161c193.333 0 290 99.667 290 299c0 198.667 -96.667 298 -290 298
h-161v-597zM22 333c-17.333 0 -26 8.66699 -26 26c0 16 8.66699 24 26 24h311c17.333 0 26 -8 26 -24c0 -17.333 -8.66699 -26 -26 -26h-311z" />
    <glyph glyph-name="dcroat" unicode="&#x111;" horiz-adv-x="575" 
d="M265 -8c-43.333 0 -81.166 10.1689 -113.499 30.502s-57.333 49.333 -75 87s-26.5 82.167 -26.5 133.5c0 76.667 19.333 137.667 58 183s91 68 157 68c39.333 0 73.666 -8.83301 102.999 -26.5s51.333 -41.834 66 -72.501v163h-172c-18 0 -27 8 -27 24s9 24 27 24h172v76
c0 19.333 10.333 29 31 29c20 0 30 -9.66699 30 -29v-76h70c18.667 0 28 -8 28 -24s-9.33301 -24 -28 -24h-70v-533c0 -20.667 -10 -31 -30 -31c-20.667 0 -31 10.333 -31 31v66c-14 -30.667 -35.833 -54.834 -65.5 -72.501s-64.167 -26.5 -103.5 -26.5zM274 43.002
c49.333 0 88.5 17.5 117.5 52.5s43.5 84.167 43.5 147.5s-14.5 112.333 -43.5 147s-68.167 52 -117.5 52c-50 0 -89.5 -17.333 -118.5 -52s-43.5 -83.667 -43.5 -147s14.5 -112.5 43.5 -147.5s68.5 -52.5 118.5 -52.5z" />
    <glyph glyph-name="Emacron" unicode="&#x112;" horiz-adv-x="576" 
d="M126 0c-22.667 0 -34 11.667 -34 35v635c0 23.333 11.333 35 34 35h378c18.667 0 28 -8.66699 28 -26c0 -18 -9.33301 -27 -28 -27h-352v-268h332c18.667 0 28 -8.66699 28 -26c0 -18 -9.33301 -27 -28 -27h-332v-278h352c18.667 0 28 -8.66699 28 -26
c0 -18 -9.33301 -27 -28 -27h-378zM187 818c-16.667 0 -25 7.66699 -25 23c0 16 8.33301 24 25 24h270c16.667 0 25 -8 25 -24c0 -15.333 -8.33301 -23 -25 -23h-270z" />
    <glyph glyph-name="emacron" unicode="&#x113;" horiz-adv-x="527" 
d="M291 -8c-74.667 0 -133.501 22.168 -176.501 66.501s-64.5 105.166 -64.5 182.499c0 50 9.66699 94 29 132s46.166 67.667 80.499 89s73.833 32 118.5 32c64.667 0 115 -21 151 -63s54 -99.667 54 -173c0 -18.667 -9.33301 -28 -28 -28h-345
c2 -60 18.5 -106.167 49.5 -138.5s74.167 -48.5 129.5 -48.5c24.667 0 48.5 3.16699 71.5 9.5s45.5 17.833 67.5 34.5c12 8 22.333 9.83301 31 5.5s13.5 -11.333 14.5 -21s-4.16699 -18.5 -15.5 -26.5c-21.333 -17.333 -47.166 -30.5 -77.499 -39.5
s-60.166 -13.5 -89.499 -13.5zM278.999 445.001c-50.667 0 -90.1689 -15.833 -118.502 -47.5s-44.833 -72.5 -49.5 -122.5h317c-1.33301 53.333 -14.666 95 -39.999 125s-61.666 45 -108.999 45zM158.997 629.001c-16.667 0 -25 7.66699 -25 23s8.33301 23 25 23h240
c16.667 0 25 -7.66699 25 -23s-8.33301 -23 -25 -23h-240z" />
    <glyph glyph-name="Ebreve" unicode="&#x114;" horiz-adv-x="576" 
d="M126 0c-22.667 0 -34 11.667 -34 35v635c0 23.333 11.333 35 34 35h378c18.667 0 28 -8.66699 28 -26c0 -18 -9.33301 -27 -28 -27h-352v-268h332c18.667 0 28 -8.66699 28 -26c0 -18 -9.33301 -27 -28 -27h-332v-278h352c18.667 0 28 -8.66699 28 -26
c0 -18 -9.33301 -27 -28 -27h-378zM322 760c-38 0 -72.0029 11.833 -102.003 35.5s-49.667 61.167 -59 112.5c-1.33301 8 0 14.333 4 19s9 7.33398 15 8.00098c12.667 0.666992 20.334 -6 23.001 -20c6.66699 -40.667 21.5 -69.167 44.5 -85.5s47.833 -24.5 74.5 -24.5
s51.334 8.16699 74.001 24.5s37.667 44.833 45 85.5c2.66699 14 10.334 20.667 23.001 20c6 -0.666992 11 -3.33398 15 -8.00098s5.33301 -11 4 -19c-10 -51.333 -29.833 -88.833 -59.5 -112.5s-63.5 -35.5 -101.5 -35.5z" />
    <glyph glyph-name="ebreve" unicode="&#x115;" horiz-adv-x="527" 
d="M291 -8c-74.667 0 -133.501 22.168 -176.501 66.501s-64.5 105.166 -64.5 182.499c0 50 9.66699 94 29 132s46.166 67.667 80.499 89s73.833 32 118.5 32c64.667 0 115 -21 151 -63s54 -99.667 54 -173c0 -18.667 -9.33301 -28 -28 -28h-345
c2 -60 18.5 -106.167 49.5 -138.5s74.167 -48.5 129.5 -48.5c24.667 0 48.5 3.16699 71.5 9.5s45.5 17.833 67.5 34.5c12 8 22.333 9.83301 31 5.5s13.5 -11.333 14.5 -21s-4.16699 -18.5 -15.5 -26.5c-21.333 -17.333 -47.166 -30.5 -77.499 -39.5
s-60.166 -13.5 -89.499 -13.5zM278.999 445.001c-50.667 0 -90.1689 -15.833 -118.502 -47.5s-44.833 -72.5 -49.5 -122.5h317c-1.33301 53.333 -14.666 95 -39.999 125s-61.666 45 -108.999 45zM278.997 548.001c-40.667 0 -73.999 14.833 -99.999 44.5
s-42 71.167 -48 124.5c-0.666992 8 1.16602 14.333 5.49902 19s9.5 7 15.5 7c12.667 0 20 -7 22 -21c4.66699 -42.667 16.167 -74.834 34.5 -96.501s41.833 -32.5 70.5 -32.5s52.5 10.833 71.5 32.5s30.167 53.834 33.5 96.501c2 14 9.33301 21 22 21
c6 0 11.167 -2.33301 15.5 -7s6.16602 -11 5.49902 -19c-5.33301 -53.333 -21.166 -94.833 -47.499 -124.5s-59.833 -44.5 -100.5 -44.5z" />
    <glyph glyph-name="Edotaccent" unicode="&#x116;" horiz-adv-x="576" 
d="M126 0c-22.667 0 -34 11.667 -34 35v635c0 23.333 11.333 35 34 35h378c18.667 0 28 -8.66699 28 -26c0 -18 -9.33301 -27 -28 -27h-352v-268h332c18.667 0 28 -8.66699 28 -26c0 -18 -9.33301 -27 -28 -27h-332v-278h352c18.667 0 28 -8.66699 28 -26
c0 -18 -9.33301 -27 -28 -27h-378zM322 809c-27.333 0 -41 13.667 -41 41s13.667 41 41 41s41 -13.667 41 -41s-13.667 -41 -41 -41z" />
    <glyph glyph-name="edotaccent" unicode="&#x117;" horiz-adv-x="527" 
d="M291 -8c-74.667 0 -133.501 22.168 -176.501 66.501s-64.5 105.166 -64.5 182.499c0 50 9.66699 94 29 132s46.166 67.667 80.499 89s73.833 32 118.5 32c64.667 0 115 -21 151 -63s54 -99.667 54 -173c0 -18.667 -9.33301 -28 -28 -28h-345
c2 -60 18.5 -106.167 49.5 -138.5s74.167 -48.5 129.5 -48.5c24.667 0 48.5 3.16699 71.5 9.5s45.5 17.833 67.5 34.5c12 8 22.333 9.83301 31 5.5s13.5 -11.333 14.5 -21s-4.16699 -18.5 -15.5 -26.5c-21.333 -17.333 -47.166 -30.5 -77.499 -39.5
s-60.166 -13.5 -89.499 -13.5zM278.999 445.001c-50.667 0 -90.1689 -15.833 -118.502 -47.5s-44.833 -72.5 -49.5 -122.5h317c-1.33301 53.333 -14.666 95 -39.999 125s-61.666 45 -108.999 45zM278.997 611.001c-28 0 -42 13.667 -42 41s14 41 42 41s42 -13.667 42 -41
s-14 -41 -42 -41z" />
    <glyph glyph-name="Eogonek" unicode="&#x118;" horiz-adv-x="576" 
d="M126 0c-22.667 0 -34 11.667 -34 35v635c0 23.333 11.333 35 34 35h378c18.667 0 28 -8.66699 28 -26c0 -18 -9.33301 -27 -28 -27h-352v-268h332c18.667 0 28 -8.66699 28 -26c0 -18 -9.33301 -27 -28 -27h-332v-278h352c18.667 0 28 -8.66699 28 -26
c0 -18 -9.33301 -27 -28 -27h-378zM474 -191c-29.333 0 -53.1689 8.50293 -71.502 25.5029s-27.5 40.167 -27.5 69.5c0 25.333 8.16699 49.666 24.5 72.999s38.833 42.333 67.5 57l25 -34c-15.333 -6.66699 -30.666 -17.834 -45.999 -33.501s-23 -34.5 -23 -56.5
c0 -20 5.66699 -34.667 17 -44s25.333 -14 42 -14c6.66699 0 13 0.5 19 1.5s12 2.5 18 4.5c10.667 3.33301 18.167 2.16602 22.5 -3.50098s5.5 -12.5 3.5 -20.5s-6.66699 -13.333 -14 -16c-10 -4 -19.667 -6.5 -29 -7.5s-18.666 -1.5 -27.999 -1.5z" />
    <glyph glyph-name="eogonek" unicode="&#x119;" horiz-adv-x="527" 
d="M291 -8c-74.667 0 -133.501 22.168 -176.501 66.501s-64.5 105.166 -64.5 182.499c0 50 9.66699 94 29 132s46.166 67.667 80.499 89s73.833 32 118.5 32c64.667 0 115 -21 151 -63s54 -99.667 54 -173c0 -18.667 -9.33301 -28 -28 -28h-345
c2 -60 18.5 -106.167 49.5 -138.5s74.167 -48.5 129.5 -48.5c24.667 0 48.5 3.16699 71.5 9.5s45.5 17.833 67.5 34.5c12 8 22.333 9.83301 31 5.5s13.5 -11.333 14.5 -21s-4.16699 -18.5 -15.5 -26.5c-21.333 -17.333 -47.166 -30.5 -77.499 -39.5
s-60.166 -13.5 -89.499 -13.5zM278.999 445.001c-50.667 0 -90.1689 -15.833 -118.502 -47.5s-44.833 -72.5 -49.5 -122.5h317c-1.33301 53.333 -14.666 95 -39.999 125s-61.666 45 -108.999 45zM330.997 -190.999c-29.333 0 -53.1689 8.50293 -71.502 25.5029
s-27.5 40.167 -27.5 69.5c0 25.333 8.16699 49.666 24.5 72.999s38.833 42.333 67.5 57l25 -34c-15.333 -6.66699 -30.666 -17.834 -45.999 -33.501s-23 -34.5 -23 -56.5c0 -20 5.66699 -34.667 17 -44s25.333 -14 42 -14c6.66699 0 13 0.5 19 1.5s12 2.5 18 4.5
c10.667 3.33301 18.167 2.16602 22.5 -3.50098s5.5 -12.5 3.5 -20.5s-6.66699 -13.333 -14 -16c-10 -4 -19.667 -6.5 -29 -7.5s-18.666 -1.5 -27.999 -1.5z" />
    <glyph glyph-name="Ecaron" unicode="&#x11a;" horiz-adv-x="576" 
d="M126 0c-22.667 0 -34 11.667 -34 35v635c0 23.333 11.333 35 34 35h378c18.667 0 28 -8.66699 28 -26c0 -18 -9.33301 -27 -28 -27h-352v-268h332c18.667 0 28 -8.66699 28 -26c0 -18 -9.33301 -27 -28 -27h-332v-278h352c18.667 0 28 -8.66699 28 -26
c0 -18 -9.33301 -27 -28 -27h-378zM322 757c-8 0 -15.5 1.66699 -22.5 5s-13.167 9 -18.5 17l-95 133c-5.33301 8 -6.33301 15 -3 21s8.83301 9.33301 16.5 10s14.5 -2.66602 20.5 -9.99902l102 -123l102 123c6 7.33301 12.833 10.666 20.5 9.99902s13.167 -4 16.5 -10
s2.33301 -13 -3 -21l-94 -133c-6 -8 -12.5 -13.667 -19.5 -17s-14.5 -5 -22.5 -5z" />
    <glyph glyph-name="ecaron" unicode="&#x11b;" horiz-adv-x="527" 
d="M291 -8c-74.667 0 -133.501 22.168 -176.501 66.501s-64.5 105.166 -64.5 182.499c0 50 9.66699 94 29 132s46.166 67.667 80.499 89s73.833 32 118.5 32c64.667 0 115 -21 151 -63s54 -99.667 54 -173c0 -18.667 -9.33301 -28 -28 -28h-345
c2 -60 18.5 -106.167 49.5 -138.5s74.167 -48.5 129.5 -48.5c24.667 0 48.5 3.16699 71.5 9.5s45.5 17.833 67.5 34.5c12 8 22.333 9.83301 31 5.5s13.5 -11.333 14.5 -21s-4.16699 -18.5 -15.5 -26.5c-21.333 -17.333 -47.166 -30.5 -77.499 -39.5
s-60.166 -13.5 -89.499 -13.5zM278.999 445.001c-50.667 0 -90.1689 -15.833 -118.502 -47.5s-44.833 -72.5 -49.5 -122.5h317c-1.33301 53.333 -14.666 95 -39.999 125s-61.666 45 -108.999 45zM278.997 539.001c-16.667 0 -29.6631 8.66699 -38.9961 26l-88 161
c-4.66699 8.66699 -4.83398 16 -0.500977 22s10.166 9.16699 17.499 9.5s13 -3.16699 17 -10.5l93 -151l93 151c4 7.33301 9.66699 10.833 17 10.5s13.166 -3.5 17.499 -9.5s4.16602 -13.333 -0.500977 -22l-88 -161c-9.33301 -17.333 -22.333 -26 -39 -26z" />
    <glyph glyph-name="Gcircumflex" unicode="&#x11c;" horiz-adv-x="722" 
d="M405 -8c-111.333 0 -196 31.665 -254 94.998s-87 152 -87 266c0 74 12.833 138 38.5 192s62.667 95.5 111 124.5s106.833 43.5 175.5 43.5c44 0 86 -6.33301 126 -19s75 -32.667 105 -60c9.33301 -8 13 -17.167 11 -27.5s-7.16699 -18.166 -15.5 -23.499
s-17.833 -4 -28.5 4c-27.333 24.667 -57.666 42.334 -90.999 53.001s-69.333 16 -108 16c-83.333 0 -147.333 -26.5 -192 -79.5s-67 -127.5 -67 -223.5c0 -99.333 23.167 -175 69.5 -227s115.5 -78 207.5 -78c62.667 0 121 10.667 175 32v229h-158c-19.333 0 -29 9 -29 27
c0 16.667 9.66699 25 29 25h185c18.667 0 28 -9.33301 28 -28v-269c0 -16 -5.33301 -26.667 -16 -32c-26.667 -11.333 -59.834 -20.833 -99.501 -28.5s-78.167 -11.5 -115.5 -11.5zM285 766.998c-6 -7.33301 -12.833 -10.5 -20.5 -9.5s-13.167 4.5 -16.5 10.5
s-2.33301 12.667 3 20l95 133c5.33301 8 11.5 13.667 18.5 17s14.5 5 22.5 5s15.5 -1.66699 22.5 -5s13.5 -9 19.5 -17l94 -133c6 -7.33301 7.16699 -14 3.5 -20s-9.16699 -9.5 -16.5 -10.5s-14.333 2.16699 -21 9.5l-102 124z" />
    <glyph glyph-name="gcircumflex" unicode="&#x11d;" horiz-adv-x="578" 
d="M291 -188c-36 0 -70.834 4.49902 -104.501 13.499s-64.167 23.5 -91.5 43.5c-9.33301 6 -13.333 13.667 -12 23s5.66602 16.833 12.999 22.5s15.333 5.83398 24 0.500977c30 -20 58.167 -33.667 84.5 -41s54.5 -11 84.5 -11c48.667 0 85.667 13.333 111 40
s38 65.334 38 116.001v94c-14 -32 -36.167 -57 -66.5 -75s-64.833 -27 -103.5 -27c-45.333 0 -84.166 10.167 -116.499 30.5s-57.333 48.666 -75 84.999s-26.5 78.5 -26.5 126.5s8.83301 90 26.5 126s42.667 64.167 75 84.5s71.166 30.5 116.499 30.5
c38.667 0 72.834 -8.83301 102.501 -26.5s51.834 -42.167 66.501 -73.5v66c0 21.333 10 32 30 32s30 -10.667 30 -32v-432c0 -144 -68.667 -216 -206 -216zM274.999 62.999c50 0 89.667 17.167 119 51.5s44 80.5 44 138.5s-14.667 104 -44 138s-69 51 -119 51
c-50.667 0 -90.5 -17 -119.5 -51s-43.5 -80 -43.5 -138s14.5 -104.167 43.5 -138.5s68.833 -51.5 119.5 -51.5zM417.999 574.999c4.66699 -8.66699 4.83008 -16 0.49707 -22s-10.166 -9.16699 -17.499 -9.5s-13 3.16699 -17 10.5l-93 151l-93 -151
c-4 -7.33301 -9.66699 -10.833 -17 -10.5s-13.166 3.5 -17.499 9.5s-4.16602 13.333 0.500977 22l88 161c9.33301 17.333 22.333 26 39 26c17.333 0 30.333 -8.66699 39 -26z" />
    <glyph glyph-name="Gbreve" unicode="&#x11e;" horiz-adv-x="722" 
d="M405 -8c-111.333 0 -196 31.665 -254 94.998s-87 152 -87 266c0 74 12.833 138 38.5 192s62.667 95.5 111 124.5s106.833 43.5 175.5 43.5c44 0 86 -6.33301 126 -19s75 -32.667 105 -60c9.33301 -8 13 -17.167 11 -27.5s-7.16699 -18.166 -15.5 -23.499
s-17.833 -4 -28.5 4c-27.333 24.667 -57.666 42.334 -90.999 53.001s-69.333 16 -108 16c-83.333 0 -147.333 -26.5 -192 -79.5s-67 -127.5 -67 -223.5c0 -99.333 23.167 -175 69.5 -227s115.5 -78 207.5 -78c62.667 0 121 10.667 175 32v229h-158c-19.333 0 -29 9 -29 27
c0 16.667 9.66699 25 29 25h185c18.667 0 28 -9.33301 28 -28v-269c0 -16 -5.33301 -26.667 -16 -32c-26.667 -11.333 -59.834 -20.833 -99.501 -28.5s-78.167 -11.5 -115.5 -11.5zM387 759.998c-38 0 -72.0029 11.833 -102.003 35.5s-49.667 61.167 -59 112.5
c-1.33301 8 0 14.333 4 19s9 7.33398 15 8.00098c12.667 0.666992 20.334 -6 23.001 -20c6.66699 -40.667 21.5 -69.167 44.5 -85.5s47.833 -24.5 74.5 -24.5s51.334 8.16699 74.001 24.5s37.667 44.833 45 85.5c2.66699 14 10.334 20.667 23.001 20
c6 -0.666992 11 -3.33398 15 -8.00098s5.33301 -11 4 -19c-10 -51.333 -29.833 -88.833 -59.5 -112.5s-63.5 -35.5 -101.5 -35.5z" />
    <glyph glyph-name="gbreve" unicode="&#x11f;" horiz-adv-x="578" 
d="M291 -188c-36 0 -70.834 4.49902 -104.501 13.499s-64.167 23.5 -91.5 43.5c-9.33301 6 -13.333 13.667 -12 23s5.66602 16.833 12.999 22.5s15.333 5.83398 24 0.500977c30 -20 58.167 -33.667 84.5 -41s54.5 -11 84.5 -11c48.667 0 85.667 13.333 111 40
s38 65.334 38 116.001v94c-14 -32 -36.167 -57 -66.5 -75s-64.833 -27 -103.5 -27c-45.333 0 -84.166 10.167 -116.499 30.5s-57.333 48.666 -75 84.999s-26.5 78.5 -26.5 126.5s8.83301 90 26.5 126s42.667 64.167 75 84.5s71.166 30.5 116.499 30.5
c38.667 0 72.834 -8.83301 102.501 -26.5s51.834 -42.167 66.501 -73.5v66c0 21.333 10 32 30 32s30 -10.667 30 -32v-432c0 -144 -68.667 -216 -206 -216zM274.999 62.999c50 0 89.667 17.167 119 51.5s44 80.5 44 138.5s-14.667 104 -44 138s-69 51 -119 51
c-50.667 0 -90.5 -17 -119.5 -51s-43.5 -80 -43.5 -138s14.5 -104.167 43.5 -138.5s68.833 -51.5 119.5 -51.5zM290.999 547.999c-40.667 0 -73.999 14.833 -99.999 44.5s-42 71.167 -48 124.5c-0.666992 8 1.16602 14.333 5.49902 19s9.5 7 15.5 7c12.667 0 20 -7 22 -21
c4.66699 -42.667 16.167 -74.834 34.5 -96.501s41.833 -32.5 70.5 -32.5s52.5 10.833 71.5 32.5s30.167 53.834 33.5 96.501c2 14 9.33301 21 22 21c6 0 11.167 -2.33301 15.5 -7s6.16602 -11 5.49902 -19c-5.33301 -53.333 -21.166 -94.833 -47.499 -124.5
s-59.833 -44.5 -100.5 -44.5z" />
    <glyph glyph-name="Gdotaccent" unicode="&#x120;" horiz-adv-x="722" 
d="M405 -8c-111.333 0 -196 31.665 -254 94.998s-87 152 -87 266c0 74 12.833 138 38.5 192s62.667 95.5 111 124.5s106.833 43.5 175.5 43.5c44 0 86 -6.33301 126 -19s75 -32.667 105 -60c9.33301 -8 13 -17.167 11 -27.5s-7.16699 -18.166 -15.5 -23.499
s-17.833 -4 -28.5 4c-27.333 24.667 -57.666 42.334 -90.999 53.001s-69.333 16 -108 16c-83.333 0 -147.333 -26.5 -192 -79.5s-67 -127.5 -67 -223.5c0 -99.333 23.167 -175 69.5 -227s115.5 -78 207.5 -78c62.667 0 121 10.667 175 32v229h-158c-19.333 0 -29 9 -29 27
c0 16.667 9.66699 25 29 25h185c18.667 0 28 -9.33301 28 -28v-269c0 -16 -5.33301 -26.667 -16 -32c-26.667 -11.333 -59.834 -20.833 -99.501 -28.5s-78.167 -11.5 -115.5 -11.5zM387 808.998c-27.333 0 -41 13.667 -41 41s13.667 41 41 41s41 -13.667 41 -41
s-13.667 -41 -41 -41z" />
    <glyph glyph-name="gdotaccent" unicode="&#x121;" horiz-adv-x="578" 
d="M291 -188c-36 0 -70.834 4.49902 -104.501 13.499s-64.167 23.5 -91.5 43.5c-9.33301 6 -13.333 13.667 -12 23s5.66602 16.833 12.999 22.5s15.333 5.83398 24 0.500977c30 -20 58.167 -33.667 84.5 -41s54.5 -11 84.5 -11c48.667 0 85.667 13.333 111 40
s38 65.334 38 116.001v94c-14 -32 -36.167 -57 -66.5 -75s-64.833 -27 -103.5 -27c-45.333 0 -84.166 10.167 -116.499 30.5s-57.333 48.666 -75 84.999s-26.5 78.5 -26.5 126.5s8.83301 90 26.5 126s42.667 64.167 75 84.5s71.166 30.5 116.499 30.5
c38.667 0 72.834 -8.83301 102.501 -26.5s51.834 -42.167 66.501 -73.5v66c0 21.333 10 32 30 32s30 -10.667 30 -32v-432c0 -144 -68.667 -216 -206 -216zM274.999 62.999c50 0 89.667 17.167 119 51.5s44 80.5 44 138.5s-14.667 104 -44 138s-69 51 -119 51
c-50.667 0 -90.5 -17 -119.5 -51s-43.5 -80 -43.5 -138s14.5 -104.167 43.5 -138.5s68.833 -51.5 119.5 -51.5zM290.999 610.999c-28 0 -42 13.667 -42 41s14 41 42 41s42 -13.667 42 -41s-14 -41 -42 -41z" />
    <glyph glyph-name="uni0122" unicode="&#x122;" horiz-adv-x="722" 
d="M405 -8c-111.333 0 -196 31.665 -254 94.998s-87 152 -87 266c0 74 12.833 138 38.5 192s62.667 95.5 111 124.5s106.833 43.5 175.5 43.5c44 0 86 -6.33301 126 -19s75 -32.667 105 -60c9.33301 -8 13 -17.167 11 -27.5s-7.16699 -18.166 -15.5 -23.499
s-17.833 -4 -28.5 4c-27.333 24.667 -57.666 42.334 -90.999 53.001s-69.333 16 -108 16c-83.333 0 -147.333 -26.5 -192 -79.5s-67 -127.5 -67 -223.5c0 -99.333 23.167 -175 69.5 -227s115.5 -78 207.5 -78c62.667 0 121 10.667 175 32v229h-158c-19.333 0 -29 9 -29 27
c0 16.667 9.66699 25 29 25h185c18.667 0 28 -9.33301 28 -28v-269c0 -16 -5.33301 -26.667 -16 -32c-26.667 -11.333 -59.834 -20.833 -99.501 -28.5s-78.167 -11.5 -115.5 -11.5zM402 -245.002c-6.66699 -8.66699 -13.666 -12.668 -20.999 -12.001
s-12.5 4.33398 -15.5 11.001s-1.16699 15 5.5 25c6.66699 8.66699 11.667 18 15 28s5.66602 19.333 6.99902 28c-13.333 0.666992 -23.833 5 -31.5 13s-11.5 18 -11.5 30c0 12.667 3.83301 23 11.5 31s18.167 12 31.5 12c30 0 45 -17.667 45 -53c0 -18 -3 -37.667 -9 -59
s-15 -39.333 -27 -54z" />
    <glyph glyph-name="uni0123" unicode="&#x123;" horiz-adv-x="578" 
d="M291 -188c-36 0 -70.834 4.49902 -104.501 13.499s-64.167 23.5 -91.5 43.5c-9.33301 6 -13.333 13.667 -12 23s5.66602 16.833 12.999 22.5s15.333 5.83398 24 0.500977c30 -20 58.167 -33.667 84.5 -41s54.5 -11 84.5 -11c48.667 0 85.667 13.333 111 40
s38 65.334 38 116.001v94c-14 -32 -36.167 -57 -66.5 -75s-64.833 -27 -103.5 -27c-45.333 0 -84.166 10.167 -116.499 30.5s-57.333 48.666 -75 84.999s-26.5 78.5 -26.5 126.5s8.83301 90 26.5 126s42.667 64.167 75 84.5s71.166 30.5 116.499 30.5
c38.667 0 72.834 -8.83301 102.501 -26.5s51.834 -42.167 66.501 -73.5v66c0 21.333 10 32 30 32s30 -10.667 30 -32v-432c0 -144 -68.667 -216 -206 -216zM274.999 62.999c50 0 89.667 17.167 119 51.5s44 80.5 44 138.5s-14.667 104 -44 138s-69 51 -119 51
c-50.667 0 -90.5 -17 -119.5 -51s-43.5 -80 -43.5 -138s14.5 -104.167 43.5 -138.5s68.833 -51.5 119.5 -51.5zM291.999 564.999c-30 0 -45.001 17.668 -45.001 53.001c0 18 3 37.5 9 58.5s15 39.167 27 54.5c6.66699 8.66699 13.667 12.667 21 12s12.5 -4.5 15.5 -11.5
s1.16699 -15.167 -5.5 -24.5s-11.667 -18.833 -15 -28.5s-5.66602 -19.167 -6.99902 -28.5c13.333 -0.666992 23.833 -4.83398 31.5 -12.501s11.5 -17.5 11.5 -29.5c0 -13.333 -3.83301 -23.833 -11.5 -31.5s-18.167 -11.5 -31.5 -11.5z" />
    <glyph glyph-name="Hcircumflex" unicode="&#x124;" horiz-adv-x="756" 
d="M122 -6c-20 0 -30 10.667 -30 32v653c0 21.333 10 32 30 32c20.667 0 31 -10.667 31 -32v-294h450v294c0 21.333 10.333 32 31 32c20 0 30 -10.667 30 -32v-653c0 -21.333 -10 -32 -30 -32c-20.667 0 -31 10.667 -31 32v304h-450v-304c0 -21.333 -10.333 -32 -31 -32z
M276 767c-6 -7.33301 -12.833 -10.5 -20.5 -9.5s-13.167 4.5 -16.5 10.5s-2.33301 12.667 3 20l95 133c5.33301 8 11.5 13.667 18.5 17s14.5 5 22.5 5s15.5 -1.66699 22.5 -5s13.5 -9 19.5 -17l94 -133c6 -7.33301 7.16699 -14 3.5 -20s-9.16699 -9.5 -16.5 -10.5
s-14.333 2.16699 -21 9.5l-102 124z" />
    <glyph glyph-name="hcircumflex" unicode="&#x125;" horiz-adv-x="560" 
d="M111 -6c-20.667 0 -31.001 10.332 -31.001 30.999v655c0 20.667 10.333 31 31 31c20 0 30 -10.333 30 -31v-279c16.667 30.667 39.834 53.834 69.501 69.501s62.5 23.5 98.5 23.5c115.333 0 173 -62.667 173 -188v-281c0 -20.667 -10 -31 -30 -31
c-20.667 0 -31 10.333 -31 31v276c0 48 -9.66699 83.333 -29 106s-50 34 -92 34c-48 0 -86.5 -14.833 -115.5 -44.5s-43.5 -69.5 -43.5 -119.5v-252c0 -20.667 -10 -31 -30 -31zM179.999 766.999c-6 -7.33301 -12.833 -10.5 -20.5 -9.5s-13.167 4.5 -16.5 10.5
s-2.33301 12.667 3 20l95 133c5.33301 8 11.5 13.667 18.5 17s14.5 5 22.5 5s15.5 -1.66699 22.5 -5s13.5 -9 19.5 -17l94 -133c6 -7.33301 7.16699 -14 3.5 -20s-9.16699 -9.5 -16.5 -10.5s-14.333 2.16699 -21 9.5l-102 124z" />
    <glyph glyph-name="Hbar" unicode="&#x126;" horiz-adv-x="789" 
d="M139 -6c-20.667 0 -31 10.667 -31 32v497h-72c-18.667 0 -28 8.66699 -28 26c0 16.667 9.33301 25 28 25h72v105c0 21.333 10.333 32 31 32s31 -10.667 31 -32v-105h449v105c0 21.333 10.333 32 31 32s31 -10.667 31 -32v-105h72c18.667 0 28 -8.33301 28 -25
c0 -17.333 -9.33301 -26 -28 -26h-72v-497c0 -21.333 -10.333 -32 -31 -32s-31 10.667 -31 32v302h-449v-302c0 -21.333 -10.333 -32 -31 -32zM170 382h449v141h-449v-141z" />
    <glyph glyph-name="hbar" unicode="&#x127;" horiz-adv-x="560" 
d="M111 -6c-20.667 0 -31.001 10.332 -31.001 30.999v533h-66c-18.667 0 -28 8 -28 24s9.33301 24 28 24h66v75c0 20 10.333 30 31 30c20 0 30 -10 30 -30v-75h169c18 0 27 -8 27 -24s-9 -24 -27 -24h-169v-157c16.667 30.667 39.834 53.834 69.501 69.501
s62.5 23.5 98.5 23.5c115.333 0 173 -62.667 173 -188v-281c0 -20.667 -10 -31 -30 -31c-20.667 0 -31 10.333 -31 31v276c0 48 -9.66699 83.333 -29 106s-50 34 -92 34c-48 0 -86.5 -14.833 -115.5 -44.5s-43.5 -69.5 -43.5 -119.5v-252c0 -20.667 -10 -31 -30 -31z" />
    <glyph glyph-name="Itilde" unicode="&#x128;" horiz-adv-x="245" 
d="M122 -6c-20 0 -30 10.667 -30 32v653c0 21.333 10 32 30 32c20.667 0 31 -10.667 31 -32v-653c0 -21.333 -10.333 -32 -31 -32zM-59 784c-6 0.666992 -11.001 3 -15.001 7s-5.33301 10 -4 18c6 34 18.833 60.5 38.5 79.5s43.834 28.5 72.501 28.5c18 0 35 -4 51 -12
s31.5 -17.333 46.5 -28s29.333 -20.167 43 -28.5s27.167 -12.5 40.5 -12.5c18 0 32.833 6.16699 44.5 18.5s19.5 29.166 23.5 50.499c2.66699 12 9.66699 18 21 18c6 -0.666992 11 -3 15 -7s5.33301 -10 4 -18c-6 -34 -18.833 -60.5 -38.5 -79.5s-43.5 -28.5 -71.5 -28.5
c-18 0 -35.167 4 -51.5 12s-32 17.333 -47 28s-29.333 20.167 -43 28.5s-27.167 12.5 -40.5 12.5c-18 0 -32.833 -6.16699 -44.5 -18.5s-19.5 -29.166 -23.5 -50.499c-2.66699 -12 -9.66699 -18 -21 -18z" />
    <glyph glyph-name="itilde" unicode="&#x129;" horiz-adv-x="222" 
d="M111 -4c-20.667 0 -31 11 -31 33v428c0 21.333 10.333 32 31 32c20 0 30 -10.667 30 -32v-428c0 -22 -10 -33 -30 -33zM-43 589c-5.33301 0.666992 -10 3 -14 7s-5 10 -3 18c5.33301 32 16.166 58 32.499 78s38.5 30 66.5 30c15.333 0 29.333 -4 42 -12
s24.5 -17.333 35.5 -28s21.833 -20.167 32.5 -28.5s22 -12.5 34 -12.5c15.333 0 28.166 6.16699 38.499 18.5s17.833 29.5 22.5 51.5c2 11.333 9 17 21 17c5.33301 -0.666992 10 -3 14 -7s5 -10 3 -18c-5.33301 -32 -16.166 -58 -32.499 -78s-38.5 -30 -66.5 -30
c-15.333 0 -29.333 4 -42 12s-24.5 17.333 -35.5 28s-21.833 20.167 -32.5 28.5s-22 12.5 -34 12.5c-15.333 0 -28.166 -6.16699 -38.499 -18.5s-17.833 -29.5 -22.5 -51.5c-2 -11.333 -9 -17 -21 -17z" />
    <glyph glyph-name="Imacron" unicode="&#x12a;" horiz-adv-x="245" 
d="M122 -6c-20 0 -30 10.667 -30 32v653c0 21.333 10 32 30 32c20.667 0 31 -10.667 31 -32v-653c0 -21.333 -10.333 -32 -31 -32zM-13 818c-16.667 0 -25 7.66699 -25 23c0 16 8.33301 24 25 24h270c16.667 0 25 -8 25 -24c0 -15.333 -8.33301 -23 -25 -23h-270z" />
    <glyph glyph-name="imacron" unicode="&#x12b;" horiz-adv-x="222" 
d="M111 -4c-20.667 0 -31 11 -31 33v428c0 21.333 10.333 32 31 32c20 0 30 -10.667 30 -32v-428c0 -22 -10 -33 -30 -33zM-9 629c-16.667 0 -25 7.66699 -25 23s8.33301 23 25 23h240c16.667 0 25 -7.66699 25 -23s-8.33301 -23 -25 -23h-240z" />
    <glyph glyph-name="Ibreve" unicode="&#x12c;" horiz-adv-x="245" 
d="M122 -6c-20 0 -30 10.667 -30 32v653c0 21.333 10 32 30 32c20.667 0 31 -10.667 31 -32v-653c0 -21.333 -10.333 -32 -31 -32zM122 760c-38 0 -72.0029 11.833 -102.003 35.5s-49.667 61.167 -59 112.5c-1.33301 8 0 14.333 4 19s9 7.33398 15 8.00098
c12.667 0.666992 20.334 -6 23.001 -20c6.66699 -40.667 21.5 -69.167 44.5 -85.5s47.833 -24.5 74.5 -24.5s51.334 8.16699 74.001 24.5s37.667 44.833 45 85.5c2.66699 14 10.334 20.667 23.001 20c6 -0.666992 11 -3.33398 15 -8.00098s5.33301 -11 4 -19
c-10 -51.333 -29.833 -88.833 -59.5 -112.5s-63.5 -35.5 -101.5 -35.5z" />
    <glyph glyph-name="ibreve" unicode="&#x12d;" horiz-adv-x="222" 
d="M111 -4c-20.667 0 -31 11 -31 33v428c0 21.333 10.333 32 31 32c20 0 30 -10.667 30 -32v-428c0 -22 -10 -33 -30 -33zM111 548c-40.667 0 -73.999 14.833 -99.999 44.5s-42 71.167 -48 124.5c-0.666992 8 1.16602 14.333 5.49902 19s9.5 7 15.5 7c12.667 0 20 -7 22 -21
c4.66699 -42.667 16.167 -74.834 34.5 -96.501s41.833 -32.5 70.5 -32.5s52.5 10.833 71.5 32.5s30.167 53.834 33.5 96.501c2 14 9.33301 21 22 21c6 0 11.167 -2.33301 15.5 -7s6.16602 -11 5.49902 -19c-5.33301 -53.333 -21.166 -94.833 -47.499 -124.5
s-59.833 -44.5 -100.5 -44.5z" />
    <glyph glyph-name="Iogonek" unicode="&#x12e;" horiz-adv-x="245" 
d="M129 -191c-29.333 0 -53.167 8.50098 -71.5 25.501s-27.5 40.167 -27.5 69.5c0 44 21 81 63 111c-0.666992 3.33301 -1 7 -1 11v653c0 21.333 10 32 30 32c20.667 0 31 -10.667 31 -32v-653c0 -14.667 -5 -24.667 -15 -30c-14.667 -8 -28.334 -19.333 -41.001 -34
s-19 -32 -19 -52s5.66699 -34.667 17 -44s25.333 -14 42 -14c6.66699 0 13 0.5 19 1.5s12 2.5 18 4.5c10.667 3.33301 18.167 2.16602 22.5 -3.50098s5.5 -12.5 3.5 -20.5s-6.66699 -13.333 -14 -16c-10 -4 -19.667 -6.5 -29 -7.5s-18.666 -1.5 -27.999 -1.5z" />
    <glyph glyph-name="iogonek" unicode="&#x12f;" horiz-adv-x="222" 
d="M111 610c-29.333 0 -44 14 -44 42c0 27.333 14.667 41 44 41s44 -13.667 44 -41c0 -28 -14.667 -42 -44 -42zM118 -191c-30 0 -54.168 8.49902 -72.501 25.499s-27.5 40.167 -27.5 69.5c0 20.667 5.66699 40.834 17 60.501s27 36.834 47 51.501
c-1.33301 4 -2 8.33301 -2 13v428c0 21.333 10.333 32 31 32c20 0 30 -10.667 30 -32v-428c0 -14.667 -5.33301 -25.334 -16 -32.001c-19.333 -14 -34 -27.667 -44 -41s-15 -28.666 -15 -45.999c0 -20 5.83301 -34.667 17.5 -44s25.5 -14 41.5 -14
c7.33301 0 13.833 0.5 19.5 1.5s11.5 2.5 17.5 4.5c10.667 3.33301 18.167 2.16602 22.5 -3.50098s5.66602 -12.5 3.99902 -20.5s-6.5 -13.333 -14.5 -16c-9.33301 -4 -18.666 -6.5 -27.999 -7.5s-18.666 -1.5 -27.999 -1.5z" />
    <glyph glyph-name="Idotaccent" unicode="&#x130;" horiz-adv-x="245" 
d="M122 -6c-20 0 -30 10.667 -30 32v653c0 21.333 10 32 30 32c20.667 0 31 -10.667 31 -32v-653c0 -21.333 -10.333 -32 -31 -32zM122 809c-27.333 0 -41 13.667 -41 41s13.667 41 41 41s41 -13.667 41 -41s-13.667 -41 -41 -41z" />
    <glyph glyph-name="dotlessi" unicode="&#x131;" horiz-adv-x="222" 
d="M111 -4c-20.667 0 -31 11 -31 33v428c0 21.333 10.333 32 31 32c20 0 30 -10.667 30 -32v-428c0 -22 -10 -33 -30 -33z" />
    <glyph glyph-name="IJ" unicode="&#x132;" horiz-adv-x="555" 
d="M122 -6c-20 0 -30 10.667 -30 32v653c0 21.333 10 32 30 32c20.667 0 31 -10.667 31 -32v-653c0 -21.333 -10.333 -32 -31 -32zM265 -5c-10 -0.666992 -17.832 1.83398 -23.499 7.50098s-8.5 12.5 -8.5 20.5c0 6 2.16699 11.5 6.5 16.5s10.5 7.83301 18.5 8.5l33 3
c35.333 2.66699 62.666 15.667 81.999 39s29 54.333 29 93v497c0 20.667 10.333 31 31 31s31 -10.333 31 -31v-498c0 -55.333 -14.333 -98.833 -43 -130.5s-70 -49.834 -124 -54.501z" />
    <glyph glyph-name="Jcircumflex" unicode="&#x134;" horiz-adv-x="310" 
d="M20 -5c-10 -0.666992 -17.832 1.83398 -23.499 7.50098s-8.5 12.5 -8.5 20.5c0 6 2.16699 11.5 6.5 16.5s10.5 7.83301 18.5 8.5l33 3c35.333 2.66699 62.666 15.667 81.999 39s29 54.333 29 93v497c0 20.667 10.333 31 31 31s31 -10.333 31 -31v-498
c0 -55.333 -14.333 -98.833 -43 -130.5s-70 -49.834 -124 -54.501zM86.001 767.001c-6 -7.33301 -12.833 -10.5 -20.5 -9.5s-13.167 4.5 -16.5 10.5s-2.33301 12.667 3 20l95 133c5.33301 8 11.5 13.667 18.5 17s14.5 5 22.5 5s15.5 -1.66699 22.5 -5s13.5 -9 19.5 -17
l94 -133c6 -7.33301 7.16699 -14 3.5 -20s-9.16699 -9.5 -16.5 -10.5s-14.333 2.16699 -21 9.5l-102 124z" />
    <glyph glyph-name="jcircumflex" unicode="&#x135;" horiz-adv-x="225" 
d="M-27 -191c-12.667 -0.666992 -21.499 2.99902 -26.499 10.999s-5.83301 16.333 -2.5 25s10.666 13.334 21.999 14.001c39.333 1.33301 68.833 11.5 88.5 30.5s29.5 49.5 29.5 91.5v479c0 21.333 10 32 30 32c20.667 0 31 -10.667 31 -32v-475
c0 -60 -15.167 -104.167 -45.5 -132.5s-72.5 -42.833 -126.5 -43.5zM241.001 574.999c4.66699 -8.66699 4.83008 -16 0.49707 -22s-10.166 -9.16699 -17.499 -9.5s-13 3.16699 -17 10.5l-93 151l-93 -151c-4 -7.33301 -9.66699 -10.833 -17 -10.5s-13.166 3.5 -17.499 9.5
s-4.16602 13.333 0.500977 22l88 161c9.33301 17.333 22.333 26 39 26c17.333 0 30.333 -8.66699 39 -26z" />
    <glyph glyph-name="uni0136" unicode="&#x136;" horiz-adv-x="607" 
d="M122 -6c-20 0 -30 10.667 -30 32v654c0 20.667 10 31 30 31c20.667 0 31 -10.333 31 -31v-299h2l343 312c14 12 28 18 42 18c13.333 0 21.666 -4.5 24.999 -13.5s0 -18.167 -10 -27.5l-342 -309l359 -320c12 -11.333 15.833 -22 11.5 -32s-13.166 -15 -26.499 -15
c-8 0 -14.833 1.5 -20.5 4.5s-12.167 7.83301 -19.5 14.5l-362 322h-2v-309c0 -21.333 -10.333 -32 -31 -32zM317 -245c-6.66699 -8.66699 -13.666 -12.668 -20.999 -12.001s-12.5 4.33398 -15.5 11.001s-1.16699 15 5.5 25c6.66699 8.66699 11.667 18 15 28
s5.66602 19.333 6.99902 28c-13.333 0.666992 -23.833 5 -31.5 13s-11.5 18 -11.5 30c0 12.667 3.83301 23 11.5 31s18.167 12 31.5 12c30 0 45 -17.667 45 -53c0 -18 -3 -37.667 -9 -59s-15 -39.333 -27 -54z" />
    <glyph glyph-name="uni0137" unicode="&#x137;" horiz-adv-x="484" 
d="M111 -6c-20.667 0 -31.001 10.333 -31.001 31v655c0 20.667 10.333 31 31 31c20 0 30 -10.333 30 -31v-415h2l224 205c7.33301 6.66699 14 12 20 16s13.333 6 22 6c12 0 20 -4.83301 24 -14.5s1 -19.5 -9 -29.5l-216 -197l237 -211c11.333 -10.667 14.833 -21 10.5 -31
s-12.166 -15 -23.499 -15c-8.66699 0 -16 1.83301 -22 5.5s-13.333 9.5 -22 17.5l-245 216h-2v-208c0 -20.667 -10 -31 -30 -31zM249.999 -245c-6.66699 -8.66699 -13.666 -12.668 -20.999 -12.001s-12.5 4.33398 -15.5 11.001s-1.16699 15 5.5 25
c6.66699 8.66699 11.667 18 15 28s5.66602 19.333 6.99902 28c-13.333 0.666992 -23.833 5 -31.5 13s-11.5 18 -11.5 30c0 12.667 3.83301 23 11.5 31s18.167 12 31.5 12c30 0 45 -17.667 45 -53c0 -18 -3 -37.667 -9 -59s-15 -39.333 -27 -54z" />
    <glyph glyph-name="kgreenlandic" unicode="&#x138;" horiz-adv-x="484" 
d="M111 -6c-20.667 0 -31.002 10.333 -31.002 31v435c0 21.333 10.333 32 31 32c20 0 30 -10.667 30 -32v-195h2l224 205c7.33301 6.66699 13.833 12 19.5 16s12.834 6 21.501 6c12 0 20.167 -4.83301 24.5 -14.5s1.5 -19.5 -8.5 -29.5l-216 -197l237 -211
c11.333 -10.667 14.833 -21 10.5 -31s-12.166 -15 -23.499 -15c-8.66699 0 -16 1.83301 -22 5.5s-13.333 9.5 -22 17.5l-245 216h-2v-208c0 -20.667 -10 -31 -30 -31z" />
    <glyph glyph-name="Lacute" unicode="&#x139;" horiz-adv-x="535" 
d="M123 0c-20.667 0 -31 10.667 -31 32v646c0 21.333 10 32 30 32c20.667 0 31 -10.667 31 -32v-623h344c20 0 30 -9 30 -27c0 -18.667 -10 -28 -30 -28h-374zM150 769c-6 -7.33301 -12.666 -10.333 -19.999 -9s-12.833 5 -16.5 11s-2.83398 13 2.49902 21l94 136
c8 12 17.5 17.167 28.5 15.5s19 -7 24 -16s3.16699 -18.5 -5.5 -28.5z" />
    <glyph glyph-name="lacute" unicode="&#x13a;" horiz-adv-x="285" 
d="M220 -8c-44.667 0 -79.167 13.832 -103.5 41.499s-36.5 67.5 -36.5 119.5v527c0 20.667 10.333 31 31 31c20 0 30 -10.333 30 -31v-520c0 -76.667 30 -115 90 -115c6 0 11.5 0.333008 16.5 1s9.83301 1 14.5 1c6 0.666992 10.5 -0.5 13.5 -3.5s4.5 -9.16699 4.5 -18.5
c0 -17.333 -10 -27.666 -30 -30.999c-4.66699 -1.33301 -9.66699 -2 -15 -2h-15zM139 768.999c-6 -7.33301 -12.666 -10.333 -19.999 -9s-12.833 5 -16.5 11s-2.83398 13 2.49902 21l94 136c8 12 17.5 17.167 28.5 15.5s19 -7 24 -16s3.16699 -18.5 -5.5 -28.5z" />
    <glyph glyph-name="uni013B" unicode="&#x13b;" horiz-adv-x="535" 
d="M123 0c-20.667 0 -31 10.667 -31 32v646c0 21.333 10 32 30 32c20.667 0 31 -10.667 31 -32v-623h344c20 0 30 -9 30 -27c0 -18.667 -10 -28 -30 -28h-374zM314 -245c-6.66699 -8.66699 -13.666 -12.668 -20.999 -12.001s-12.5 4.33398 -15.5 11.001s-1.16699 15 5.5 25
c6.66699 8.66699 11.667 18 15 28s5.66602 19.333 6.99902 28c-13.333 0.666992 -23.833 5 -31.5 13s-11.5 18 -11.5 30c0 12.667 3.83301 23 11.5 31s18.167 12 31.5 12c30 0 45 -17.667 45 -53c0 -18 -3 -37.667 -9 -59s-15 -39.333 -27 -54z" />
    <glyph glyph-name="uni013C" unicode="&#x13c;" horiz-adv-x="285" 
d="M220 -8c-44.667 0 -79.167 13.832 -103.5 41.499s-36.5 67.5 -36.5 119.5v527c0 20.667 10.333 31 31 31c20 0 30 -10.333 30 -31v-520c0 -76.667 30 -115 90 -115c6 0 11.5 0.333008 16.5 1s9.83301 1 14.5 1c6 0.666992 10.5 -0.5 13.5 -3.5s4.5 -9.16699 4.5 -18.5
c0 -17.333 -10 -27.666 -30 -30.999c-4.66699 -1.33301 -9.66699 -2 -15 -2h-15zM192 -245.001c-6.66699 -8.66699 -13.666 -12.668 -20.999 -12.001s-12.5 4.33398 -15.5 11.001s-1.16699 15 5.5 25c6.66699 8.66699 11.667 18 15 28s5.66602 19.333 6.99902 28
c-13.333 0.666992 -23.833 5 -31.5 13s-11.5 18 -11.5 30c0 12.667 3.83301 23 11.5 31s18.167 12 31.5 12c30 0 45 -17.667 45 -53c0 -18 -3 -37.667 -9 -59s-15 -39.333 -27 -54z" />
    <glyph glyph-name="Lcaron" unicode="&#x13d;" horiz-adv-x="535" 
d="M123 0c-20.667 0 -31 10.667 -31 32v646c0 21.333 10 32 30 32c20.667 0 31 -10.667 31 -32v-623h344c20 0 30 -9 30 -27c0 -18.667 -10 -28 -30 -28h-374zM292 481c-13.333 0 -20.001 7 -20.001 21v179c0 20 10 30 30 30s29.333 -10.333 28 -31l-16 -179
c-1.33301 -13.333 -8.66602 -20 -21.999 -20z" />
    <glyph glyph-name="lcaron" unicode="&#x13e;" horiz-adv-x="285" 
d="M220 -8c-44.667 0 -79.167 13.832 -103.5 41.499s-36.5 67.5 -36.5 119.5v527c0 20.667 10.333 31 31 31c20 0 30 -10.333 30 -31v-520c0 -76.667 30 -115 90 -115c6 0 11.5 0.333008 16.5 1s9.83301 1 14.5 1c6 0.666992 10.5 -0.5 13.5 -3.5s4.5 -9.16699 4.5 -18.5
c0 -17.333 -10 -27.666 -30 -30.999c-4.66699 -1.33301 -9.66699 -2 -15 -2h-15zM206 511.999c-11.333 0 -16.999 6 -16.999 18v153c0 18.667 9.66699 28 29 28s27.666 -10 24.999 -30l-18 -152c-2 -11.333 -8.33301 -17 -19 -17z" />
    <glyph glyph-name="Ldot" unicode="&#x13f;" horiz-adv-x="535" 
d="M123 0c-20.667 0 -31 10.667 -31 32v646c0 21.333 10 32 30 32c20.667 0 31 -10.667 31 -32v-623h344c20 0 30 -9 30 -27c0 -18.667 -10 -28 -30 -28h-374zM394 342c-14 0 -25.333 4.33301 -34 13s-13 19.667 -13 33s4.33301 24.333 13 33s20 13 34 13
s25 -4.33301 33 -13s12 -19.667 12 -33s-4 -24.333 -12 -33s-19 -13 -33 -13z" />
    <glyph glyph-name="ldot" unicode="&#x140;" horiz-adv-x="300" 
d="M220 -8c-44.667 0 -79.167 13.832 -103.5 41.499s-36.5 67.5 -36.5 119.5v527c0 20.667 10.333 31 31 31c20 0 30 -10.333 30 -31v-520c0 -76.667 30 -115 90 -115c6 0 11.5 0.333008 16.5 1s9.83301 1 14.5 1c6 0.666992 10.5 -0.5 13.5 -3.5s4.5 -9.16699 4.5 -18.5
c0 -17.333 -10 -27.666 -30 -30.999c-4.66699 -1.33301 -9.66699 -2 -15 -2h-15zM263 306.999c-14 0 -25.333 4.33301 -34 13s-13 19.667 -13 33s4.33301 24.333 13 33s20 13 34 13s25 -4.33301 33 -13s12 -19.667 12 -33s-4 -24.333 -12 -33s-19 -13 -33 -13z" />
    <glyph glyph-name="Lslash" unicode="&#x141;" horiz-adv-x="535" 
d="M123 0c-20.667 0 -31 10.667 -31 32v646c0 21.333 10 32 30 32c20.667 0 31 -10.667 31 -32v-623h344c20 0 30 -9 30 -27c0 -18.667 -10 -28 -30 -28h-374zM27 277c-11.333 -6 -21 -6.50098 -29 -1.50098s-12.333 12.333 -13 22s5 18.167 17 25.5l305 175
c11.333 6.66699 21 7.33398 29 2.00098s12.333 -13 13 -23s-5 -18.333 -17 -25z" />
    <glyph glyph-name="lslash" unicode="&#x142;" horiz-adv-x="285" 
d="M220 -8c-44.667 0 -79.167 13.832 -103.5 41.499s-36.5 67.5 -36.5 119.5v527c0 20.667 10.333 31 31 31c20 0 30 -10.333 30 -31v-520c0 -76.667 30 -115 90 -115c6 0 11.5 0.333008 16.5 1s9.83301 1 14.5 1c6 0.666992 10.5 -0.5 13.5 -3.5s4.5 -9.16699 4.5 -18.5
c0 -17.333 -10 -27.666 -30 -30.999c-4.66699 -1.33301 -9.66699 -2 -15 -2h-15zM29 273.999c-10.667 -6.66699 -19.998 -7.33301 -27.998 -2s-12.333 12.833 -13 22.5s4.66602 17.834 15.999 24.501l209 122c10.667 6 20.167 6.33301 28.5 1s12.666 -12.833 12.999 -22.5
s-5.16699 -17.834 -16.5 -24.501z" />
    <glyph glyph-name="Nacute" unicode="&#x143;" horiz-adv-x="736" 
d="M121 -6c-19.333 0 -29 10.333 -29 31v654c0 21.333 8.66699 32 26 32c8 0 14.167 -1.33301 18.5 -4s8.83301 -7.66699 13.5 -15l437 -588v577c0 20 9.66699 30 29 30c18.667 0 28 -10 28 -30v-656c0 -20.667 -8.33301 -31 -25 -31c-12.667 0 -23.667 6.33301 -33 19
l-437 589v-577c0 -20.667 -9.33301 -31 -28 -31zM396 769c-6 -7.33301 -12.666 -10.333 -19.999 -9s-12.833 5 -16.5 11s-2.83398 13 2.49902 21l94 136c8 12 17.5 17.167 28.5 15.5s19 -7 24 -16s3.16699 -18.5 -5.5 -28.5z" />
    <glyph glyph-name="nacute" unicode="&#x144;" horiz-adv-x="560" 
d="M111 -6c-20.667 0 -31 10.333 -31 31v435c0 21.333 10.333 32 31 32c19.333 0 29 -10.667 29 -32v-62c16 32 39 56 69 72s63.333 24 100 24c115.333 0 173 -62.667 173 -188v-281c0 -20.667 -10 -31 -30 -31c-20.667 0 -31 10.333 -31 31v276
c0 48 -9.66699 83.333 -29 106s-50 34 -92 34c-48 0 -86.5 -14.833 -115.5 -44.5s-43.5 -69.5 -43.5 -119.5v-252c0 -20.667 -10 -31 -30 -31zM307 554c-4.66699 -7.33301 -10.834 -10.833 -18.501 -10.5s-13.667 3.5 -18 9.5s-4.5 13.333 -0.5 22l88 169
c4.66699 9.33301 11 15 19 17s15.5 1 22.5 -3s11.833 -9.66699 14.5 -17s1.33398 -15 -3.99902 -23z" />
    <glyph glyph-name="uni0145" unicode="&#x145;" horiz-adv-x="736" 
d="M121 -6c-19.333 0 -29 10.333 -29 31v654c0 21.333 8.66699 32 26 32c8 0 14.167 -1.33301 18.5 -4s8.83301 -7.66699 13.5 -15l437 -588v577c0 20 9.66699 30 29 30c18.667 0 28 -10 28 -30v-656c0 -20.667 -8.33301 -31 -25 -31c-12.667 0 -23.667 6.33301 -33 19
l-437 589v-577c0 -20.667 -9.33301 -31 -28 -31zM376 -245c-6.66699 -8.66699 -13.666 -12.668 -20.999 -12.001s-12.5 4.33398 -15.5 11.001s-1.16699 15 5.5 25c6.66699 8.66699 11.667 18 15 28s5.66602 19.333 6.99902 28c-13.333 0.666992 -23.833 5 -31.5 13
s-11.5 18 -11.5 30c0 12.667 3.83301 23 11.5 31s18.167 12 31.5 12c30 0 45 -17.667 45 -53c0 -18 -3 -37.667 -9 -59s-15 -39.333 -27 -54z" />
    <glyph glyph-name="uni0146" unicode="&#x146;" horiz-adv-x="560" 
d="M111 -6c-20.667 0 -31 10.333 -31 31v435c0 21.333 10.333 32 31 32c19.333 0 29 -10.667 29 -32v-62c16 32 39 56 69 72s63.333 24 100 24c115.333 0 173 -62.667 173 -188v-281c0 -20.667 -10 -31 -30 -31c-20.667 0 -31 10.333 -31 31v276
c0 48 -9.66699 83.333 -29 106s-50 34 -92 34c-48 0 -86.5 -14.833 -115.5 -44.5s-43.5 -69.5 -43.5 -119.5v-252c0 -20.667 -10 -31 -30 -31zM289 -245c-6.66699 -8.66699 -13.666 -12.668 -20.999 -12.001s-12.5 4.33398 -15.5 11.001s-1.16699 15 5.5 25
c6.66699 8.66699 11.667 18 15 28s5.66602 19.333 6.99902 28c-13.333 0.666992 -23.833 5 -31.5 13s-11.5 18 -11.5 30c0 12.667 3.83301 23 11.5 31s18.167 12 31.5 12c30 0 45 -17.667 45 -53c0 -18 -3 -37.667 -9 -59s-15 -39.333 -27 -54z" />
    <glyph glyph-name="Ncaron" unicode="&#x147;" horiz-adv-x="736" 
d="M121 -6c-19.333 0 -29 10.333 -29 31v654c0 21.333 8.66699 32 26 32c8 0 14.167 -1.33301 18.5 -4s8.83301 -7.66699 13.5 -15l437 -588v577c0 20 9.66699 30 29 30c18.667 0 28 -10 28 -30v-656c0 -20.667 -8.33301 -31 -25 -31c-12.667 0 -23.667 6.33301 -33 19
l-437 589v-577c0 -20.667 -9.33301 -31 -28 -31zM368 757c-8 0 -15.5 1.66699 -22.5 5s-13.167 9 -18.5 17l-95 133c-5.33301 8 -6.33301 15 -3 21s8.83301 9.33301 16.5 10s14.5 -2.66602 20.5 -9.99902l102 -123l102 123c6 7.33301 12.833 10.666 20.5 9.99902
s13.167 -4 16.5 -10s2.33301 -13 -3 -21l-94 -133c-6 -8 -12.5 -13.667 -19.5 -17s-14.5 -5 -22.5 -5z" />
    <glyph glyph-name="ncaron" unicode="&#x148;" horiz-adv-x="560" 
d="M111 -6c-20.667 0 -31 10.333 -31 31v435c0 21.333 10.333 32 31 32c19.333 0 29 -10.667 29 -32v-62c16 32 39 56 69 72s63.333 24 100 24c115.333 0 173 -62.667 173 -188v-281c0 -20.667 -10 -31 -30 -31c-20.667 0 -31 10.333 -31 31v276
c0 48 -9.66699 83.333 -29 106s-50 34 -92 34c-48 0 -86.5 -14.833 -115.5 -44.5s-43.5 -69.5 -43.5 -119.5v-252c0 -20.667 -10 -31 -30 -31zM281 539c-16.667 0 -29.6631 8.66699 -38.9961 26l-88 161c-4.66699 8.66699 -4.83398 16 -0.500977 22
s10.166 9.16699 17.499 9.5s13 -3.16699 17 -10.5l93 -151l93 151c4 7.33301 9.66699 10.833 17 10.5s13.166 -3.5 17.499 -9.5s4.16602 -13.333 -0.500977 -22l-88 -161c-9.33301 -17.333 -22.333 -26 -39 -26z" />
    <glyph glyph-name="napostrophe" unicode="&#x149;" horiz-adv-x="560" 
d="M42 587c-6.66699 -8.66699 -13.8311 -12.668 -21.498 -12.001s-12.834 4.33398 -15.501 11.001s-0.666992 15 6 25c6.66699 8.66699 11.667 18 15 28s5.66602 19.333 6.99902 28c-13.333 0.666992 -23.833 5 -31.5 13s-11.5 18 -11.5 30c0 12.667 3.83301 23 11.5 31
s18.167 12 31.5 12c30 0 45 -17.667 45 -53c0 -18 -3 -37.667 -9 -59s-15 -39.333 -27 -54zM111.003 -6.00098c-20.667 0 -31 10.333 -31 31v435c0 21.333 10.333 32 31 32c19.333 0 29 -10.667 29 -32v-62c16 32 39 56 69 72s63.333 24 100 24
c115.333 0 173 -62.667 173 -188v-281c0 -20.667 -10 -31 -30 -31c-20.667 0 -31 10.333 -31 31v276c0 48 -9.66699 83.333 -29 106s-50 34 -92 34c-48 0 -86.5 -14.833 -115.5 -44.5s-43.5 -69.5 -43.5 -119.5v-252c0 -20.667 -10 -31 -30 -31z" />
    <glyph glyph-name="Eng" unicode="&#x14a;" horiz-adv-x="736" 
d="M472 -191c-12.667 -0.666992 -21.499 2.99902 -26.499 10.999s-5.83301 16.333 -2.5 25s10.666 13.334 21.999 14.001c40 2 70.333 12.333 91 31s31 49 31 91v32l-438 589v-577c0 -20.667 -9.33301 -31 -28 -31c-19.333 0 -29 10.333 -29 31v654
c0 21.333 8.66699 32 26 32c8 0 14.167 -1.33301 18.5 -4s8.83301 -7.66699 13.5 -15l437 -588v577c0 20 9.66699 30 29 30c18.667 0 28 -10 28 -30v-695c0 -60.667 -15.167 -105.167 -45.5 -133.5s-72.5 -42.833 -126.5 -43.5z" />
    <glyph glyph-name="eng" unicode="&#x14b;" horiz-adv-x="560" 
d="M309 -192c-13.333 0 -22.3311 4 -26.998 12s-5.33398 16.167 -2.00098 24.5s10.666 13.166 21.999 14.499c40.667 2 70.667 12.333 90 31s29 49 29 91v320c0 48 -9.66699 83.333 -29 106s-50 34 -92 34c-48 0 -86.5 -14.833 -115.5 -44.5s-43.5 -69.5 -43.5 -119.5v-252
c0 -20.667 -10 -31 -30 -31c-20.667 0 -31 10.333 -31 31v435c0 21.333 10.333 32 31 32c19.333 0 29 -10.667 29 -32v-62c16 32 39 56 69 72s63.333 24 100 24c115.333 0 173 -62.667 173 -188v-321c0 -60 -15.167 -104.167 -45.5 -132.5s-72.833 -43.166 -127.5 -44.499z
" />
    <glyph glyph-name="Omacron" unicode="&#x14c;" horiz-adv-x="759" 
d="M379 -8c-64.667 0 -120.499 14.667 -167.499 44s-83.333 71 -109 125s-38.5 118 -38.5 192s12.667 138 38 192s61.666 95.5 108.999 124.5s103.333 43.5 168 43.5c65.333 0 121.5 -14.5 168.5 -43.5s83.333 -70.333 109 -124s38.5 -117.5 38.5 -191.5
c0 -74.667 -12.833 -139 -38.5 -193s-62.167 -95.667 -109.5 -125s-103.333 -44 -168 -44zM379.001 48c79.333 0 141 26.667 185 80s66 128.333 66 225s-21.833 171.5 -65.5 224.5s-105.5 79.5 -185.5 79.5c-79.333 0 -140.833 -26.667 -184.5 -80s-65.5 -128 -65.5 -224
s21.833 -170.833 65.5 -224.5s105.167 -80.5 184.5 -80.5zM244.001 818c-16.667 0 -25 7.66699 -25 23c0 16 8.33301 24 25 24h270c16.667 0 25 -8 25 -24c0 -15.333 -8.33301 -23 -25 -23h-270z" />
    <glyph glyph-name="omacron" unicode="&#x14d;" horiz-adv-x="547" 
d="M273 -8c-45.333 0 -84.666 10.167 -117.999 30.5s-59.166 49.333 -77.499 87s-27.5 82.167 -27.5 133.5c0 50.667 9.16699 94.834 27.5 132.501s44.166 66.834 77.499 87.501s72.666 31 117.999 31c46 0 85.667 -10.333 119 -31s59.166 -49.834 77.499 -87.501
s27.5 -81.834 27.5 -132.501c0 -51.333 -9.16699 -95.833 -27.5 -133.5s-44.166 -66.667 -77.499 -87s-73 -30.5 -119 -30.5zM273 43c49.333 0 88.666 17.5 117.999 52.5s44 84.167 44 147.5s-14.667 112.333 -44 147s-68.666 52 -117.999 52s-88.5 -17.333 -117.5 -52
s-43.5 -83.667 -43.5 -147s14.5 -112.5 43.5 -147.5s68.167 -52.5 117.5 -52.5zM153 629c-16.667 0 -25 7.66699 -25 23s8.33301 23 25 23h240c16.667 0 25 -7.66699 25 -23s-8.33301 -23 -25 -23h-240z" />
    <glyph glyph-name="Obreve" unicode="&#x14e;" horiz-adv-x="759" 
d="M379 -8c-64.667 0 -120.499 14.667 -167.499 44s-83.333 71 -109 125s-38.5 118 -38.5 192s12.667 138 38 192s61.666 95.5 108.999 124.5s103.333 43.5 168 43.5c65.333 0 121.5 -14.5 168.5 -43.5s83.333 -70.333 109 -124s38.5 -117.5 38.5 -191.5
c0 -74.667 -12.833 -139 -38.5 -193s-62.167 -95.667 -109.5 -125s-103.333 -44 -168 -44zM379.001 48c79.333 0 141 26.667 185 80s66 128.333 66 225s-21.833 171.5 -65.5 224.5s-105.5 79.5 -185.5 79.5c-79.333 0 -140.833 -26.667 -184.5 -80s-65.5 -128 -65.5 -224
s21.833 -170.833 65.5 -224.5s105.167 -80.5 184.5 -80.5zM379.001 760c-38 0 -72.0029 11.833 -102.003 35.5s-49.667 61.167 -59 112.5c-1.33301 8 0 14.333 4 19s9 7.33398 15 8.00098c12.667 0.666992 20.334 -6 23.001 -20c6.66699 -40.667 21.5 -69.167 44.5 -85.5
s47.833 -24.5 74.5 -24.5s51.334 8.16699 74.001 24.5s37.667 44.833 45 85.5c2.66699 14 10.334 20.667 23.001 20c6 -0.666992 11 -3.33398 15 -8.00098s5.33301 -11 4 -19c-10 -51.333 -29.833 -88.833 -59.5 -112.5s-63.5 -35.5 -101.5 -35.5z" />
    <glyph glyph-name="obreve" unicode="&#x14f;" horiz-adv-x="547" 
d="M273 -8c-45.333 0 -84.666 10.167 -117.999 30.5s-59.166 49.333 -77.499 87s-27.5 82.167 -27.5 133.5c0 50.667 9.16699 94.834 27.5 132.501s44.166 66.834 77.499 87.501s72.666 31 117.999 31c46 0 85.667 -10.333 119 -31s59.166 -49.834 77.499 -87.501
s27.5 -81.834 27.5 -132.501c0 -51.333 -9.16699 -95.833 -27.5 -133.5s-44.166 -66.667 -77.499 -87s-73 -30.5 -119 -30.5zM273 43c49.333 0 88.666 17.5 117.999 52.5s44 84.167 44 147.5s-14.667 112.333 -44 147s-68.666 52 -117.999 52s-88.5 -17.333 -117.5 -52
s-43.5 -83.667 -43.5 -147s14.5 -112.5 43.5 -147.5s68.167 -52.5 117.5 -52.5zM273 548c-40.667 0 -73.999 14.833 -99.999 44.5s-42 71.167 -48 124.5c-0.666992 8 1.16602 14.333 5.49902 19s9.5 7 15.5 7c12.667 0 20 -7 22 -21
c4.66699 -42.667 16.167 -74.834 34.5 -96.501s41.833 -32.5 70.5 -32.5s52.5 10.833 71.5 32.5s30.167 53.834 33.5 96.501c2 14 9.33301 21 22 21c6 0 11.167 -2.33301 15.5 -7s6.16602 -11 5.49902 -19c-5.33301 -53.333 -21.166 -94.833 -47.499 -124.5
s-59.833 -44.5 -100.5 -44.5z" />
    <glyph glyph-name="Ohungarumlaut" unicode="&#x150;" horiz-adv-x="759" 
d="M379 -8c-64.667 0 -120.499 14.667 -167.499 44s-83.333 71 -109 125s-38.5 118 -38.5 192s12.667 138 38 192s61.666 95.5 108.999 124.5s103.333 43.5 168 43.5c65.333 0 121.5 -14.5 168.5 -43.5s83.333 -70.333 109 -124s38.5 -117.5 38.5 -191.5
c0 -74.667 -12.833 -139 -38.5 -193s-62.167 -95.667 -109.5 -125s-103.333 -44 -168 -44zM379.001 48c79.333 0 141 26.667 185 80s66 128.333 66 225s-21.833 171.5 -65.5 224.5s-105.5 79.5 -185.5 79.5c-79.333 0 -140.833 -26.667 -184.5 -80s-65.5 -128 -65.5 -224
s21.833 -170.833 65.5 -224.5s105.167 -80.5 184.5 -80.5zM457.001 767c-4.66699 -6.66699 -10 -9.83594 -16 -9.50293s-10.667 3 -14 8s-3 10.833 1 17.5l73 142c6.66699 12.667 15.167 18.834 25.5 18.501s18.333 -4.66602 24 -12.999s4.5 -18.166 -3.5 -29.499z
M341.001 767.998c-4.66699 -7.33301 -10.168 -10.8359 -16.501 -10.5029s-11.166 2.83301 -14.499 7.5s-3 10.667 1 18l71 142c6.66699 12.667 15.167 18.834 25.5 18.501s18.5 -4.66602 24.5 -12.999s5 -18.166 -3 -29.499z" />
    <glyph glyph-name="ohungarumlaut" unicode="&#x151;" horiz-adv-x="547" 
d="M273 -8c-45.333 0 -84.666 10.167 -117.999 30.5s-59.166 49.333 -77.499 87s-27.5 82.167 -27.5 133.5c0 50.667 9.16699 94.834 27.5 132.501s44.166 66.834 77.499 87.501s72.666 31 117.999 31c46 0 85.667 -10.333 119 -31s59.166 -49.834 77.499 -87.501
s27.5 -81.834 27.5 -132.501c0 -51.333 -9.16699 -95.833 -27.5 -133.5s-44.166 -66.667 -77.499 -87s-73 -30.5 -119 -30.5zM273 43c49.333 0 88.666 17.5 117.999 52.5s44 84.167 44 147.5s-14.667 112.333 -44 147s-68.666 52 -117.999 52s-88.5 -17.333 -117.5 -52
s-43.5 -83.667 -43.5 -147s14.5 -112.5 43.5 -147.5s68.167 -52.5 117.5 -52.5zM352 556c-2.66699 -7.33301 -7.16797 -11.3311 -13.501 -11.998s-11.833 0.833008 -16.5 4.5s-6 9.5 -4 17.5l47 170c4.66699 14 12.334 22.167 23.001 24.5s20 0.166016 28 -6.50098
s9.33301 -16.334 4 -29.001zM233.999 556.002c-2.66699 -7.33301 -7.16699 -11.3311 -13.5 -11.998s-12 0.833008 -17 4.5s-6.16699 9.5 -3.5 17.5l48 170c4 14 11.333 22.167 22 24.5s20 0.166016 28 -6.50098s9.33301 -16.334 4 -29.001z" />
    <glyph glyph-name="OE" unicode="&#x152;" horiz-adv-x="1042" 
d="M415 0c-112.667 0 -199.334 30.167 -260.001 90.5s-91 147.833 -91 262.5s30.333 202 91 262s147.334 90 260.001 90h555c18.667 0 28 -8.66699 28 -26c0 -18 -9.33301 -27 -28 -27h-352v-268h332c18.667 0 28 -8.66699 28 -26c0 -18 -9.33301 -27 -28 -27h-332v-278h352
c18.667 0 28 -8.66699 28 -26c0 -18 -9.33301 -27 -28 -27h-555zM420 54h138v597h-138c-194 0 -291 -99.333 -291 -298c0 -199.333 97 -299 291 -299z" />
    <glyph glyph-name="oe" unicode="&#x153;" horiz-adv-x="908" 
d="M272 -8c-45.333 0 -84.668 10.166 -118.001 30.499s-59 49.333 -77 87s-27 82.167 -27 133.5c0 50.667 9 94.834 27 132.501s43.667 66.834 77 87.501s72.666 31 117.999 31c46 0 85.667 -11.333 119 -34s58.333 -54.334 75 -95.001c16.667 40 42.334 71.5 77.001 94.5
s74.667 34.5 120 34.5c62 0 110.833 -21 146.5 -63s53.5 -99.667 53.5 -173c0 -18.667 -9.33301 -28 -28 -28h-338c2 -59.333 18 -105.333 48 -138s72.667 -49 128 -49c22.667 0 45.5 3.16699 68.5 9.5s45.167 17.833 66.5 34.5c12 8 22.333 9.83301 31 5.5
s13.5 -11.333 14.5 -21s-4.16699 -18.5 -15.5 -26.5c-22 -16.667 -47.667 -29.667 -77 -39s-58 -14 -86 -14c-51.333 0 -95.166 10.667 -131.499 32s-62.833 53 -79.5 95c-16.667 -40 -41.5 -71.167 -74.5 -93.5s-72.167 -33.5 -117.5 -33.5zM660.998 444.999
c-48.667 0 -86.833 -16 -114.5 -48s-43.834 -72.667 -48.501 -122h311c-1.33301 52.667 -14.666 94.167 -39.999 124.5s-61.333 45.5 -108 45.5zM272.999 42.999c49.333 0 88.666 17.5 117.999 52.5s44 84.167 44 147.5s-14.667 112.333 -44 147s-68.666 52 -117.999 52
s-88.5 -17.333 -117.5 -52s-43.5 -83.667 -43.5 -147s14.5 -112.5 43.5 -147.5s68.167 -52.5 117.5 -52.5z" />
    <glyph glyph-name="Racute" unicode="&#x154;" horiz-adv-x="661" 
d="M122 -6c-20 0 -30 10.667 -30 32v647c0 21.333 10.333 32 31 32h235c75.333 0 132.833 -17.333 172.5 -52s59.5 -84 59.5 -148c0 -52.667 -14.333 -95.334 -43 -128.001s-69.334 -53.667 -122.001 -63c28.667 -10.667 54 -36.667 76 -78l106 -197
c6 -11.333 7.16699 -21.666 3.5 -30.999s-11.167 -14 -22.5 -14c-16 0 -28 7.66699 -36 23l-112 209c-17.333 31.333 -36.666 52.333 -57.999 63s-50 16 -86 16h-143v-279c0 -21.333 -10.333 -32 -31 -32zM153 357h197c118.667 0 178 49.333 178 148
c0 98 -59.333 147 -178 147h-197v-295zM365 769c-6 -7.33301 -12.666 -10.333 -19.999 -9s-12.833 5 -16.5 11s-2.83398 13 2.49902 21l94 136c8 12 17.5 17.167 28.5 15.5s19 -7 24 -16s3.16699 -18.5 -5.5 -28.5z" />
    <glyph glyph-name="racute" unicode="&#x155;" horiz-adv-x="342" 
d="M111 -6c-20.667 0 -31 10.332 -31 30.999v435c0 21.333 10.333 32 31 32c19.333 0 29 -10.667 29 -32v-63c14.667 31.333 36.5 55.333 65.5 72s62.5 25.334 100.5 26.001c8 0.666992 14.667 -1 20 -5s8 -10.333 8 -19c0.666992 -18.667 -9 -29 -29 -31l-14 -1
c-47.333 -4 -84 -19.5 -110 -46.5s-39 -63.167 -39 -108.5v-259c0 -20.667 -10.333 -31 -31 -31zM235 553.999c-4.66699 -7.33301 -10.834 -10.833 -18.501 -10.5s-13.667 3.5 -18 9.5s-4.5 13.333 -0.5 22l88 169c4.66699 9.33301 11 15 19 17s15.5 1 22.5 -3
s11.833 -9.66699 14.5 -17s1.33398 -15 -3.99902 -23z" />
    <glyph glyph-name="uni0156" unicode="&#x156;" horiz-adv-x="661" 
d="M122 -6c-20 0 -30 10.667 -30 32v647c0 21.333 10.333 32 31 32h235c75.333 0 132.833 -17.333 172.5 -52s59.5 -84 59.5 -148c0 -52.667 -14.333 -95.334 -43 -128.001s-69.334 -53.667 -122.001 -63c28.667 -10.667 54 -36.667 76 -78l106 -197
c6 -11.333 7.16699 -21.666 3.5 -30.999s-11.167 -14 -22.5 -14c-16 0 -28 7.66699 -36 23l-112 209c-17.333 31.333 -36.666 52.333 -57.999 63s-50 16 -86 16h-143v-279c0 -21.333 -10.333 -32 -31 -32zM153 357h197c118.667 0 178 49.333 178 148
c0 98 -59.333 147 -178 147h-197v-295zM345 -245c-6.66699 -8.66699 -13.666 -12.668 -20.999 -12.001s-12.5 4.33398 -15.5 11.001s-1.16699 15 5.5 25c6.66699 8.66699 11.667 18 15 28s5.66602 19.333 6.99902 28c-13.333 0.666992 -23.833 5 -31.5 13s-11.5 18 -11.5 30
c0 12.667 3.83301 23 11.5 31s18.167 12 31.5 12c30 0 45 -17.667 45 -53c0 -18 -3 -37.667 -9 -59s-15 -39.333 -27 -54z" />
    <glyph glyph-name="uni0157" unicode="&#x157;" horiz-adv-x="342" 
d="M111 -6c-20.667 0 -31 10.332 -31 30.999v435c0 21.333 10.333 32 31 32c19.333 0 29 -10.667 29 -32v-63c14.667 31.333 36.5 55.333 65.5 72s62.5 25.334 100.5 26.001c8 0.666992 14.667 -1 20 -5s8 -10.333 8 -19c0.666992 -18.667 -9 -29 -29 -31l-14 -1
c-47.333 -4 -84 -19.5 -110 -46.5s-39 -63.167 -39 -108.5v-259c0 -20.667 -10.333 -31 -31 -31zM119 -245.001c-6.66699 -8.66699 -13.666 -12.668 -20.999 -12.001s-12.5 4.33398 -15.5 11.001s-1.16699 15 5.5 25c6.66699 8.66699 11.667 18 15 28
s5.66602 19.333 6.99902 28c-13.333 0.666992 -23.833 5 -31.5 13s-11.5 18 -11.5 30c0 12.667 3.83301 23 11.5 31s18.167 12 31.5 12c30 0 45 -17.667 45 -53c0 -18 -3 -37.667 -9 -59s-15 -39.333 -27 -54z" />
    <glyph glyph-name="Rcaron" unicode="&#x158;" horiz-adv-x="661" 
d="M122 -6c-20 0 -30 10.667 -30 32v647c0 21.333 10.333 32 31 32h235c75.333 0 132.833 -17.333 172.5 -52s59.5 -84 59.5 -148c0 -52.667 -14.333 -95.334 -43 -128.001s-69.334 -53.667 -122.001 -63c28.667 -10.667 54 -36.667 76 -78l106 -197
c6 -11.333 7.16699 -21.666 3.5 -30.999s-11.167 -14 -22.5 -14c-16 0 -28 7.66699 -36 23l-112 209c-17.333 31.333 -36.666 52.333 -57.999 63s-50 16 -86 16h-143v-279c0 -21.333 -10.333 -32 -31 -32zM153 357h197c118.667 0 178 49.333 178 148
c0 98 -59.333 147 -178 147h-197v-295zM337 757c-8 0 -15.5 1.66699 -22.5 5s-13.167 9 -18.5 17l-95 133c-5.33301 8 -6.33301 15 -3 21s8.83301 9.33301 16.5 10s14.5 -2.66602 20.5 -9.99902l102 -123l102 123c6 7.33301 12.833 10.666 20.5 9.99902s13.167 -4 16.5 -10
s2.33301 -13 -3 -21l-94 -133c-6 -8 -12.5 -13.667 -19.5 -17s-14.5 -5 -22.5 -5z" />
    <glyph glyph-name="rcaron" unicode="&#x159;" horiz-adv-x="342" 
d="M111 -6c-20.667 0 -31 10.332 -31 30.999v435c0 21.333 10.333 32 31 32c19.333 0 29 -10.667 29 -32v-63c14.667 31.333 36.5 55.333 65.5 72s62.5 25.334 100.5 26.001c8 0.666992 14.667 -1 20 -5s8 -10.333 8 -19c0.666992 -18.667 -9 -29 -29 -31l-14 -1
c-47.333 -4 -84 -19.5 -110 -46.5s-39 -63.167 -39 -108.5v-259c0 -20.667 -10.333 -31 -31 -31zM209 538.999c-16.667 0 -29.6631 8.66699 -38.9961 26l-88 161c-4.66699 8.66699 -4.83398 16 -0.500977 22s10.166 9.16699 17.499 9.5s13 -3.16699 17 -10.5l93 -151l93 151
c4 7.33301 9.66699 10.833 17 10.5s13.166 -3.5 17.499 -9.5s4.16602 -13.333 -0.500977 -22l-88 -161c-9.33301 -17.333 -22.333 -26 -39 -26z" />
    <glyph glyph-name="Sacute" unicode="&#x15a;" horiz-adv-x="607" 
d="M312 -8c-100.667 0 -182.666 24.3291 -245.999 72.9961c-11.333 8 -16.5 17.5 -15.5 28.5s5.83301 19.167 14.5 24.5s18.667 4 30 -4c30.667 -23.333 63.167 -40.166 97.5 -50.499s74.166 -15.5 119.499 -15.5c63.333 0 110.833 12.333 142.5 37s47.5 57 47.5 97
c0 33.333 -11.5 59.333 -34.5 78s-60.833 33.334 -113.5 44.001l-101 21c-62.667 12.667 -109.5 34 -140.5 64s-46.5 70 -46.5 120c0 40.667 10.5 76.334 31.5 107.001s50.167 54.5 87.5 71.5s80.333 25.5 129 25.5c43.333 0 83.166 -6 119.499 -18s69.5 -31 99.5 -57
c10 -8 14.333 -17.333 13 -28s-6.16602 -18.5 -14.499 -23.5s-18.166 -3.16699 -29.499 5.5c-28 22.667 -57.333 39.167 -88 49.5s-64 15.5 -100 15.5c-56 0 -100.833 -13.333 -134.5 -40s-50.5 -62.334 -50.5 -107.001c0 -35.333 10.667 -63.166 32 -83.499
s55.666 -35.166 102.999 -44.499l102 -21c67.333 -14 117.333 -34.833 150 -62.5s49 -65.5 49 -113.5c0 -38 -10.167 -71.5 -30.5 -100.5s-49.5 -51.667 -87.5 -68s-83 -24.5 -135 -24.5zM337.001 768.996c-6 -7.33301 -12.666 -10.333 -19.999 -9s-12.833 5 -16.5 11
s-2.83398 13 2.49902 21l94 136c8 12 17.5 17.167 28.5 15.5s19 -7 24 -16s3.16699 -18.5 -5.5 -28.5z" />
    <glyph glyph-name="sacute" unicode="&#x15b;" horiz-adv-x="478" 
d="M238 -8c-30 0 -59.835 4.00391 -89.502 12.0039s-57.834 21.667 -84.501 41c-8.66699 5.33301 -12.667 12.833 -12 22.5s4.5 17.167 11.5 22.5s15.833 4.66602 26.5 -2.00098c26 -17.333 51.333 -29.333 76 -36s49.334 -10 74.001 -10c41.333 0 72.5 7.5 93.5 22.5
s31.5 35.833 31.5 62.5c0 20.667 -7 37 -21 49s-36 21.667 -66 29l-87 20c-82 18.667 -123 61 -123 127c0 42.667 16.667 77 50 103s77.333 39 132 39c28.667 0 56.5 -4.33301 83.5 -13s50.5 -22 70.5 -40c8.66699 -6.66699 12.334 -14.667 11.001 -24
s-5.83301 -16.333 -13.5 -21s-16.5 -3.33398 -26.5 3.99902c-19.333 14.667 -39.666 25.5 -60.999 32.5s-43 10.5 -65 10.5c-38.667 0 -68.5 -8 -89.5 -24s-31.5 -37.667 -31.5 -65c0 -20.667 6.33301 -37.334 19 -50.001s33.334 -22.334 62.001 -29.001l87 -20
c43.333 -10 75.666 -24.833 96.999 -44.5s32 -46.167 32 -79.5c0 -43.333 -17 -77.333 -51 -102s-79.333 -37 -136 -37zM273.998 554.004c-4.66699 -7.33301 -10.834 -10.833 -18.501 -10.5s-13.667 3.5 -18 9.5s-4.5 13.333 -0.5 22l88 169c4.66699 9.33301 11 15 19 17
s15.5 1 22.5 -3s11.833 -9.66699 14.5 -17s1.33398 -15 -3.99902 -23z" />
    <glyph glyph-name="Scircumflex" unicode="&#x15c;" horiz-adv-x="607" 
d="M312 -8c-100.667 0 -182.666 24.3291 -245.999 72.9961c-11.333 8 -16.5 17.5 -15.5 28.5s5.83301 19.167 14.5 24.5s18.667 4 30 -4c30.667 -23.333 63.167 -40.166 97.5 -50.499s74.166 -15.5 119.499 -15.5c63.333 0 110.833 12.333 142.5 37s47.5 57 47.5 97
c0 33.333 -11.5 59.333 -34.5 78s-60.833 33.334 -113.5 44.001l-101 21c-62.667 12.667 -109.5 34 -140.5 64s-46.5 70 -46.5 120c0 40.667 10.5 76.334 31.5 107.001s50.167 54.5 87.5 71.5s80.333 25.5 129 25.5c43.333 0 83.166 -6 119.499 -18s69.5 -31 99.5 -57
c10 -8 14.333 -17.333 13 -28s-6.16602 -18.5 -14.499 -23.5s-18.166 -3.16699 -29.499 5.5c-28 22.667 -57.333 39.167 -88 49.5s-64 15.5 -100 15.5c-56 0 -100.833 -13.333 -134.5 -40s-50.5 -62.334 -50.5 -107.001c0 -35.333 10.667 -63.166 32 -83.499
s55.666 -35.166 102.999 -44.499l102 -21c67.333 -14 117.333 -34.833 150 -62.5s49 -65.5 49 -113.5c0 -38 -10.167 -71.5 -30.5 -100.5s-49.5 -51.667 -87.5 -68s-83 -24.5 -135 -24.5zM207.001 766.996c-6 -7.33301 -12.833 -10.5 -20.5 -9.5s-13.167 4.5 -16.5 10.5
s-2.33301 12.667 3 20l95 133c5.33301 8 11.5 13.667 18.5 17s14.5 5 22.5 5s15.5 -1.66699 22.5 -5s13.5 -9 19.5 -17l94 -133c6 -7.33301 7.16699 -14 3.5 -20s-9.16699 -9.5 -16.5 -10.5s-14.333 2.16699 -21 9.5l-102 124z" />
    <glyph glyph-name="scircumflex" unicode="&#x15d;" horiz-adv-x="478" 
d="M238 -8c-30 0 -59.835 4.00391 -89.502 12.0039s-57.834 21.667 -84.501 41c-8.66699 5.33301 -12.667 12.833 -12 22.5s4.5 17.167 11.5 22.5s15.833 4.66602 26.5 -2.00098c26 -17.333 51.333 -29.333 76 -36s49.334 -10 74.001 -10c41.333 0 72.5 7.5 93.5 22.5
s31.5 35.833 31.5 62.5c0 20.667 -7 37 -21 49s-36 21.667 -66 29l-87 20c-82 18.667 -123 61 -123 127c0 42.667 16.667 77 50 103s77.333 39 132 39c28.667 0 56.5 -4.33301 83.5 -13s50.5 -22 70.5 -40c8.66699 -6.66699 12.334 -14.667 11.001 -24
s-5.83301 -16.333 -13.5 -21s-16.5 -3.33398 -26.5 3.99902c-19.333 14.667 -39.666 25.5 -60.999 32.5s-43 10.5 -65 10.5c-38.667 0 -68.5 -8 -89.5 -24s-31.5 -37.667 -31.5 -65c0 -20.667 6.33301 -37.334 19 -50.001s33.334 -22.334 62.001 -29.001l87 -20
c43.333 -10 75.666 -24.833 96.999 -44.5s32 -46.167 32 -79.5c0 -43.333 -17 -77.333 -51 -102s-79.333 -37 -136 -37zM374.998 575.004c4.66699 -8.66699 4.83008 -16 0.49707 -22s-10.166 -9.16699 -17.499 -9.5s-13 3.16699 -17 10.5l-93 151l-93 -151
c-4 -7.33301 -9.66699 -10.833 -17 -10.5s-13.166 3.5 -17.499 9.5s-4.16602 13.333 0.500977 22l88 161c9.33301 17.333 22.333 26 39 26c17.333 0 30.333 -8.66699 39 -26z" />
    <glyph glyph-name="Scedilla" unicode="&#x15e;" horiz-adv-x="607" 
d="M312 -8c-100.667 0 -182.666 24.3291 -245.999 72.9961c-11.333 8 -16.5 17.5 -15.5 28.5s5.83301 19.167 14.5 24.5s18.667 4 30 -4c30.667 -23.333 63.167 -40.166 97.5 -50.499s74.166 -15.5 119.499 -15.5c63.333 0 110.833 12.333 142.5 37s47.5 57 47.5 97
c0 33.333 -11.5 59.333 -34.5 78s-60.833 33.334 -113.5 44.001l-101 21c-62.667 12.667 -109.5 34 -140.5 64s-46.5 70 -46.5 120c0 40.667 10.5 76.334 31.5 107.001s50.167 54.5 87.5 71.5s80.333 25.5 129 25.5c43.333 0 83.166 -6 119.499 -18s69.5 -31 99.5 -57
c10 -8 14.333 -17.333 13 -28s-6.16602 -18.5 -14.499 -23.5s-18.166 -3.16699 -29.499 5.5c-28 22.667 -57.333 39.167 -88 49.5s-64 15.5 -100 15.5c-56 0 -100.833 -13.333 -134.5 -40s-50.5 -62.334 -50.5 -107.001c0 -35.333 10.667 -63.166 32 -83.499
s55.666 -35.166 102.999 -44.499l102 -21c67.333 -14 117.333 -34.833 150 -62.5s49 -65.5 49 -113.5c0 -38 -10.167 -71.5 -30.5 -100.5s-49.5 -51.667 -87.5 -68s-83 -24.5 -135 -24.5zM317.001 -191.004c-12 0 -24.167 1 -36.5 3s-23.5 5 -33.5 9
c-8.66699 4 -13.5 9.83301 -14.5 17.5s1.16699 14.167 6.5 19.5s12.666 6 21.999 2c14 -6.66699 33 -10 57 -10c18 0 32.5 3.5 43.5 10.5s16.5 16.833 16.5 29.5c0 20 -12.667 30 -38 30c-6 0 -11.5 -0.166992 -16.5 -0.5s-10.833 -1.5 -17.5 -3.5c-12 -4 -20.333 -4 -25 0
c-4.66699 3.33301 -6 11 -4 23l12 81h45l-11 -66c8 1.33301 15.333 2 22 2c22.667 0 41.834 -5.83301 57.501 -17.5s23.5 -28.167 23.5 -49.5c0 -24 -10 -43.333 -30 -58s-46.333 -22 -79 -22z" />
    <glyph glyph-name="scedilla" unicode="&#x15f;" horiz-adv-x="478" 
d="M238 -8c-30 0 -59.835 4.00391 -89.502 12.0039s-57.834 21.667 -84.501 41c-8.66699 5.33301 -12.667 12.833 -12 22.5s4.5 17.167 11.5 22.5s15.833 4.66602 26.5 -2.00098c26 -17.333 51.333 -29.333 76 -36s49.334 -10 74.001 -10c41.333 0 72.5 7.5 93.5 22.5
s31.5 35.833 31.5 62.5c0 20.667 -7 37 -21 49s-36 21.667 -66 29l-87 20c-82 18.667 -123 61 -123 127c0 42.667 16.667 77 50 103s77.333 39 132 39c28.667 0 56.5 -4.33301 83.5 -13s50.5 -22 70.5 -40c8.66699 -6.66699 12.334 -14.667 11.001 -24
s-5.83301 -16.333 -13.5 -21s-16.5 -3.33398 -26.5 3.99902c-19.333 14.667 -39.666 25.5 -60.999 32.5s-43 10.5 -65 10.5c-38.667 0 -68.5 -8 -89.5 -24s-31.5 -37.667 -31.5 -65c0 -20.667 6.33301 -37.334 19 -50.001s33.334 -22.334 62.001 -29.001l87 -20
c43.333 -10 75.666 -24.833 96.999 -44.5s32 -46.167 32 -79.5c0 -43.333 -17 -77.333 -51 -102s-79.333 -37 -136 -37zM241.998 -190.996c-12 0 -24.167 1 -36.5 3s-23.5 5 -33.5 9c-8.66699 4 -13.5 9.83301 -14.5 17.5s1.16699 14.167 6.5 19.5s12.666 6 21.999 2
c14 -6.66699 33 -10 57 -10c18 0 32.5 3.5 43.5 10.5s16.5 16.833 16.5 29.5c0 20 -12.667 30 -38 30c-6 0 -11.5 -0.166992 -16.5 -0.5s-10.833 -1.5 -17.5 -3.5c-12 -4 -20.333 -4 -25 0c-4.66699 3.33301 -6 11 -4 23l12 81h45l-11 -66c8 1.33301 15.333 2 22 2
c22.667 0 41.834 -5.83301 57.501 -17.5s23.5 -28.167 23.5 -49.5c0 -24 -10 -43.333 -30 -58s-46.333 -22 -79 -22z" />
    <glyph glyph-name="Scaron" unicode="&#x160;" horiz-adv-x="607" 
d="M312 -8c-100.667 0 -182.666 24.3291 -245.999 72.9961c-11.333 8 -16.5 17.5 -15.5 28.5s5.83301 19.167 14.5 24.5s18.667 4 30 -4c30.667 -23.333 63.167 -40.166 97.5 -50.499s74.166 -15.5 119.499 -15.5c63.333 0 110.833 12.333 142.5 37s47.5 57 47.5 97
c0 33.333 -11.5 59.333 -34.5 78s-60.833 33.334 -113.5 44.001l-101 21c-62.667 12.667 -109.5 34 -140.5 64s-46.5 70 -46.5 120c0 40.667 10.5 76.334 31.5 107.001s50.167 54.5 87.5 71.5s80.333 25.5 129 25.5c43.333 0 83.166 -6 119.499 -18s69.5 -31 99.5 -57
c10 -8 14.333 -17.333 13 -28s-6.16602 -18.5 -14.499 -23.5s-18.166 -3.16699 -29.499 5.5c-28 22.667 -57.333 39.167 -88 49.5s-64 15.5 -100 15.5c-56 0 -100.833 -13.333 -134.5 -40s-50.5 -62.334 -50.5 -107.001c0 -35.333 10.667 -63.166 32 -83.499
s55.666 -35.166 102.999 -44.499l102 -21c67.333 -14 117.333 -34.833 150 -62.5s49 -65.5 49 -113.5c0 -38 -10.167 -71.5 -30.5 -100.5s-49.5 -51.667 -87.5 -68s-83 -24.5 -135 -24.5zM309.001 756.996c-8 0 -15.5 1.66699 -22.5 5s-13.167 9 -18.5 17l-95 133
c-5.33301 8 -6.33301 15 -3 21s8.83301 9.33301 16.5 10s14.5 -2.66602 20.5 -9.99902l102 -123l102 123c6 7.33301 12.833 10.666 20.5 9.99902s13.167 -4 16.5 -10s2.33301 -13 -3 -21l-94 -133c-6 -8 -12.5 -13.667 -19.5 -17s-14.5 -5 -22.5 -5z" />
    </font>
</defs>
</svg>
